<svg xmlns="http://www.w3.org/2000/svg" width="24" height="24">
  <path fill="currentColor"
    d="M20.33 3.591A19.234 19.234 0 0 0 15.38 2c-.213.394-.463.925-.634 1.347a17.784 17.784 0 0 0-5.488 0A14.526 14.526 0 0 0 8.615 2c-1.714.303-3.38.84-4.955 1.595C.527 8.438-.323 13.16.102 17.815c2.078 1.588 4.092 2.552 6.073 3.183.492-.692.927-1.425 1.3-2.19a12.67 12.67 0 0 1-2.048-1.02c.172-.13.339-.265.502-.406 3.95 1.889 8.24 1.889 12.142 0 .164.14.331.275.502.406-.653.402-1.34.744-2.052 1.021.375.77.81 1.503 1.3 2.191 1.983-.63 3.999-1.595 6.077-3.184.498-5.397-.851-10.076-3.568-14.225ZM8.013 14.953c-1.185 0-2.157-1.132-2.157-2.51 0-1.379.951-2.512 2.157-2.512s2.179 1.131 2.158 2.512c.002 1.378-.952 2.51-2.158 2.51Zm7.974 0c-1.186 0-2.158-1.132-2.158-2.51 0-1.379.951-2.512 2.158-2.512 1.206 0 2.178 1.131 2.157 2.512 0 1.378-.951 2.51-2.157 2.51Z" />
</svg>
