<svg xmlns="http://www.w3.org/2000/svg" xmlns:xlink="http://www.w3.org/1999/xlink" width="393"
  height="142" fill="none">
  <defs>
    <path id="reuse-0" fill="#fff"
      d="M11.202 142h373.5c13.758 0 9.613-42.773-19.742-49-13.698-2.906-26.283.047-33.661 5.71-1.473 1.132-4.108.245-4.357-1.595-2.482-18.358-13.256-44.99-44.982-48.615-25.675-2.934-39.237 5.458-47.861 17.334-.948 1.306-3.006 1.132-3.648-.349C212.78 24.73 194.827-1.917 137.46 1 81.698 3.835 61.517 54.76 57.078 88.34c-.147 1.11-3.336 2.047-4.263 1.418-6.678-4.53-21.337-7.27-36.355 2.742C1.78 102.286.556 119.72.847 132.009.977 137.53 5.679 142 11.202 142Z" />
  </defs>
  <use xlink:href="#reuse-0" />
  <mask id="a" width="393" height="142" x="0" y="0" maskUnits="userSpaceOnUse"
    style="mask-type:alpha">
    <use xlink:href="#reuse-0" />
  </mask>
  <g mask="url(#a)">
    <path fill="#CBFAFF" fill-opacity=".25"
      d="M61.286 116.862c.375-.938 1.905-.92 2.28.018 4.626 11.571 15.952 16.62 27.394 16.62 12.049 0 18.523-5.11 24.771-11.624a1.023 1.023 0 0 1 1.436-.034c6.964 6.53 16.636 11.658 40.293 11.658 31.503 0 50.064-12.497 66.714-27.776a1.007 1.007 0 0 1 1.459.101C236.097 118.534 251.945 133 269.46 133c16.1 0 30.352-3.171 40.693-13.618.567-.572 1.559-.316 1.759.463 2.9 11.33 9.045 22.155 73.548 22.155H10.96c24.114-1.891 42.862-6.465 50.326-25.138Z" />
    <rect width="378" height="3" x="8.96" y="138" fill="#E5FCFF" rx="1.5" />
  </g>
</svg>
