<svg width="383" height="329" viewBox="0 0 383 329" fill="currentColor"
  xmlns="http://www.w3.org/2000/svg">
  <path
    d="M243.242 69.9701C252.748 65.8678 263.714 73.9643 268.507 78.4515C273.3 82.9388 275.415 79.4065 280.183 76.6166C284.951 73.8266 291.602 70.5683 301.364 82.1048C312.543 95.3166 316.868 116.001 317.186 131.357C317.504 146.713 320.719 156.338 327.186 156.6C333.653 156.862 337.89 143.713 346.185 137.706C354.48 131.7 364.889 133.588 372.878 145.766C380.868 157.944 379.449 189.235 371.347 211.163C363.245 233.092 348.652 247.481 349.848 250.123C351.045 252.766 358.371 249.807 363.99 249.879C369.609 249.951 381.052 251.18 382.498 264.118C383.943 277.055 360.331 285.269 356.598 287.401C352.866 289.532 353.592 292.96 356.498 295.244C359.405 297.527 363.556 302.909 360.384 308.207C358.377 311.56 349.87 317.404 341.236 322.078C334.892 325.669 333.941 327.865 331.624 328.013C329.308 328.162 327.318 325.407 324.251 324.765C304.273 318.916 297.132 307.831 296.159 303.24C295.069 298.098 298.989 295.118 298.78 291.362C298.571 287.605 291.811 290.69 286.867 290.917C281.923 291.145 274.979 286.325 273.665 278.165C272.352 270.006 282.501 265.009 286.032 264.464C289.562 263.92 288.031 258.086 277.263 257.157C266.495 256.227 248.834 242.18 233.233 230.225C217.631 218.27 210.002 205.133 206.802 194.77C203.603 184.407 214.581 177.667 221.892 175.447C229.203 173.227 242.064 177.444 244.053 174.477C246.181 171.303 242.445 169.665 236.914 165.161C231.384 160.656 220.173 144.936 212.287 127.587C204.4 110.238 209.705 97.6257 218.081 93.2699C226.456 88.9143 230.857 93.1645 235.203 91.6156C239.547 90.0655 233.736 74.0724 243.242 69.9701ZM79.4301 2.15367C90.3541 -2.19733 106.563 3.06759 116.499 24.6234C126.436 46.1794 132.13 69.5448 131.874 78.4252C131.619 87.3055 130.123 92.1604 134.848 92.7377C139.265 93.2767 145.756 77.7199 153.8 72.6341C161.844 67.5483 177.135 62.6856 184.3 74.1371C191.465 85.5886 197.64 103.474 196.211 127.912C194.783 152.351 193.652 180.436 185.763 191.344C177.874 202.252 182.129 208.443 185.516 205.558C188.903 202.672 201.875 197.172 208.498 205.051C215.122 212.931 214.014 223.401 209.776 227.876C205.537 232.352 197.126 236.214 200.497 239.469C203.868 242.724 209.869 241.454 213.829 246.666C217.365 251.321 222.002 267.076 211.255 290.671C209.365 294.085 210.342 298.203 208.317 300.266C206.291 302.329 203.447 301.439 194.898 304.496C183.463 308.832 171.03 312.096 166.236 311.259C158.659 309.936 156.963 301.642 157.176 297.043C157.389 292.444 154.749 288.969 149.702 290.753C144.654 292.537 117.692 308.113 106.671 296.22C95.6509 284.327 103.806 272.538 108.312 267.182C112.818 261.826 121.57 257.327 120.053 254.048C118.536 250.77 93.0911 252.816 65.8237 242.606C38.5565 232.395 7.90268 208.264 2.92426 190.82C-2.0539 173.375 4.63881 162.026 17.0532 159.094C29.4675 156.163 45.3118 162.871 50.3286 156.561C55.3452 150.251 48.8884 139.386 34.6704 126.587C20.4521 113.788 4.47154 92.8747 1.11567 71.5814C-1.81469 52.9879 6.67104 49.37 13.1821 47.1459C19.693 44.9219 24.7445 45.804 24.4155 37.6332C24.0864 29.4621 25.3795 12.5334 36.9848 6.91051C48.59 1.28784 58.9376 19.7857 63.935 16.9496C68.9322 14.1133 68.5064 6.50462 79.4301 2.15367Z" />
</svg>
