<svg width="393" height="344" viewBox="0 0 393 344" fill="currentColor"
  xmlns="http://www.w3.org/2000/svg">
  <path
    d="M281.081 19.1284C285.397 12.1822 295.972 -1.10038 308.732 0.763136C321.492 2.62697 319.668 23.743 325.395 24.2026C331.123 24.6618 335.043 18.1273 346.525 20.6606C358.008 23.194 368.463 36.6513 364.582 60.0678C360.701 83.4845 352.293 106.016 347.096 113.221C341.898 120.426 337.934 123.603 341.519 126.734C344.871 129.66 358.978 120.433 368.49 120.741C378.002 121.049 393.385 125.61 392.885 139.109C392.384 152.608 387.45 170.875 372.546 190.295C357.641 209.716 340.937 232.321 328.284 236.917C315.631 241.514 315.675 249.025 320.098 248.54C324.521 248.054 338.343 250.786 339.399 261.025C340.456 271.264 333.661 279.306 327.641 280.629C321.62 281.953 312.491 280.426 313.453 285.012C314.415 289.599 320.093 291.917 320.443 298.454C320.756 304.291 315.747 319.932 293.605 333.422C290.124 335.185 288.621 339.141 285.786 339.711C282.952 340.281 281.098 337.948 272.308 335.677C260.411 332.845 248.29 328.565 244.793 325.18C239.266 319.831 242.52 312.016 245.278 308.33C248.037 304.643 247.804 300.285 242.625 298.927C237.446 297.569 206.391 295.318 203.949 279.289C201.508 263.259 214.876 258.084 221.612 256.182C228.348 254.28 238.117 255.472 238.702 251.907C239.286 248.341 217.082 235.747 200.253 211.989C193.309 202.186 187.22 190.097 182.859 178.069C176.369 189.311 166.435 199.155 157.555 205.718C145.202 214.847 139.203 223.03 142.724 228.46C146.245 233.891 159.425 229.756 169.119 233.059C178.813 236.362 183.285 245.95 177.957 259.505C172.629 273.061 146.265 289.974 123.685 296.025C101.105 302.075 80.9293 298.472 79.4618 300.974C77.9956 303.477 84.6415 307.749 87.8281 312.378C91.0146 317.007 96.6217 327.059 86.8945 335.711C77.1674 344.363 56.8261 329.831 52.9296 328.014C49.0338 326.198 46.6544 328.771 46.4687 332.462C46.2831 336.154 44.2865 342.651 38.1288 343.123C34.2325 343.42 24.5492 339.85 15.747 335.5C9.15159 332.396 6.80966 332.887 5.35052 331.081C3.89198 329.276 4.99193 326.061 3.74505 323.187C-3.01808 303.5 1.90523 291.269 5.09173 287.822C8.65956 283.963 13.3564 285.441 16.3027 283.101C19.2488 280.761 12.8253 277.024 9.78411 273.12C6.74291 269.215 6.6687 260.762 12.5712 254.977C18.4738 249.193 28.4148 254.592 30.8984 257.16C33.382 259.727 37.2603 255.109 31.7997 245.782C26.3389 236.454 27.6075 213.923 28.3564 194.282C29.1053 174.641 35.4233 160.826 42.0351 152.229C48.647 143.632 60.4904 148.701 66.5253 153.387C72.5602 158.074 76.5447 171.008 80.1161 170.918C83.9365 170.823 83.1168 166.827 83.5995 159.71C84.0825 152.594 90.4395 134.362 100.048 117.905C109.656 101.447 123.017 98.4928 131.41 102.815C139.803 107.137 138.875 113.184 142.648 115.837C146.423 118.49 156.123 104.509 164.963 109.9C173.802 115.291 173.526 128.92 172.631 135.424C172.065 139.538 173.5 140.923 175.903 141.963C176.055 138.93 176.503 136.186 177.283 133.819C182.959 116.589 194.869 110.956 206.788 115.5C218.707 120.045 228.051 134.493 235.745 132.088C243.439 129.684 244.197 117.068 239.618 98.4936C235.04 79.919 233.56 53.6412 242.739 34.1372C250.755 17.1063 259.807 18.8763 266.443 20.6918C273.08 22.5074 276.765 26.0744 281.081 19.1284Z"
  />
</svg>
