<svg xmlns="http://www.w3.org/2000/svg" fill="currentColor" viewBox="0 0 190 204">
  <path
    d="M93.87 61.28a9.85 9.85 0 0 1 3.23.17c.94.23 1.8.64 2.42 1.3.84.32 1.55.96 2.12 1.74.6.83 1.06 1.85 1.39 2.93.64 2.13.74 4.6.07 6.35-.6 1.57-.99 3.52-.92 5.27.07 1.77.6 3.21 1.7 3.95.62.41 1.22.7 1.81.94.58.23 1.22.46 1.82.73a8.11 8.11 0 0 1 3.68 3.28 6.5 6.5 0 0 1 .87 3.62 16.78 16.78 0 0 1-.65 4.13 25.05 25.05 0 0 1-2.72 6.39 6.9 6.9 0 0 0-1.13 3.48c-.01.58.09 1.06.3 1.42.2.35.5.6.97.73.69.17 1.5.58 2.31 1.13.82.55 1.69 1.26 2.48 2.05 1.58 1.58 3 3.58 3.3 5.44.27 1.78.23 4.37-.4 6.94-.64 2.57-1.88 5.18-4.06 6.95-2.1 1.7-5.1 3.3-7.55 4.7a35.28 35.28 0 0 0-3.13 1.9c-.4.29-.7.55-.92.78-.21.23-.29.38-.3.47 0 .02.03.07.13.15.17.15.45.32.86.5.81.4 1.95.79 3.25 1.28l.72.28.03-.02c6.59-4.04 13.43-1.34 17.02 2.95 3.58 4.28 2.43 6.53 3.96 8.75 1.53 2.22 7.87-.76 11.55 4.1 3.67 4.86 1.96 10.48.77 12.93-1.2 2.46.84 3.54 3.03 5.97 2.18 2.44 4.93 5.84 1.4 10.84-4.06 5.73-12.86 7.95-19.93 8.13-7.07.17-10.94 1.82-9.86 5.13.6 1.81 2.95 3.28 5.66 4.94H0v-78.66a5.82 5.82 0 0 1 4.21.72c.5.33.96.64 1.4.87.43.23.76.34.98.33a.4.4 0 0 0 .23-.07.66.66 0 0 0 .2-.27c.16-.33.27-.93.25-1.94-.02-.92-.44-2.2-1.09-3.81-.62-1.58-1.45-3.45-2.16-5.43-1.42-3.96-2.48-8.6-.8-13.01a55.3 55.3 0 0 0 1.91-5.66c.32-1.18.59-2.29 1.59-5.2a17.12 17.12 0 0 1 5.04-7.5c2.2-1.83 4.83-2.8 7.46-2.14 1.31.33 2.56 1.1 3.7 2 1.13.91 2.2 2 3.13 2.99.95 1.01 1.75 1.91 2.42 2.52.33.3.6.5.8.6.1.06.16.07.18.07.08-.05.2-.18.32-.46a6 6 0 0 0 .37-1.15c.23-.95.4-2.2.58-3.62.35-2.79.7-6.17 1.47-8.77.8-2.68 2.75-4.83 4.89-6.4a18.48 18.48 0 0 1 6.26-2.99c1.84-.43 4.23.11 6.28.98 1.04.43 2.03.96 2.85 1.51.82.55 1.5 1.14 1.92 1.7.3.4.65.58 1.04.64.41.05.9-.04 1.43-.27a6.9 6.9 0 0 0 2.8-2.37c.74-1.1 2.63-3.21 4.87-4.94a16.76 16.76 0 0 1 3.58-2.18 6.5 6.5 0 0 1 3.67-.57 8 8 0 0 1 4.43 2.17c.48.44.93.95 1.37 1.4.46.45.94.9 1.55 1.31 1.1.74 2.64.68 4.3.08 1.65-.6 3.3-1.7 4.53-2.86 1.37-1.28 3.7-2.12 5.9-2.34ZM167 179.5c1.52-1.3 5.08-3.59 8.63-2 3.54 1.59 2.14 6.56 3.75 7.18 1.6.62 3-.62 6.15 1.02 3.15 1.64 5.56 5.84 3.47 11.18a40.05 40.05 0 0 1-3.64 7.1h-53.69c-.67-.48-.82-2.18 0-3.48 2.34-3.68 5.96-3.98 9.16-1.82 3.2 2.17 6.26 4.1 8.55 4.2 2.29.1 3.03-2.89 2.51-7.8-.52-4.93.16-11.44 3.59-15.36 2.99-3.42 5.49-2.18 7.3-1.15 1.8 1.03 2.7 2.23 4.22.93ZM2.3 3.18C4 1.63 7.97-1.12 11.68.5c3.71 1.63 1.89 7.32 3.58 7.94 1.69.63 3.26-.84 6.55.85 3.28 1.7 5.6 6.34 3.03 12.49-2.58 6.14-6.46 11.66-8.45 13.2-2 1.55-3.38 2.08-2.49 3.26.83 1.1 5.61-.23 8.45.68 2.83.91 7.16 3.5 6.2 7.2-.97 3.7-3.55 8.33-9.19 12.42-5.64 4.08-12.01 8.9-16.08 9.07-1.66.07-2.71.46-3.29.9V3.7c.71.32 1.39.3 2.3-.52Z" />
</svg>
