<svg xmlns="http://www.w3.org/2000/svg" xmlns:xlink="http://www.w3.org/1999/xlink" fill="none"
  viewBox="0 0 745 183">
  <g clip-path="url(#a)">
    <g clip-path="url(#b)">
      <path fill="#f89829" fill-rule="evenodd"
        d="M648.221 56.7587c32.44-18.662 73.922-7.587 92.652 24.7365 4.725 8.1541.576 18.0298-7.607 22.7378l-67.096 38.598c9.55 5.482 21.692 5.883 31.923-.003 3.709-2.134 9.323-5.364 13.59-8.801s5.414-5.724 8.161-7.305c8.581-4.936 18.191-2.37 23.146 6.18 3.41 5.884 3.08 12.897-.254 18.308l.023.013c-5.717 9.354-16.522 16.728-26.712 22.59-32.441 18.662-73.923 7.587-92.653-24.737-18.729-32.323-7.614-73.6552 24.827-92.3173m17.55 30.0695c-8.892 5.1152-13.155 12.8613-10.424 20.9488.703 2.081 3.173 2.731 5.081 1.634l27.642-15.9017c1.909-1.0978 2.578-3.5547 1.121-5.2015-5.664-6.4-14.528-6.5947-23.42-1.4796"
        clip-rule="evenodd" />
      <path fill="#f89829"
        d="M547.59 7.95074C547.59 3.55967 551.163 0 555.57 0h39.897c4.407 0 7.98 3.55967 7.98 7.95074V174.916c0 4.391-3.573 7.951-7.98 7.951H555.57c-4.407 0-7.98-3.56-7.98-7.951zM442.864 47.7044c4.407 0 7.979 3.5597 7.979 7.9508v63.6058c0 8.782 7.146 15.902 15.959 15.902 8.814 0 15.96-7.12 15.96-15.902V55.6552c0-4.3911 3.572-7.9508 7.979-7.9508h31.918c4.407 0 7.98 3.5597 7.98 7.9508V174.916c0 4.391-3.573 7.951-7.98 7.951h-31.918c-4.407 0-7.979-3.56-7.979-7.951v-4.833c-8.475 7.927-19.876 12.784-32.417 12.784-26.167 0-47.379-21.136-47.379-47.207 0-.166.001-.332.003-.497h-.003V55.6552c0-4.3911 3.573-7.9508 7.98-7.9508z" />
      <path fill="#f89829" fill-rule="evenodd"
        d="M326.159.00776439C363.158.539196 392.988 30.589 392.988 67.5813c0 26.588-15.411 49.5887-37.816 60.6217l35.956 41.663c4.449 5.154.773 13.134-6.051 13.134h-42.788c-2.324 0-4.534-1.011-6.049-2.767l-38.899-45.07h-.108v39.753c0 4.391-3.572 7.951-7.979 7.951h-47.878c-4.407 0-7.979-3.56-7.979-7.951V7.95074C233.397 3.55967 236.969 0 241.376 0h84.783zM297.233 87.4581h11.969c11.018 0 19.949-8.8991 19.949-19.8768s-8.931-19.8769-19.949-19.8769h-11.969z"
        clip-rule="evenodd" />
      <path fill="#faa731"
        d="M442.864 47.7042c4.407 0 7.979 3.5597 7.979 7.9507v63.6061c0 8.782 7.146 15.902 15.959 15.902 8.814 0 15.959-7.12 15.96-15.902V55.6549c0-4.3909 3.572-7.9507 7.979-7.9507h31.918c4.407 0 7.98 3.5598 7.98 7.9507v93.0401c-14.453 1.634-29.219 2.479-44.231 2.479-28.716 0-56.536-3.092-82.978-8.883-.306-2.167-.464-4.381-.464-6.632 0-.166.001-.331.003-.496h-.003V55.6549c0-4.3909 3.573-7.9506 7.979-7.9507zM595.468 0c4.407.00019643 7.979 3.55976 7.979 7.95069V133.111c-17.872 5.754-36.549 10.23-55.857 13.286V7.95069C547.59 3.55964 551.163 0 555.57 0zm52.753 56.7592c25.191-14.4917 55.833-11.0513 77.041 6.3452-10.871 10.1277-22.716 19.5567-35.418 28.1926.295-1.008.122-2.1135-.654-2.9895-5.663-6.3996-14.527-6.5942-23.419-1.4792-8.892 5.1151-13.155 12.8615-10.424 20.9487.51 1.511 1.953 2.266 3.435 2.147-13.669 7.194-28.07 13.558-43.096 19.001-5.742-27.748 6.56-57.2235 32.535-72.1658" />
      <path fill="#faa731" fill-rule="evenodd"
        d="M326.159.00777004C363.159.539412 392.988 30.5889 392.988 67.5809c0 26.588-15.411 49.5891-37.817 60.6221l.008.009c-48.404-17.857-90.24-45.2865-121.782-79.286V7.95069C233.397 3.55964 236.969 0 241.376 0h84.783zM297.233 87.4586h11.969c11.018 0 19.95-8.9 19.95-19.8777-.001-10.9775-8.933-19.8767-19.95-19.8767h-11.969z"
        clip-rule="evenodd" />
    </g>
    <path fill="#fe8234"
      d="M131.182.500836c4.54.837674 7.577 4.112704 8.105 8.662624.684 8.53284-.802 13.86594-2.14 22.17094-10.571 65.5853-57.9289 33.4913-44.7408-2.6716C97.9666 13.4156 113.655-1.92799 131.182.500836M143.96 32.042c1.315-7.7334 2.65-21.4567 6.508-26.85427 3.857-5.397431 7.67-4.581006 11.535-4.566247 3.944.339858 7.627 1.467457 11.061 3.150247 6.849 3.33148 12.61 9.30137 15.639 16.46827 5.429 13.1338 8.312 26.5938 9.805 40.1299 3.039 27.5437-62.247 16.9671-54.548-28.3279" />
    <path fill="#fe8234"
      d="M143.961 32.042c7.14.6605 51.366 2.8098 54.206 25.4284 1.903 15.1604 1.956 30.4389 1.787 45.4836-.687 61.359-33.126 80.71-101.3363 79.946-45.7866-.445-99.120499-16.196-98.487566-70.779C.481112 81.8658 34.6232 28.0321 92.4065 28.6629c20.7085.2261 34.4135 1.7935 51.5545 3.3791" />
    <path fill="#ffcf9c"
      d="M164.558.955523c2.991.526197 5.824 1.502027 8.506 2.816237 6.849 3.33148 12.61 9.30134 15.639 16.46824 3.09 7.4764 5.355 15.0587 7.008 22.7004-.766.2907-1.556.53-2.371.7126-12.323 2.7641-25.309-8.2821-29.005-24.6728-1.436-6.3717-1.257-12.61286.223-18.024677M129.899 92.7088c29.208-5.6127 48.545 26.7472 38.785 54.7792-5.25 15.078-17.758 30.475-28.798 32.51-11.914 2.196-25.654 3.077-41.2684 2.902-43.1297-.419-92.95623-14.42-98.0646-61.665-1.8443-17.06 11.1383-28.0688 25.2236-26.776 18.3191 1.6815 12.1793 21.676 44.8882 21.321 38.3382-.416 30.0262-17.4584 59.2342-23.0712" />
    <ellipse cx="19.5934" cy="26.0602" fill="#fff" rx="19.5934" ry="26.0602"
      transform="matrix(.998565 .0535437 -.053754 .998554 99.6543 51.9895)" />
    <ellipse cx="13.7223" cy="18.2514" fill="#1d1f20" rx="13.7223" ry="18.2514"
      transform="matrix(.998565 .0535437 -.053754 .998554 106.051 60.6777)" />
    <ellipse cx="6.53114" cy="8.68675" fill="#fff" rx="6.53114" ry="8.68675"
      transform="matrix(.998565 .0535437 -.053754 .998554 103.672 58.2944)" />
    <ellipse cx="19.5934" cy="26.0602" fill="#fff" rx="19.5934" ry="26.0602"
      transform="matrix(.998565 .0535439 -.0537538 .998554 51.2534 51.4448)" />
    <ellipse cx="13.7223" cy="18.2514" fill="#1d1f20" rx="13.7223" ry="18.2514"
      transform="matrix(.998565 .0535439 -.0537538 .998554 59.4701 60.1536)" />
    <ellipse cx="6.53115" cy="8.68675" fill="#fff" rx="6.53115" ry="8.68675"
      transform="matrix(.998565 .0535439 -.0537538 .998554 57.6104 57.7761)" />
    <path fill="#1d1f20"
      d="M119.161 113.557c4.636-.39 9.191.957 12.732 3.802 3.54 2.844 5.831 6.996 6.438 11.597 2.45 18.52-22.217 34.912-36.309 39.484-23.7284 7.673-52.3203-.737-66.8717-21.348-1.5621-2.661-2.5603-5.725-2.4501-8.851.1085-3.124 1.2893-6.026 3.3787-8.167 2.0894-2.14 4.9664-3.395 8.0943-3.587 4.2587-.262 7.7092 1.926 11.655 3.006 12.2903 3.588 24.8328 3.339 33.4383.33 6.5872-2.168 12.4745-6.033 17.6395-10.599 3.316-3.154 7.617-5.279 12.255-5.667" />
    <path fill="#fd4d44"
      d="M109.087 141.453c9.324-7.465 20.625-9.911 29.226-7.187-2.211 16.273-23.564 30.045-36.291 34.173-1.993.645-4.0211 1.175-6.0719 1.595-1.6165-9.308 3.2263-20.645 13.1369-28.581" />
    <path fill="#fff"
      d="M87.5466 130.372c.7457 1.3 1.1527 2.732 1.1358 4.234-.0652 5.79-6.3918 10.414-14.1313 10.327-7.7396-.088-13.9611-4.852-13.896-10.642.0136-1.201.2968-2.351.8055-3.42 9.6019 1.91 18.9663 1.573 26.086-.499" />
    <path fill="#1d1f20"
      d="M45.3337 109.157c.6666 6.831 4.9522 12.454 9.308 16.485 2.9325 2.713 8.2696-.39 10.8073-3.474 3.072-3.733 8.0859-6.045 11.8965-6.572 6.4281-.888 9.2846-4.899 6.05-10.172-5.041-8.2182-39.5004-11.0084-38.0618 3.733" />
  </g>
  <defs>
    <clipPath id="a">
      <path fill="#fff" d="M0 0h745v183H0z" />
    </clipPath>
    <clipPath id="b">
      <path fill="#fff" d="M233 0h512v184H233z" />
    </clipPath>
  </defs>
</svg>
