<svg width="671" height="418" viewBox="0 0 671 418" fill="none" xmlns="http://www.w3.org/2000/svg">
<path d="M86.2011 256.768C140.699 258.172 162.347 218.808 168.882 194.482C175.418 170.155 172.543 101.623 131.759 97.6996C90.9749 93.7761 91.3402 154.935 67.1851 141.906C56.729 136.265 48.866 131.288 43.057 127.195C36.3064 122.439 24.9884 125.183 22.4748 133.05C16.3037 152.364 13.592 165.093 13.592 185.32C13.592 211.214 31.7028 255.364 86.2011 256.768Z" fill="#FE8234"/>
<path d="M156.208 25.0813C111.924 25.5918 78.5426 54.0804 63.5074 88.9674C52.0393 115.578 51.1138 155.615 52.1688 174.757C52.3556 174.831 52.4412 175.034 52.4056 175.372C51.7342 181.743 59.769 187.365 70.5366 185.086C81.3044 182.808 88.5827 176.771 98.0555 142.362C107.528 107.953 119.015 103.856 129.663 104.697C139.229 105.453 143.433 111.856 143.141 114.135L139.154 147.17L134.104 193.374L131.976 225.248C131.248 319.521 183.349 367.842 320.33 333.61C353.869 325.228 356.294 289.934 313.818 291.783C271.342 293.631 263.983 290.205 249.713 277.228C235.444 264.251 242.072 216.559 245.963 182.404C253.734 114.193 261.183 23.8714 156.208 25.0813Z" fill="#B7551E"/>
<path d="M429.09 265.393C414.568 251.575 372.518 248.233 372.518 292.439C372.518 336.645 372.518 353.385 372.518 390.396C372.516 391.052 372.554 391.959 373.194 392.101C401.748 398.403 430.314 404.653 458.891 410.851C459.962 411.083 460.954 410.437 461.174 409.363C466.785 382.006 436.592 371.112 415.127 369.589C432.536 362.374 445.83 347.155 447.938 326.163C450.047 305.171 443.612 279.212 429.09 265.393Z" fill="#FE8234"/>
<path d="M299.54 265.393C314.062 251.575 356.112 248.233 356.112 292.439C356.112 336.645 356.112 353.385 356.112 390.396C356.114 391.052 356.076 391.959 355.436 392.101C326.882 398.403 298.316 404.653 269.739 410.851C268.668 411.083 267.677 410.437 267.456 409.363C261.845 382.006 292.039 371.112 313.503 369.589C296.094 362.374 282.8 347.155 280.692 326.163C278.584 305.171 285.018 279.212 299.54 265.393Z" fill="#FE8234"/>
<path d="M466.47 191.752C463.36 189.643 458.789 190.36 456.467 193.319C445.625 206.561 422.875 209.768 406.998 206.846C391.702 204.031 375.894 213.53 375.894 230.446C375.894 243.881 386.786 254.773 400.221 254.773C430.563 254.773 477.8 231.194 490.526 215.812C494.265 211.292 495.06 204.125 491.482 199.486C485.533 191.772 475.816 195.395 469.584 199.109C469.995 196.321 468.829 193.352 466.47 191.752Z" fill="#FE8234"/>
<path d="M259.086 170.225C262.651 169.038 266.857 170.967 268.289 174.445C275.136 190.131 296.164 199.385 312.239 200.876C327.725 202.313 340.366 215.742 335.78 232.025C332.138 244.957 318.702 252.488 305.77 248.845C276.563 240.62 237.487 205.119 229.408 186.862C227.035 181.498 228.212 174.384 232.914 170.888C240.732 165.076 249.103 171.198 254.094 176.462C254.454 173.667 256.381 171.125 259.086 170.225Z" fill="#FE8234"/>
<path d="M350.547 114.308C324.876 115.829 306.048 141.172 305.134 171.753C303.833 215.276 303.568 237.654 301.686 301.254C299.803 364.853 433.329 370.718 424.558 290.458C419.689 245.908 408.22 207.914 401.935 166.02C397.4 135.788 376.218 112.788 350.547 114.308Z" fill="#FE8234"/>
<path d="M405.982 163.518C402.692 141.744 385.903 126.005 365.281 127.163C344.659 128.32 327.615 148.595 328.969 172.338C331.386 214.721 332.741 238.484 335.157 280.868C336.585 305.901 356.229 325.788 381.569 324.346C408.765 322.798 426.243 297.602 422.248 271.165C415.896 229.126 412.334 205.557 405.982 163.518Z" fill="#FFCF9C"/>
<path d="M340.355 42.744C336.258 43.4548 333.49 46.3824 332.969 50.487C332.266 58.1878 333.551 63.0202 334.673 70.5357C343.531 129.886 386.504 101.374 374.992 68.5749C370.138 54.7459 356.164 40.7273 340.355 42.744Z" fill="#FE8234"/>
<path d="M328.529 71.1058C327.423 64.107 326.359 51.6973 322.939 46.7826C319.52 41.8681 316.078 42.567 312.597 42.5412C309.042 42.8083 305.714 43.7896 302.604 45.275C296.402 48.215 291.154 53.5493 288.354 59.9925C283.332 71.8014 280.6 83.9307 279.119 96.1428C276.105 120.992 335.006 112.099 328.529 71.1058Z" fill="#FE8234"/>
<path d="M328.529 71.1059C322.092 71.6303 282.241 73.1244 279.456 93.5271C277.589 107.202 277.387 121.003 277.387 134.594C277.387 190.027 306.406 207.835 367.843 207.835C409.082 207.896 457.272 194.207 457.252 144.896C457.241 117.563 427.036 68.5896 374.992 68.575C356.34 68.5697 343.982 69.8469 328.529 71.1059Z" fill="#FE8234"/>
<path d="M310.293 42.8171C307.594 43.2622 305.032 44.115 302.604 45.275C296.402 48.2151 291.154 53.5494 288.354 59.9926C285.495 66.7148 283.38 73.541 281.813 80.427C282.5 80.6973 283.21 80.9215 283.941 81.0947C295.012 83.7161 306.818 73.8694 310.311 59.1011C311.669 53.3601 311.571 47.7206 310.293 42.8171Z" fill="#FFCF9C"/>
<path d="M340.58 126.048C314.333 120.683 296.592 149.718 305.099 175.138C309.675 188.811 320.785 202.846 330.706 204.796C341.413 206.9 353.778 207.834 367.842 207.834C406.688 207.892 451.702 195.749 456.779 153.124C458.612 137.733 447.031 127.657 434.333 128.682C417.819 130.016 423.146 148.139 393.693 147.488C359.17 146.724 366.828 131.414 340.58 126.048Z" fill="#FFCF9C"/>
<ellipse cx="17.6467" cy="23.5416" rx="17.6467" ry="23.5416" transform="matrix(-0.999097 0.0424882 0.0424422 0.999099 368.229 89.5725)" fill="white"/>
<ellipse cx="12.3589" cy="16.4874" rx="12.3589" ry="16.4874" transform="matrix(-0.999097 0.0424882 0.0424422 0.999099 362.381 97.356)" fill="#1D1F20"/>
<ellipse cx="5.88222" cy="7.84719" rx="5.88222" ry="7.84719" transform="matrix(-0.999097 0.0424882 0.0424422 0.999099 364.548 95.2273)" fill="white"/>
<ellipse cx="17.6467" cy="23.5416" rx="17.6467" ry="23.5416" transform="matrix(-0.999097 0.0424882 0.0424423 0.999099 411.823 89.5701)" fill="white"/>
<ellipse cx="12.3589" cy="16.4874" rx="12.3589" ry="16.4874" transform="matrix(-0.999097 0.0424882 0.0424423 0.999099 404.336 97.3538)" fill="#1D1F20"/>
<ellipse cx="5.88222" cy="7.84719" rx="5.88222" ry="7.84719" transform="matrix(-0.999097 0.0424882 0.0424423 0.999099 406.035 95.2249)" fill="white"/>
<path d="M350.041 144.989C345.87 144.59 341.754 145.761 338.537 148.294C335.319 150.828 333.214 154.555 332.622 158.706C330.229 175.41 352.278 190.466 364.922 194.738C386.214 201.909 412.048 194.602 425.361 176.131C426.795 173.743 427.725 170.986 427.657 168.161C427.591 165.338 426.556 162.704 424.696 160.75C422.836 158.795 420.258 157.632 417.443 157.428C413.61 157.147 410.481 159.089 406.916 160.025C395.812 163.141 384.519 162.79 376.799 159.984C370.889 157.96 365.626 154.409 361.02 150.232C358.065 147.349 354.214 145.386 350.041 144.989Z" fill="#1D1F20"/>
<path d="M358.832 170.29C350.511 163.452 340.358 161.128 332.585 163.502C334.411 178.223 353.502 190.88 364.922 194.738C366.711 195.341 368.533 195.838 370.376 196.238C371.925 187.847 367.676 177.558 358.832 170.29Z" fill="#FD4D44"/>
<path d="M378.345 160.498C377.66 161.665 377.276 162.954 377.276 164.311C377.277 169.542 382.929 173.783 389.9 173.782C396.87 173.782 402.521 169.541 402.521 164.31C402.521 163.225 402.275 162.184 401.827 161.213C393.163 162.841 384.735 162.441 378.345 160.498Z" fill="white"/>
<path d="M416.573 141.761C415.903 147.924 411.987 152.961 408.024 156.558C405.355 158.979 400.58 156.122 398.326 153.311C395.597 149.907 391.105 147.768 387.679 147.254C381.898 146.387 379.366 142.735 382.333 138.004C386.955 130.632 418.017 128.46 416.573 141.761Z" fill="#1D1F20"/>
<g clip-path="url(#clip0_245_1704)">
<path d="M574.966 375.494C595.439 375.494 612.036 393.448 612.036 397.663C612.036 401.878 595.439 405.294 574.966 405.294C554.494 405.294 537.897 401.878 537.897 397.663C537.897 393.448 554.494 375.494 574.966 375.494Z" fill="#624226"/>
<path d="M593.957 252.195C596.75 260.108 585.898 263.897 570.438 259.692C567.525 251.336 571.042 234.385 576.455 230.35C580.877 227.055 580.817 236.025 585.934 229.789C594.648 219.172 602.493 220.553 603.436 229.918C604.38 239.283 591.473 245.158 593.957 252.195Z" fill="#307918"/>
<path d="M568.408 234.685C568.607 233.614 569.955 233.67 570.067 234.754C570.067 234.754 572.257 256.056 579.735 286.83C580.709 285.698 581.811 284.437 583.013 283.091C587.682 277.864 593.96 271.259 600.21 266.01C601.902 264.59 604.425 264.81 605.845 266.501C607.266 268.192 607.046 270.716 605.355 272.137C599.537 277.023 593.554 283.3 588.98 288.421C586.704 290.968 584.8 293.204 583.466 294.801C582.933 295.44 582.492 295.977 582.155 296.389C582.298 296.934 582.441 297.482 582.587 298.032C592.376 334.715 583.131 384.453 583.131 384.453C582.175 389.595 577.321 392.972 572.167 392.081C566.902 391.171 564.267 386.672 566.048 381.634C566.048 381.634 582.008 336.499 573.082 297.003C564.157 257.507 568.408 234.685 568.408 234.685Z" fill="#A06F40"/>
<path d="M569.964 314.642C569.385 319.052 575.144 319.114 582.373 314.421C582.965 309.77 579.501 301.921 576.411 300.822C573.886 299.924 574.828 304.381 571.66 302.137C566.266 298.315 562.522 300.322 563.006 305.143C563.49 309.965 570.479 310.721 569.964 314.642Z" fill="#307918"/>
<path d="M605.584 284.297C603.367 288.911 598.166 284.982 594.596 275.493C596.95 270.639 604.925 265.54 608.377 266.631C611.197 267.522 607.588 271.127 611.821 271.177C619.027 271.261 621.139 275.772 617.714 280.042C614.289 284.313 607.555 280.195 605.584 284.297Z" fill="#307918"/>
<path d="M594.008 276.079C594.008 276.079 593.587 260.299 597.085 258.213C600.583 256.126 600.009 261.022 602.293 259.63C604.576 258.239 603.291 249.674 606.145 248.606C608.999 247.538 608.81 250.972 610.674 251.075C612.539 251.177 617.253 244.852 620.584 247.713C623.914 250.574 619.669 252.506 619.49 255.767C619.311 259.028 622.684 255.655 623.797 259.682C624.909 263.708 615.934 262.815 614.741 264.972C613.548 267.128 618.282 265.848 618.092 269.29C617.903 272.731 613.08 271.915 608.46 273.867C603.841 275.819 608.619 275.558 607.34 277.712C606.06 279.866 594.008 276.079 594.008 276.079Z" fill="#439122"/>
<path d="M530.609 204.799C538.319 192.823 553.125 194.648 561.737 212.787C563.849 217.235 566.069 217.746 568.355 217.301C567.065 213.311 565.622 208.95 569.081 208.188C574.795 206.93 573.165 213.588 577.001 211.163C580.837 208.737 580.077 201.911 585.999 204.324C591.921 206.736 587.682 217.127 589.173 219.486C590.664 221.844 594.704 219.29 595.497 223.723C596.289 228.157 584.927 232.244 584.908 236.152C584.889 240.06 590.424 236.022 590.45 241.979C590.472 247.072 576.216 255.163 572.08 257.404C571.399 258.218 570.689 258.974 569.948 259.657C566.56 259.473 563.342 259.181 560.31 258.798C557.212 264.505 552.641 269.591 548.991 270.429C544.039 271.566 547.014 263.953 540.494 267.33C529.392 273.08 522.961 268.943 525.184 260.614C526.476 255.774 531.485 253.701 535.478 251.456C534.183 250.629 533.11 249.764 532.274 248.871C527.939 247.935 524.633 247.167 524.445 243.528C524.152 237.846 531.888 239.988 529.947 236.422C528.005 232.855 513.321 234.272 515.16 227.632C516.999 220.993 522.5 226.581 522.222 221.198C521.944 215.814 515.01 212.597 520.471 207.896C523.056 205.671 526.138 206.845 528.991 208.681C529.27 207.373 529.787 206.076 530.609 204.799Z" fill="#439122"/>
<path d="M569.561 266.874C567.905 271.593 564.173 275.137 560.111 275.105C559.346 275.099 558.936 275.924 557.472 275.534C556.007 275.144 556.07 274.221 555.402 273.85C551.745 271.82 550.407 266.974 551.356 262.023C552.305 257.072 553.844 255.834 553.844 255.834L570.517 260.278C570.517 260.278 571.217 262.155 569.561 266.874Z" fill="#B7551E"/>
<path d="M563.979 248.415C565.068 247.781 569.14 249.149 567.533 250.256C566.317 251.093 565.861 251.668 565.396 252.438C569.868 253.842 573.644 256.29 572.416 260.849C571.994 262.416 570.632 262.384 570.608 262.383L552.708 257.614C552.686 257.602 551.492 256.951 551.914 255.385C553.158 250.769 557.756 250.579 562.395 251.631C562.792 250.375 563.32 248.798 563.979 248.415Z" fill="#563321"/>
</g>
<defs>
<clipPath id="clip0_245_1704">
<rect width="186.072" height="218.054" fill="white" transform="translate(484.111 187.241)"/>
</clipPath>
</defs>
</svg>
