<svg xmlns="http://www.w3.org/2000/svg" xmlns:xlink="http://www.w3.org/1999/xlink" fill="none"
  viewBox="0 0 671 418">
  <ellipse cx="460.741" cy="372.641" fill="#1d1f20" opacity=".2" rx="45" ry="19.6694" />
  <ellipse cx="460.741" cy="370.393" fill="#1d1f20" opacity=".4" rx="36" ry="12.9256" />
  <path fill="#1d1f20"
    d="M481.084 273.17c4.789.602 8.97 1.424 12.282 2.404v10.925c-7.241 2.144-18.638 3.53-31.46 3.53-14.296 0-26.824-1.719-33.79-4.296v-9.392c3.576-1.323 8.618-2.417 14.612-3.171z"
    opacity=".4" />
  <path fill="#d2d2d3"
    d="M495.616 285.848c6.133 4.221 9.886 9.577 10.113 15.421h.012v71.934h-.019c-.68 10.603-20.558 19.107-44.981 19.107s-44.301-8.504-44.981-19.107h-.019v-71.934h.012c.227-5.844 3.98-11.2 10.113-15.421v-16.05h69.75z"
    opacity=".7" />
  <path fill="#f89829"
    d="M461.793 365.672v3.154c0 2.323-7.539 4.206-16.838 4.206-9.3 0-16.839-1.883-16.839-4.206v-3.154z" />
  <ellipse cx="444.955" cy="365.672" fill="#ffb908" rx="16.8387" ry="4.20581" />
  <ellipse cx="444.955" cy="365.146" fill="#f89829" rx="12.629" ry="2.62863" />
  <path fill="#ffda48"
    d="M444.955 363.569c6.108 0 11.204.903 12.375 2.103-1.171 1.199-6.267 2.103-12.375 2.103-6.11 0-11.206-.903-12.377-2.103 1.171-1.2 6.267-2.103 12.377-2.103" />
  <path fill="#f89829"
    d="M460.668 360.415v3.154c0 2.323-7.539 4.206-16.838 4.206-9.3 0-16.839-1.883-16.839-4.206v-3.154z" />
  <ellipse cx="443.83" cy="360.415" fill="#ffb908" rx="16.8387" ry="4.20581" />
  <ellipse cx="443.83" cy="359.889" fill="#f89829" rx="12.629" ry="2.62863" />
  <path fill="#ffda48"
    d="M443.83 358.312c6.108 0 11.204.903 12.375 2.103-1.171 1.199-6.267 2.102-12.375 2.102-6.11 0-11.206-.903-12.377-2.102 1.171-1.2 6.267-2.103 12.377-2.103" />
  <path fill="#f89829"
    d="M460.668 355.396v3.155c0 2.323-7.539 4.206-16.838 4.206-9.3 0-16.839-1.883-16.839-4.206v-3.155z" />
  <ellipse cx="443.83" cy="355.396" fill="#ffb908" rx="16.8387" ry="4.20581" />
  <ellipse cx="443.83" cy="354.871" fill="#f89829" rx="12.629" ry="2.62863" />
  <path fill="#ffda48"
    d="M443.83 353.294c6.108 0 11.204.903 12.375 2.102-1.171 1.2-6.267 2.103-12.375 2.103-6.11 0-11.206-.903-12.377-2.103 1.171-1.199 6.267-2.102 12.377-2.102" />
  <path fill="#f89829"
    d="M461.793 352.231v3.155c0 2.322-7.539 4.205-16.838 4.205-9.3 0-16.839-1.883-16.839-4.205v-3.155z" />
  <ellipse cx="444.955" cy="352.231" fill="#ffb908" rx="16.8387" ry="4.20581" />
  <ellipse cx="444.955" cy="351.706" fill="#f89829" rx="12.629" ry="2.62863" />
  <path fill="#ffda48"
    d="M444.955 350.128c6.108 0 11.204.904 12.375 2.103-1.171 1.2-6.267 2.103-12.375 2.103-6.11 0-11.206-.903-12.377-2.103 1.171-1.2 6.267-2.103 12.377-2.103" />
  <path fill="#f89829"
    d="M461.793 348.025v3.155c0 2.323-7.539 4.206-16.838 4.206-9.3 0-16.839-1.883-16.839-4.206v-3.155z" />
  <ellipse cx="444.955" cy="348.025" fill="#ffb908" rx="16.8387" ry="4.20581" />
  <ellipse cx="444.955" cy="347.5" fill="#f89829" rx="12.629" ry="2.62863" />
  <path fill="#ffda48"
    d="M444.955 345.922c6.108 0 11.204.904 12.375 2.103-1.171 1.2-6.267 2.103-12.375 2.103-6.11 0-11.206-.903-12.377-2.103 1.171-1.199 6.267-2.103 12.377-2.103" />
  <path fill="#f89829"
    d="M462.918 342.696v3.154c0 2.323-7.539 4.206-16.838 4.206-9.3 0-16.839-1.883-16.839-4.206v-3.154z" />
  <ellipse cx="446.08" cy="342.696" fill="#ffb908" rx="16.8387" ry="4.20581" />
  <ellipse cx="446.08" cy="342.17" fill="#f89829" rx="12.629" ry="2.62863" />
  <path fill="#ffda48"
    d="M446.08 340.593c6.108 0 11.204.903 12.375 2.103-1.171 1.199-6.267 2.102-12.375 2.102-6.11 0-11.206-.903-12.377-2.102 1.171-1.2 6.267-2.103 12.377-2.103" />
  <path fill="#f89829"
    d="M461.793 338.49v3.154c0 2.323-7.539 4.206-16.838 4.206-9.3 0-16.839-1.883-16.839-4.206v-3.154z" />
  <ellipse cx="444.955" cy="338.49" fill="#ffb908" rx="16.8387" ry="4.20581" />
  <ellipse cx="444.955" cy="337.964" fill="#f89829" rx="12.629" ry="2.62863" />
  <path fill="#ffda48"
    d="M444.955 336.387c6.108 0 11.204.903 12.375 2.103-1.171 1.199-6.267 2.103-12.375 2.103-6.11 0-11.206-.903-12.377-2.103 1.171-1.2 6.267-2.103 12.377-2.103" />
  <path fill="#f89829"
    d="M462.918 333.16v3.155c0 2.322-7.539 4.205-16.838 4.205-9.3 0-16.839-1.883-16.839-4.205v-3.155z" />
  <ellipse cx="446.08" cy="333.16" fill="#ffb908" rx="16.8387" ry="4.20581" />
  <ellipse cx="446.08" cy="332.634" fill="#f89829" rx="12.629" ry="2.62863" />
  <path fill="#ffda48"
    d="M446.08 331.057c6.108 0 11.204.904 12.375 2.103-1.171 1.2-6.267 2.103-12.375 2.103-6.11 0-11.206-.903-12.377-2.103 1.171-1.2 6.267-2.103 12.377-2.103" />
  <path fill="#f89829"
    d="M460.668 330.078v3.155c0 2.322-7.539 4.205-16.838 4.205-9.3 0-16.839-1.883-16.839-4.205v-3.155z" />
  <ellipse cx="443.83" cy="330.078" fill="#ffb908" rx="16.8387" ry="4.20581" />
  <ellipse cx="443.83" cy="329.553" fill="#f89829" rx="12.629" ry="2.62863" />
  <path fill="#ffda48"
    d="M443.83 327.975c6.108 0 11.204.904 12.375 2.103-1.171 1.2-6.267 2.103-12.375 2.103-6.11 0-11.206-.903-12.377-2.103 1.171-1.2 6.267-2.103 12.377-2.103" />
  <path fill="#f89829"
    d="M461.793 325.873v3.154c0 2.323-7.539 4.206-16.838 4.206-9.3 0-16.839-1.883-16.839-4.206v-3.154z" />
  <ellipse cx="444.955" cy="325.873" fill="#ffb908" rx="16.8387" ry="4.20581" />
  <ellipse cx="444.955" cy="325.347" fill="#f89829" rx="12.629" ry="2.62863" />
  <path fill="#ffda48"
    d="M444.955 323.77c6.108 0 11.204.903 12.375 2.103-1.171 1.199-6.267 2.102-12.375 2.102-6.11 0-11.206-.903-12.377-2.102 1.171-1.2 6.267-2.103 12.377-2.103" />
  <path fill="#f89829"
    d="M460.668 321.667v3.154c0 2.323-7.539 4.206-16.838 4.206-9.3 0-16.839-1.883-16.839-4.206v-3.154z" />
  <ellipse cx="443.83" cy="321.667" fill="#ffb908" rx="16.8387" ry="4.20581" />
  <ellipse cx="443.83" cy="321.141" fill="#f89829" rx="12.629" ry="2.62863" />
  <path fill="#ffda48"
    d="M443.83 319.564c6.108 0 11.204.903 12.375 2.103-1.171 1.199-6.267 2.103-12.375 2.103-6.11 0-11.206-.904-12.377-2.103 1.171-1.2 6.267-2.103 12.377-2.103" />
  <path fill="#f89829"
    d="M460.668 317.461v3.154c0 2.323-7.539 4.206-16.838 4.206-9.3 0-16.839-1.883-16.839-4.206v-3.154z" />
  <ellipse cx="443.83" cy="317.461" fill="#ffb908" rx="16.8387" ry="4.20581" />
  <ellipse cx="443.83" cy="316.935" fill="#f89829" rx="12.629" ry="2.62863" />
  <path fill="#ffda48"
    d="M443.83 315.358c6.108 0 11.204.903 12.375 2.103-1.171 1.199-6.267 2.103-12.375 2.103-6.11 0-11.206-.903-12.377-2.103 1.171-1.2 6.267-2.103 12.377-2.103" />
  <path fill="#f89829"
    d="M461.793 314.379v3.154c0 2.323-7.539 4.206-16.838 4.206-9.3 0-16.839-1.883-16.839-4.206v-3.154z" />
  <ellipse cx="444.955" cy="314.379" fill="#ffb908" rx="16.8387" ry="4.20581" />
  <ellipse cx="444.955" cy="313.853" fill="#f89829" rx="12.629" ry="2.62863" />
  <path fill="#ffda48"
    d="M444.955 312.276c6.108 0 11.204.903 12.375 2.103-1.171 1.2-6.267 2.103-12.375 2.103-6.11 0-11.206-.903-12.377-2.103 1.171-1.2 6.267-2.103 12.377-2.103" />
  <path fill="#f89829"
    d="M461.793 309.633v3.155c0 2.323-7.539 4.206-16.838 4.206-9.3 0-16.839-1.883-16.839-4.206v-3.155z" />
  <ellipse cx="444.955" cy="309.633" fill="#ffb908" rx="16.8387" ry="4.20581" />
  <ellipse cx="444.955" cy="309.108" fill="#f89829" rx="12.629" ry="2.62863" />
  <path fill="#ffda48"
    d="M444.955 307.531c6.108 0 11.204.903 12.375 2.102-1.171 1.2-6.267 2.103-12.375 2.103-6.11 0-11.206-.903-12.377-2.103 1.171-1.199 6.267-2.102 12.377-2.102" />
  <path fill="#f89829"
    d="M461.793 304.888v3.154c0 2.323-7.539 4.206-16.838 4.206-9.3 0-16.839-1.883-16.839-4.206v-3.154z" />
  <ellipse cx="444.955" cy="304.888" fill="#ffb908" rx="16.8387" ry="4.20581" />
  <ellipse cx="444.955" cy="304.362" fill="#f89829" rx="12.629" ry="2.62863" />
  <path fill="#ffda48"
    d="M444.955 302.785c6.108 0 11.204.903 12.375 2.103-1.171 1.199-6.267 2.103-12.375 2.103-6.11 0-11.206-.904-12.377-2.103 1.171-1.2 6.267-2.103 12.377-2.103" />
  <path fill="#f89829"
    d="M461.793 302.39v3.154c0 2.323-7.539 4.206-16.838 4.206-9.3 0-16.839-1.883-16.839-4.206v-3.154z" />
  <ellipse cx="444.955" cy="302.39" fill="#ffb908" rx="16.8387" ry="4.20581" />
  <ellipse cx="444.955" cy="301.864" fill="#f89829" rx="12.629" ry="2.62863" />
  <path fill="#ffda48"
    d="M444.955 300.287c6.108 0 11.204.903 12.375 2.103-1.171 1.2-6.267 2.103-12.375 2.103-6.11 0-11.206-.903-12.377-2.103 1.171-1.2 6.267-2.103 12.377-2.103" />
  <path fill="#f89829"
    d="M461.793 298.768v3.155c0 2.323-7.539 4.206-16.838 4.206-9.3 0-16.839-1.883-16.839-4.206v-3.155z" />
  <ellipse cx="444.955" cy="298.768" fill="#ffb908" rx="16.8387" ry="4.20581" />
  <ellipse cx="444.955" cy="298.243" fill="#f89829" rx="12.629" ry="2.62863" />
  <path fill="#ffda48"
    d="M444.955 296.666c6.108 0 11.204.903 12.375 2.102-1.171 1.2-6.267 2.103-12.375 2.103-6.11 0-11.206-.903-12.377-2.103 1.171-1.199 6.267-2.102 12.377-2.102" />
  <path fill="#f89829"
    d="M493.366 366.339v3.155c0 2.323-7.539 4.206-16.839 4.206s-16.838-1.883-16.838-4.206v-3.155z" />
  <ellipse cx="476.527" cy="366.339" fill="#ffb908" rx="16.8387" ry="4.20581" />
  <ellipse cx="476.527" cy="365.814" fill="#f89829" rx="12.629" ry="2.62863" />
  <path fill="#ffda48"
    d="M476.527 364.236c6.109 0 11.204.904 12.375 2.103-1.171 1.2-6.266 2.103-12.375 2.103s-11.206-.903-12.376-2.103c1.17-1.199 6.267-2.103 12.376-2.103" />
  <path fill="#f89829"
    d="M493.366 361.082v3.154c0 2.323-7.539 4.206-16.839 4.206s-16.838-1.883-16.838-4.206v-3.154z" />
  <ellipse cx="476.527" cy="361.082" fill="#ffb908" rx="16.8387" ry="4.20581" />
  <ellipse cx="476.527" cy="360.556" fill="#f89829" rx="12.629" ry="2.62863" />
  <path fill="#ffda48"
    d="M476.527 358.979c6.109 0 11.204.904 12.375 2.103-1.171 1.2-6.266 2.103-12.375 2.103s-11.206-.903-12.376-2.103c1.17-1.2 6.267-2.103 12.376-2.103" />
  <path fill="#f89829"
    d="M493.366 355.981v3.154c0 2.323-7.539 4.206-16.839 4.206s-16.838-1.883-16.838-4.206v-3.154z" />
  <ellipse cx="476.527" cy="355.981" fill="#ffb908" rx="16.8387" ry="4.20581" />
  <ellipse cx="476.527" cy="355.455" fill="#f89829" rx="12.629" ry="2.62863" />
  <path fill="#ffda48"
    d="M476.527 353.878c6.109 0 11.204.903 12.375 2.103-1.171 1.199-6.266 2.103-12.375 2.103s-11.206-.904-12.376-2.103c1.17-1.2 6.267-2.103 12.376-2.103" />
  <path fill="#f89829"
    d="M493.366 351.775v3.154c0 2.323-7.539 4.206-16.839 4.206s-16.838-1.883-16.838-4.206v-3.154z" />
  <ellipse cx="476.527" cy="351.775" fill="#ffb908" rx="16.8387" ry="4.20581" />
  <ellipse cx="476.527" cy="351.249" fill="#f89829" rx="12.629" ry="2.62863" />
  <path fill="#ffda48"
    d="M476.527 349.672c6.109 0 11.204.903 12.375 2.103-1.171 1.199-6.266 2.103-12.375 2.103s-11.206-.903-12.376-2.103c1.17-1.2 6.267-2.103 12.376-2.103" />
  <path fill="#f89829"
    d="M492.241 347.569v3.154c0 2.323-7.539 4.206-16.839 4.206s-16.838-1.883-16.838-4.206v-3.154z" />
  <ellipse cx="475.402" cy="347.569" fill="#ffb908" rx="16.8387" ry="4.20581" />
  <ellipse cx="475.402" cy="347.043" fill="#f89829" rx="12.629" ry="2.62863" />
  <path fill="#ffda48"
    d="M475.402 345.466c6.109 0 11.204.903 12.375 2.103-1.171 1.199-6.266 2.103-12.375 2.103s-11.206-.903-12.376-2.103c1.17-1.2 6.267-2.103 12.376-2.103" />
  <path fill="#f89829"
    d="M493.366 343.363v3.155c0 2.322-7.539 4.205-16.839 4.205s-16.838-1.883-16.838-4.205v-3.155z" />
  <ellipse cx="476.527" cy="343.363" fill="#ffb908" rx="16.8387" ry="4.20581" />
  <ellipse cx="476.527" cy="342.837" fill="#f89829" rx="12.629" ry="2.62863" />
  <path fill="#ffda48"
    d="M476.527 341.26c6.109 0 11.204.904 12.375 2.103-1.171 1.2-6.266 2.103-12.375 2.103s-11.206-.903-12.376-2.103c1.17-1.2 6.267-2.103 12.376-2.103" />
  <path fill="#f89829"
    d="M494.491 339.157v3.155c0 2.323-7.539 4.206-16.839 4.206s-16.838-1.883-16.838-4.206v-3.155z" />
  <ellipse cx="477.652" cy="339.157" fill="#ffb908" rx="16.8387" ry="4.20581" />
  <ellipse cx="477.652" cy="338.632" fill="#f89829" rx="12.629" ry="2.62863" />
  <path fill="#ffda48"
    d="M477.652 337.054c6.109 0 11.204.904 12.375 2.103-1.171 1.2-6.266 2.103-12.375 2.103s-11.206-.903-12.376-2.103c1.17-1.199 6.267-2.103 12.376-2.103" />
  <path fill="#f89829"
    d="M494.491 334.952v3.154c0 2.323-7.539 4.206-16.839 4.206s-16.838-1.883-16.838-4.206v-3.154z" />
  <ellipse cx="477.652" cy="334.952" fill="#ffb908" rx="16.8387" ry="4.20581" />
  <ellipse cx="477.652" cy="334.426" fill="#f89829" rx="12.629" ry="2.62863" />
  <path fill="#ffda48"
    d="M477.652 332.849c6.109 0 11.204.903 12.375 2.103-1.171 1.199-6.266 2.103-12.375 2.103s-11.206-.904-12.376-2.103c1.17-1.2 6.267-2.103 12.376-2.103" />
  <path fill="#f89829"
    d="M493.366 331.87v3.154c0 2.323-7.539 4.206-16.839 4.206s-16.838-1.883-16.838-4.206v-3.154z" />
  <ellipse cx="476.527" cy="331.87" fill="#ffb908" rx="16.8387" ry="4.20581" />
  <ellipse cx="476.527" cy="331.344" fill="#f89829" rx="12.629" ry="2.62863" />
  <path fill="#ffda48"
    d="M476.527 329.767c6.109 0 11.204.903 12.375 2.103-1.171 1.199-6.266 2.103-12.375 2.103s-11.206-.903-12.376-2.103c1.17-1.2 6.267-2.103 12.376-2.103" />
  <path fill="#f89829"
    d="M493.366 327.664v3.154c0 2.323-7.539 4.206-16.839 4.206s-16.838-1.883-16.838-4.206v-3.154z" />
  <ellipse cx="476.527" cy="327.664" fill="#ffb908" rx="16.8387" ry="4.20581" />
  <ellipse cx="476.527" cy="327.138" fill="#f89829" rx="12.629" ry="2.62863" />
  <path fill="#ffda48"
    d="M476.527 325.561c6.109 0 11.204.904 12.375 2.103-1.171 1.2-6.266 2.103-12.375 2.103s-11.206-.903-12.376-2.103c1.17-1.2 6.267-2.103 12.376-2.103" />
  <path fill="#f89829"
    d="M494.491 322.334v3.154c0 2.323-7.539 4.206-16.839 4.206s-16.838-1.883-16.838-4.206v-3.154z" />
  <ellipse cx="477.652" cy="322.334" fill="#ffb908" rx="16.8387" ry="4.20581" />
  <ellipse cx="477.652" cy="321.808" fill="#f89829" rx="12.629" ry="2.62863" />
  <path fill="#ffda48"
    d="M477.652 320.231c6.109 0 11.204.904 12.375 2.103-1.171 1.2-6.266 2.103-12.375 2.103s-11.206-.903-12.376-2.103c1.17-1.2 6.267-2.103 12.376-2.103" />
  <path fill="#f89829"
    d="M492.241 318.128v3.155c0 2.323-7.539 4.206-16.839 4.206s-16.838-1.883-16.838-4.206v-3.155z" />
  <ellipse cx="475.402" cy="318.128" fill="#ffb908" rx="16.8387" ry="4.20581" />
  <ellipse cx="475.402" cy="317.603" fill="#f89829" rx="12.629" ry="2.62863" />
  <path fill="#ffda48"
    d="M475.402 316.026c6.109 0 11.204.903 12.375 2.102-1.171 1.2-6.266 2.103-12.375 2.103s-11.206-.903-12.376-2.103c1.17-1.199 6.267-2.102 12.376-2.102" />
  <path fill="#f89829"
    d="M494.491 313.922v3.155c0 2.323-7.539 4.206-16.839 4.206s-16.838-1.883-16.838-4.206v-3.155z" />
  <ellipse cx="477.652" cy="313.922" fill="#ffb908" rx="16.8387" ry="4.20581" />
  <ellipse cx="477.652" cy="313.397" fill="#f89829" rx="12.629" ry="2.62863" />
  <path fill="#ffda48"
    d="M477.652 311.82c6.109 0 11.204.903 12.375 2.102-1.171 1.2-6.266 2.103-12.375 2.103s-11.206-.903-12.376-2.103c1.17-1.199 6.267-2.102 12.376-2.102" />
  <path fill="#f89829"
    d="M493.366 309.717v3.154c0 2.323-7.539 4.206-16.839 4.206s-16.838-1.883-16.838-4.206v-3.154z" />
  <ellipse cx="476.527" cy="309.717" fill="#ffb908" rx="16.8387" ry="4.20581" />
  <ellipse cx="476.527" cy="309.191" fill="#f89829" rx="12.629" ry="2.62863" />
  <path fill="#ffda48"
    d="M476.527 307.614c6.109 0 11.204.903 12.375 2.103-1.171 1.199-6.266 2.103-12.375 2.103s-11.206-.904-12.376-2.103c1.17-1.2 6.267-2.103 12.376-2.103" />
  <path fill="#f89829"
    d="M493.366 305.511v3.154c0 2.323-7.539 4.206-16.839 4.206s-16.838-1.883-16.838-4.206v-3.154z" />
  <ellipse cx="476.527" cy="305.511" fill="#ffb908" rx="16.8387" ry="4.20581" />
  <ellipse cx="476.527" cy="304.985" fill="#f89829" rx="12.629" ry="2.62863" />
  <path fill="#ffda48"
    d="M476.527 303.408c6.109 0 11.204.903 12.375 2.103-1.171 1.199-6.266 2.103-12.375 2.103s-11.206-.903-12.376-2.103c1.17-1.2 6.267-2.103 12.376-2.103" />
  <path fill="#f89829"
    d="m488.338 299.675-.408 3.128c-.301 2.303-8.02 3.196-17.242 1.995-9.221-1.202-16.453-4.043-16.153-6.347l.409-3.127c11.14 1.451 22.216 2.895 33.394 4.351" />
  <ellipse cx="16.8384" cy="4.20587" fill="#ffb908" rx="16.8384" ry="4.20587"
    transform="matrix(.991616 .129217 -.12945 .991586 455.488 291.153)" />
  <ellipse cx="12.6288" cy="2.62867" fill="#f89829" rx="12.6288" ry="2.62867"
    transform="matrix(.991616 .129217 -.12945 .991586 459.526 292.74)" />
  <path fill="#ffda48"
    d="M471.913 295.414c6.058.789 10.993 2.344 11.999 3.684-1.317 1.039-6.486 1.276-12.543.487-6.059-.79-10.995-2.344-12-3.685 1.316-1.038 6.486-1.275 12.544-.486" />
  <path fill="#f89829"
    d="M473.877 374.039v3.154c0 2.323-7.539 4.206-16.839 4.206s-16.839-1.883-16.839-4.206v-3.154z" />
  <ellipse cx="457.038" cy="374.039" fill="#ffb908" rx="16.8387" ry="4.20581" />
  <ellipse cx="457.038" cy="373.513" fill="#f89829" rx="12.629" ry="2.62863" />
  <path fill="#ffda48"
    d="M457.038 371.936c6.109 0 11.204.904 12.375 2.103-1.171 1.2-6.266 2.103-12.375 2.103-6.11 0-11.206-.903-12.376-2.103 1.17-1.2 6.266-2.103 12.376-2.103" />
  <path fill="#f89829"
    d="M471.627 368.865v3.154c0 2.323-7.539 4.206-16.839 4.206s-16.839-1.883-16.839-4.206v-3.154z" />
  <ellipse cx="454.788" cy="368.865" fill="#ffb908" rx="16.8387" ry="4.20581" />
  <ellipse cx="454.788" cy="368.339" fill="#f89829" rx="12.629" ry="2.62863" />
  <path fill="#ffda48"
    d="M454.788 366.762c6.109 0 11.204.904 12.375 2.103-1.171 1.2-6.266 2.103-12.375 2.103-6.11 0-11.206-.903-12.376-2.103 1.17-1.2 6.266-2.103 12.376-2.103" />
  <path fill="#f89829"
    d="M473.877 363.763v3.155c0 2.323-7.539 4.206-16.839 4.206s-16.839-1.883-16.839-4.206v-3.155z" />
  <ellipse cx="457.038" cy="363.763" fill="#ffb908" rx="16.8387" ry="4.20581" />
  <ellipse cx="457.038" cy="363.238" fill="#f89829" rx="12.629" ry="2.62863" />
  <path fill="#ffda48"
    d="M457.038 361.661c6.109 0 11.204.903 12.375 2.102-1.171 1.2-6.266 2.103-12.375 2.103-6.11 0-11.206-.903-12.376-2.103 1.17-1.199 6.266-2.102 12.376-2.102" />
  <path fill="#f89829"
    d="M473.877 359.558v3.154c0 2.323-7.539 4.206-16.839 4.206s-16.839-1.883-16.839-4.206v-3.154z" />
  <ellipse cx="457.038" cy="359.558" fill="#ffb908" rx="16.8387" ry="4.20581" />
  <ellipse cx="457.038" cy="359.032" fill="#f89829" rx="12.629" ry="2.62863" />
  <path fill="#ffda48"
    d="M457.038 357.455c6.109 0 11.204.903 12.375 2.103-1.171 1.199-6.266 2.103-12.375 2.103-6.11 0-11.206-.903-12.376-2.103 1.17-1.2 6.266-2.103 12.376-2.103" />
  <path fill="#f89829"
    d="M472.752 355.352v3.154c0 2.323-7.539 4.206-16.839 4.206s-16.839-1.883-16.839-4.206v-3.154z" />
  <ellipse cx="455.913" cy="355.352" fill="#ffb908" rx="16.8387" ry="4.20581" />
  <ellipse cx="455.913" cy="354.826" fill="#f89829" rx="12.629" ry="2.62863" />
  <path fill="#ffda48"
    d="M455.913 353.249c6.109 0 11.204.903 12.375 2.103-1.171 1.199-6.266 2.103-12.375 2.103-6.11 0-11.206-.903-12.376-2.103 1.17-1.2 6.266-2.103 12.376-2.103" />
  <path fill="#f89829"
    d="M476.127 351.146v3.154c0 2.323-7.539 4.206-16.839 4.206s-16.839-1.883-16.839-4.206v-3.154z" />
  <ellipse cx="459.288" cy="351.146" fill="#ffb908" rx="16.8387" ry="4.20581" />
  <ellipse cx="459.288" cy="350.62" fill="#f89829" rx="12.629" ry="2.62863" />
  <path fill="#ffda48"
    d="M459.288 349.043c6.109 0 11.204.903 12.375 2.103-1.171 1.2-6.266 2.103-12.375 2.103-6.11 0-11.206-.903-12.376-2.103 1.17-1.2 6.266-2.103 12.376-2.103" />
  <path fill="#f89829"
    d="M473.877 346.94v3.155c0 2.322-7.539 4.205-16.839 4.205s-16.839-1.883-16.839-4.205v-3.155z" />
  <ellipse cx="457.038" cy="346.94" fill="#ffb908" rx="16.8387" ry="4.20581" />
  <ellipse cx="457.038" cy="346.415" fill="#f89829" rx="12.629" ry="2.62863" />
  <path fill="#ffda48"
    d="M457.038 344.837c6.109 0 11.204.904 12.375 2.103-1.171 1.2-6.266 2.103-12.375 2.103-6.11 0-11.206-.903-12.376-2.103 1.17-1.199 6.266-2.103 12.376-2.103" />
  <path fill="#f89829"
    d="M472.752 342.734v3.155c0 2.323-7.539 4.206-16.839 4.206s-16.839-1.883-16.839-4.206v-3.155z" />
  <ellipse cx="455.913" cy="342.734" fill="#ffb908" rx="16.8387" ry="4.20581" />
  <ellipse cx="455.913" cy="342.209" fill="#f89829" rx="12.629" ry="2.62863" />
  <path fill="#ffda48"
    d="M455.913 340.632c6.109 0 11.204.903 12.375 2.102-1.171 1.2-6.266 2.103-12.375 2.103-6.11 0-11.206-.903-12.376-2.103 1.17-1.199 6.266-2.102 12.376-2.102" />
  <path fill="#f89829"
    d="M473.877 338.529v3.154c0 2.323-7.539 4.206-16.839 4.206s-16.839-1.883-16.839-4.206v-3.154z" />
  <ellipse cx="457.038" cy="338.529" fill="#ffb908" rx="16.8387" ry="4.20581" />
  <ellipse cx="457.038" cy="338.003" fill="#f89829" rx="12.629" ry="2.62863" />
  <path fill="#ffda48"
    d="M457.038 336.426c6.109 0 11.204.903 12.375 2.103-1.171 1.199-6.266 2.103-12.375 2.103-6.11 0-11.206-.903-12.376-2.103 1.17-1.2 6.266-2.103 12.376-2.103" />
  <path fill="#f89829"
    d="M473.877 335.447v3.154c0 2.323-7.539 4.206-16.839 4.206s-16.839-1.883-16.839-4.206v-3.154z" />
  <ellipse cx="457.038" cy="335.447" fill="#ffb908" rx="16.8387" ry="4.20581" />
  <ellipse cx="457.038" cy="334.921" fill="#f89829" rx="12.629" ry="2.62863" />
  <path fill="#ffda48"
    d="M457.038 333.344c6.109 0 11.204.903 12.375 2.103-1.171 1.199-6.266 2.103-12.375 2.103-6.11 0-11.206-.903-12.376-2.103 1.17-1.2 6.266-2.103 12.376-2.103" />
  <path fill="#f89829"
    d="M475.002 330.117v3.155c0 2.322-7.539 4.205-16.839 4.205s-16.839-1.883-16.839-4.205v-3.155z" />
  <ellipse cx="458.163" cy="330.117" fill="#ffb908" rx="16.8387" ry="4.20581" />
  <ellipse cx="458.163" cy="329.592" fill="#f89829" rx="12.629" ry="2.62863" />
  <path fill="#ffda48"
    d="M458.163 328.014c6.109 0 11.204.904 12.375 2.103-1.171 1.2-6.266 2.103-12.375 2.103-6.11 0-11.206-.903-12.376-2.103 1.17-1.2 6.266-2.103 12.376-2.103" />
  <path fill="#f89829"
    d="M473.877 325.911v3.155c0 2.323-7.539 4.206-16.839 4.206s-16.839-1.883-16.839-4.206v-3.155z" />
  <ellipse cx="457.038" cy="325.911" fill="#ffb908" rx="16.8387" ry="4.20581" />
  <ellipse cx="457.038" cy="325.386" fill="#f89829" rx="12.629" ry="2.62863" />
  <path fill="#ffda48"
    d="M457.038 323.808c6.109 0 11.204.904 12.375 2.103-1.171 1.2-6.266 2.103-12.375 2.103-6.11 0-11.206-.903-12.376-2.103 1.17-1.199 6.266-2.103 12.376-2.103" />
  <path fill="#f89829"
    d="M473.877 321.706v3.154c0 2.323-7.539 4.206-16.839 4.206s-16.839-1.883-16.839-4.206v-3.154z" />
  <ellipse cx="457.038" cy="321.706" fill="#ffb908" rx="16.8387" ry="4.20581" />
  <ellipse cx="457.038" cy="321.18" fill="#f89829" rx="12.629" ry="2.62863" />
  <path fill="#ffda48"
    d="M457.038 319.603c6.109 0 11.204.903 12.375 2.103-1.171 1.199-6.266 2.103-12.375 2.103-6.11 0-11.206-.904-12.376-2.103 1.17-1.2 6.266-2.103 12.376-2.103" />
  <path fill="#f89829"
    d="M476.127 318.084v3.154c0 2.323-7.539 4.206-16.839 4.206s-16.839-1.883-16.839-4.206v-3.154z" />
  <ellipse cx="459.288" cy="318.084" fill="#ffb908" rx="16.8387" ry="4.20581" />
  <ellipse cx="459.288" cy="317.558" fill="#f89829" rx="12.629" ry="2.62863" />
  <path fill="#ffda48"
    d="M459.288 315.981c6.109 0 11.204.903 12.375 2.103-1.171 1.2-6.266 2.103-12.375 2.103-6.11 0-11.206-.903-12.376-2.103 1.17-1.2 6.266-2.103 12.376-2.103" />
  <path fill="#f89829"
    d="M473.877 314.462v3.155c0 2.322-7.539 4.205-16.839 4.205s-16.839-1.883-16.839-4.205v-3.155z" />
  <ellipse cx="457.038" cy="314.462" fill="#ffb908" rx="16.8387" ry="4.20581" />
  <ellipse cx="457.038" cy="313.937" fill="#f89829" rx="12.629" ry="2.62863" />
  <path fill="#ffda48"
    d="M457.038 312.359c6.109 0 11.204.904 12.375 2.103-1.171 1.2-6.266 2.103-12.375 2.103-6.11 0-11.206-.903-12.376-2.103 1.17-1.2 6.266-2.103 12.376-2.103" />
  <path fill="#f89829"
    d="M475.002 310.841v3.154c0 2.323-7.539 4.206-16.839 4.206s-16.839-1.883-16.839-4.206v-3.154z" />
  <ellipse cx="458.163" cy="310.841" fill="#ffb908" rx="16.8387" ry="4.20581" />
  <ellipse cx="458.163" cy="310.315" fill="#f89829" rx="12.629" ry="2.62863" />
  <path fill="#ffda48"
    d="M458.163 308.738c6.109 0 11.204.903 12.375 2.103-1.171 1.199-6.266 2.103-12.375 2.103-6.11 0-11.206-.904-12.376-2.103 1.17-1.2 6.266-2.103 12.376-2.103" />
  <path fill="#f89829"
    d="M473.877 307.219v3.154c0 2.323-7.539 4.206-16.839 4.206s-16.839-1.883-16.839-4.206v-3.154z" />
  <ellipse cx="457.038" cy="307.219" fill="#ffb908" rx="16.8387" ry="4.20581" />
  <ellipse cx="457.038" cy="306.693" fill="#f89829" rx="12.629" ry="2.62863" />
  <path fill="#ffda48"
    d="M457.038 305.116c6.109 0 11.204.903 12.375 2.103-1.171 1.199-6.266 2.103-12.375 2.103-6.11 0-11.206-.903-12.376-2.103 1.17-1.2 6.266-2.103 12.376-2.103" />
  <path fill="#f89829"
    d="M470.502 302.473v3.155c0 2.322-7.539 4.205-16.839 4.205s-16.839-1.883-16.839-4.205v-3.155z" />
  <ellipse cx="453.663" cy="302.473" fill="#ffb908" rx="16.8387" ry="4.20581" />
  <ellipse cx="453.663" cy="301.948" fill="#f89829" rx="12.629" ry="2.62863" />
  <path fill="#ffda48"
    d="M453.663 300.37c6.109 0 11.204.904 12.375 2.103-1.171 1.2-6.266 2.103-12.375 2.103-6.11 0-11.206-.903-12.376-2.103 1.17-1.2 6.266-2.103 12.376-2.103" />
  <g opacity=".2">
    <path fill="#fff"
      d="M495.616 285.848c6.133 4.221 9.886 9.577 10.113 15.421h.012v71.934h-.019c-.68 10.603-20.558 19.107-44.981 19.107s-44.301-8.504-44.981-19.107h-.019v-71.934h.012c.227-5.844 3.98-11.2 10.113-15.421v-16.05h69.75z" />
    <path fill="#e0f2ff"
      d="M495.616 285.848c6.133 4.221 9.886 9.577 10.113 15.421h.012v71.934h-.019c-.68 10.603-20.558 19.107-44.981 19.107s-44.301-8.504-44.981-19.107h-.019v-71.934h.012c.227-5.844 3.98-11.2 10.113-15.421v-16.05h69.75z" />
  </g>
  <path fill="#d2d2d3" fill-rule="evenodd"
    d="M495.616 285.848c6.133 4.222 9.886 9.577 10.113 15.421h.012v71.934h-.019c-.68 10.603-20.558 19.107-44.981 19.107s-44.301-8.504-44.981-19.107h-.019v-71.934h.012c.227-5.844 3.98-11.199 10.113-15.421V273.17h69.75zm-67.134-9.307v11.722c-5.673 3.903-9.145 8.854-9.355 14.257h-.011v66.505h.018c.629 9.803 19.016 17.665 41.607 17.665s40.978-7.862 41.607-17.665h.018V302.52h-.011c-.21-5.403-3.682-10.354-9.355-14.257v-11.722z"
    clip-rule="evenodd" opacity=".3" />
  <path fill="#c28d53"
    d="m500.116 273.919-.013.213c-.541 4.454-17.956 8.029-39.362 8.029s-38.821-3.575-39.362-8.029l-.013-.213v-8.243h78.75z" />
  <ellipse cx="460.741" cy="265.677" fill="#daae74" rx="39.375" ry="8.24242" />
  <ellipse cx="460.741" cy="264.74" fill="#c28d53" opacity=".6" rx="28.125" ry="3.93388" />
  <g fill="#fff">
    <rect width="21.375" height="38.2149" x="474.741" y="294.525" opacity=".5" rx="10.6875" />
    <rect width="12.375" height="14.698" x="481.116" y="299.465" opacity=".8" rx="6.1875" />
  </g>
  <path fill="#fbc01c"
    d="M516.01 377.651c0 10.88-8.747 19.7-19.537 19.7-10.791 0-19.538-8.82-19.538-19.7v-1.641h39.075z" />
  <path fill="#fbb019"
    d="M516.01 377.651c0 10.88-8.747 19.7-19.537 19.7-10.791 0-19.538-8.82-19.538-19.7v-1.641h39.075z" />
  <path fill="#fbc01c"
    d="M496.473 392.426c8.991 0 16.281-7.35 16.281-16.417 0-9.066-7.29-16.416-16.281-16.416-8.992 0-16.281 7.35-16.281 16.416 0 9.067 7.289 16.417 16.281 16.417m0 3.283c-10.791 0-19.538-8.82-19.538-19.7 0-10.879 8.747-19.699 19.538-19.699 10.79 0 19.537 8.82 19.537 19.699 0 10.88-8.747 19.7-19.537 19.7" />
  <ellipse cx="496.473" cy="376.009" fill="#fbb019" rx="16.4162" ry="16.281"
    transform="rotate(90 496.473 376.009)" />
  <ellipse cx="496.473" cy="376.215" fill="#ffe53a" rx="16.0058" ry="15.874"
    transform="rotate(90 496.473 376.215)" />
  <path fill="#f79a25"
    d="M489.715 370.117c.194-.968.635-1.826 1.322-2.572.704-.752 1.65-1.326 2.837-1.723q1.014-.339 1.986-.387c.642-.049 1.238-.017 1.787.094.511.106.939.268 1.285.484.362.211.597.483.707.815q.204.624-.093 1.221c-.198.398-.495.664-.891.796-.214.072-.434.099-.659.082s-.415-.064-.568-.142c-.412-.195-.832-.303-1.26-.326-.412-.029-.857.037-1.335.197-.577.193-1.02.488-1.328.886-.313.382-.504.805-.57 1.27-.067.465-.029.914.113 1.346.12.366.345.77.673 1.214.092.123.185.249.281.376l3.444-1.151c.379-.126.736-.098 1.071.085.346.161.581.433.707.815.12.366.087.709-.101 1.03-.17.315-.445.537-.825.663l-2.541.85c.048.067.096.134.143.201.345.493.594.973.747 1.438.213.649.302 1.283.268 1.903-.016.426-.066.836-.149 1.229.334-.052.674-.08 1.021-.082.725-.021 1.436-.027 2.133-.021q1.0635-.0225 1.929-.312c.28-.094.588-.271.923-.53.335-.26.599-.487.792-.68.121-.133.264-.254.429-.365q.264-.1995.486-.273c.396-.132.737-.099 1.022.101q.4515.2925.633.84c.142.432.108.859-.101 1.279-.215.404-.622.835-1.222 1.294-.274.221-.613.417-1.014.588-.396.187-.761.328-1.096.422-.401.115-.912.203-1.533.263-.615.076-1.252.142-1.911.196-.665.038-1.28.087-1.846.147-.565.06-.997.139-1.293.238-.198.066-.41.146-.635.24s-.44.193-.643.298c-.187.099-.355.201-.503.306-.253.177-.44.36-.561.548-.127.171-.33.304-.61.397-.297.1-.596.08-.898-.059-.307-.156-.524-.425-.65-.807-.125-.382-.119-.753.019-1.113s.385-.692.743-.996c.286-.243.624-.467 1.014-.671.235-.134.473-.256.716-.366.027-.237.031-.491.011-.762-.021-.454-.117-.939-.286-1.454-.219-.665-.512-1.277-.879-1.837-.119-.185-.241-.366-.363-.543l-1.416.473c-.379.127-.741.11-1.087-.051-.335-.184-.565-.466-.691-.849-.12-.365-.094-.706.076-1.021.188-.321.471-.545.85-.671l.556-.186c-.06-.083-.119-.164-.177-.246-.339-.477-.588-.956-.747-1.438-.344-1.047-.425-2.044-.242-2.991" />
  <path fill="#fe8234"
    d="M86.2011 256.768c54.4979 1.404 76.1459-37.96 82.6809-62.286 6.536-24.327 3.661-92.859-37.123-96.7824-40.7841-3.9235-40.4188 57.2354-64.5739 44.2064-10.4561-5.641-18.3191-10.618-24.1281-14.711-6.7506-4.756-18.0686-2.012-20.5822 5.855-6.1711 19.314-8.8828 32.043-8.8828 52.27 0 25.894 18.1108 70.044 72.6091 71.448" />
  <path fill="#b7551e"
    d="M156.208 25.0813c-44.284.5105-77.6654 28.9991-92.7006 63.8861-11.4681 26.6106-12.3936 66.6476-11.3386 85.7896.1867.074.2724.277.2367.615-.6713 6.371 7.3635 11.993 18.1311 9.714 10.7678-2.278 18.0461-8.315 27.5189-42.724 9.4725-34.409 20.9595-38.506 31.6075-37.665 9.566.756 13.77 7.159 13.478 9.438l-3.987 33.035-5.05 46.204-2.128 31.874c-.728 94.273 51.373 142.594 188.354 108.362 33.539-8.382 35.964-43.676-6.512-41.827-42.476 1.848-49.835-1.578-64.105-14.555-14.269-12.977-7.641-60.669-3.75-94.824 7.771-68.211 15.22-158.5326-89.755-157.3227" />
  <path fill="#fe8234"
    d="M429.09 265.393c-14.522-13.818-56.572-17.16-56.572 27.046v97.957c-.002.656.036 1.563.676 1.705 28.554 6.302 57.12 12.552 85.697 18.75 1.071.232 2.062-.414 2.283-1.488 5.611-27.357-24.582-38.251-46.047-39.774 17.409-7.215 30.703-22.434 32.811-43.426s-4.326-46.951-18.848-60.77m-129.55 0c14.522-13.818 56.572-17.16 56.572 27.046v97.957c.002.656-.036 1.563-.676 1.705-28.554 6.302-57.12 12.553-85.697 18.75-1.071.232-2.062-.414-2.283-1.488-5.611-27.357 24.583-38.251 46.047-39.774-17.409-7.215-30.703-22.434-32.811-43.426-2.108-20.991 4.326-46.951 18.848-60.77" />
  <path fill="#fe8234"
    d="M466.47 191.752c-3.11-2.109-7.681-1.392-10.003 1.567-10.842 13.242-33.592 16.449-49.469 13.527-15.296-2.815-31.104 6.684-31.104 23.6 0 13.435 10.892 24.327 24.327 24.327 30.342 0 77.579-23.579 90.305-38.961 3.739-4.52 4.534-11.687.956-16.326-5.949-7.714-15.666-4.091-21.898-.377.411-2.788-.755-5.757-3.114-7.357m-207.384-21.527c3.565-1.187 7.771.742 9.203 4.22 6.847 15.686 27.875 24.94 43.95 26.431 15.486 1.437 28.127 14.866 23.541 31.149-3.642 12.932-17.078 20.463-30.01 16.82-29.207-8.225-68.283-43.727-76.362-61.983-2.373-5.364-1.196-12.478 3.506-15.974 7.818-5.812 16.189.31 21.18 5.574.36-2.795 2.287-5.337 4.992-6.237" />
  <path fill="#fe8234"
    d="M350.547 114.308c-25.671 1.521-44.499 26.864-45.413 57.445-1.301 43.523-1.566 65.901-3.448 129.501-1.883 63.599 131.643 69.464 122.872-10.796-4.869-44.55-16.338-82.544-22.623-124.438-4.535-30.232-25.717-53.232-51.388-51.712" />
  <path fill="#ffcf9c"
    d="M405.982 163.518c-3.29-21.774-20.079-37.513-40.701-36.355-20.622 1.157-37.666 21.432-36.312 45.175 2.417 42.383 3.772 66.146 6.188 108.53 1.428 25.033 21.072 44.92 46.412 43.478 27.196-1.548 44.674-26.744 40.679-53.181-6.352-42.039-9.914-65.608-16.266-107.647" />
  <path fill="#fe8234"
    d="M340.355 42.744c-4.097.7108-6.865 3.6384-7.386 7.743-.703 7.7008.582 12.5332 1.704 20.0487 8.858 59.3503 51.831 30.8383 40.319-1.9608-4.854-13.829-18.828-27.8476-34.637-25.8309m-11.826 28.3618c-1.106-6.9988-2.17-19.4085-5.59-24.3232-3.419-4.9145-6.861-4.2156-10.342-4.2414-3.555.2671-6.883 1.2484-9.993 2.7338-6.202 2.94-11.45 8.2743-14.25 14.7175-5.022 11.8089-7.754 23.9382-9.235 36.1503-3.014 24.8492 55.887 15.9562 49.41-25.037" />
  <path fill="#fe8234"
    d="M328.529 71.1059c-6.437.5244-46.288 2.0185-49.073 22.4212-1.867 13.6749-2.069 27.4759-2.069 41.0669 0 55.433 29.019 73.241 90.456 73.241 41.239.061 89.429-13.628 89.409-62.939-.011-27.333-30.216-76.3064-82.26-76.321-18.652-.0053-31.01 1.2719-46.463 2.5309" />
  <path fill="#ffcf9c"
    d="M310.293 42.8171c-2.699.4451-5.261 1.2979-7.689 2.4579-6.202 2.9401-11.45 8.2744-14.25 14.7176-2.859 6.7222-4.974 13.5484-6.541 20.4344.687.2703 1.397.4945 2.128.6677 11.071 2.6214 22.877-7.2253 26.37-21.9936 1.358-5.741 1.26-11.3805-.018-16.284m30.287 83.2309c-26.247-5.365-43.988 23.67-35.481 49.09 4.576 13.673 15.686 27.708 25.607 29.658 10.707 2.104 23.072 3.038 37.136 3.038 38.846.058 83.86-12.085 88.937-54.71 1.833-15.391-9.748-25.467-22.446-24.442-16.514 1.334-11.187 19.457-40.64 18.806-34.523-.764-26.865-16.074-53.113-21.44" />
  <ellipse cx="17.6467" cy="23.5416" fill="#fff" rx="17.6467" ry="23.5416"
    transform="matrix(-.999097 .0424882 .0424422 .999099 368.229 89.5725)" />
  <ellipse cx="12.3589" cy="16.4874" fill="#1d1f20" rx="12.3589" ry="16.4874"
    transform="matrix(-.999097 .0424882 .0424422 .999099 362.381 97.356)" />
  <ellipse cx="5.88222" cy="7.84719" fill="#fff" rx="5.88222" ry="7.84719"
    transform="matrix(-.999097 .0424882 .0424422 .999099 364.548 95.2273)" />
  <ellipse cx="17.6467" cy="23.5416" fill="#fff" rx="17.6467" ry="23.5416"
    transform="matrix(-.999097 .0424882 .0424423 .999099 411.823 89.5701)" />
  <ellipse cx="12.3589" cy="16.4874" fill="#1d1f20" rx="12.3589" ry="16.4874"
    transform="matrix(-.999097 .0424882 .0424423 .999099 404.336 97.3538)" />
  <ellipse cx="5.88222" cy="7.84719" fill="#fff" rx="5.88222" ry="7.84719"
    transform="matrix(-.999097 .0424882 .0424423 .999099 406.035 95.2249)" />
  <path fill="#1d1f20"
    d="M350.041 144.989c-4.171-.399-8.287.772-11.504 3.306-3.218 2.533-5.323 6.26-5.915 10.411-2.393 16.704 19.656 31.76 32.3 36.032 21.292 7.171 47.126-.136 60.439-18.607 1.434-2.388 2.364-5.145 2.296-7.97-.066-2.823-1.101-5.457-2.961-7.411-1.86-1.955-4.438-3.118-7.253-3.322-3.833-.281-6.962 1.662-10.527 2.597-11.104 3.116-22.397 2.765-30.117-.04-5.91-2.025-11.173-5.576-15.779-9.753-2.955-2.882-6.806-4.846-10.979-5.243" />
  <path fill="#fd4d44"
    d="M358.832 170.29c-8.322-6.838-18.474-9.162-26.247-6.788 1.826 14.722 20.916 27.378 32.337 31.236 1.789.603 3.611 1.1 5.454 1.5 1.549-8.391-2.7-18.68-11.544-25.948" />
  <path fill="#fff"
    d="M378.345 160.498c-.685 1.167-1.069 2.456-1.069 3.813.001 5.231 5.652 9.472 12.623 9.472 6.971-.001 12.622-4.242 12.622-9.473-.001-1.085-.246-2.126-.694-3.097-8.664 1.628-17.092 1.228-23.482-.715" />
  <path fill="#1d1f20"
    d="M416.573 141.761c-.67 6.164-4.586 11.2-8.549 14.797-2.669 2.421-7.444-.436-9.698-3.247-2.729-3.404-7.221-5.543-10.647-6.057-5.781-.867-8.313-4.519-5.346-9.25 4.622-7.372 35.684-9.544 34.24 3.757" />
  <g clip-path="url(#a)">
    <path fill="#624226"
      d="M574.966 375.494c20.473 0 37.07 17.954 37.07 22.169s-16.597 7.631-37.07 7.631c-20.472 0-37.069-3.416-37.069-7.631s16.597-22.169 37.069-22.169" />
    <path fill="#307918"
      d="M593.957 252.195c2.793 7.913-8.059 11.702-23.519 7.498-2.913-8.357.604-25.308 6.017-29.343 4.422-3.295 4.362 5.675 9.479-.561 8.714-10.617 16.559-9.236 17.502.129.944 9.365-11.963 15.24-9.479 22.277" />
    <path fill="#a06f40"
      d="M568.408 234.685c.199-1.071 1.547-1.015 1.659.069 0 0 2.19 21.302 9.668 52.076.974-1.132 2.076-2.393 3.278-3.739 4.669-5.227 10.947-11.832 17.197-17.081 1.692-1.42 4.215-1.2 5.635.491 1.421 1.691 1.201 4.215-.49 5.636-5.818 4.886-11.801 11.163-16.375 16.284-2.276 2.547-4.18 4.783-5.514 6.38-.533.639-.974 1.176-1.311 1.588.143.545.286 1.093.432 1.643 9.789 36.683.544 86.421.544 86.421-.956 5.142-5.81 8.519-10.964 7.628-5.265-.91-7.9-5.409-6.119-10.447 0 0 15.96-45.135 7.034-84.631-8.925-39.496-4.674-62.318-4.674-62.318" />
    <path fill="#307918"
      d="M569.964 314.642c-.579 4.41 5.18 4.472 12.409-.221.592-4.651-2.872-12.5-5.962-13.599-2.525-.898-1.583 3.559-4.751 1.314-5.394-3.821-9.138-1.814-8.654 3.007.484 4.822 7.473 5.577 6.958 9.499m35.62-30.345c-2.217 4.614-7.418.685-10.988-8.804 2.354-4.854 10.329-9.953 13.781-8.862 2.82.891-.789 4.496 3.444 4.546 7.206.084 9.318 4.595 5.893 8.865-3.425 4.271-10.159.153-12.13 4.255" />
    <path fill="#439122"
      d="M594.008 276.079s-.421-15.78 3.077-17.866c3.498-2.087 2.924 2.809 5.208 1.417 2.283-1.391.998-9.956 3.852-11.024s2.665 2.366 4.529 2.469c1.865.102 6.579-6.223 9.91-3.362 3.33 2.861-.915 4.793-1.094 8.054s3.194-.112 4.307 3.915c1.112 4.026-7.863 3.133-9.056 5.29-1.193 2.156 3.541.876 3.351 4.318-.189 3.441-5.012 2.624-9.632 4.577-4.619 1.952.159 1.691-1.12 3.845-1.28 2.154-13.332-1.633-13.332-1.633m-63.399-71.28c7.71-11.976 22.516-10.151 31.128 7.988 2.112 4.448 4.332 4.959 6.618 4.514-1.29-3.99-2.733-8.351.726-9.113 5.714-1.258 4.084 5.4 7.92 2.975 3.836-2.426 3.076-9.252 8.998-6.839 5.922 2.412 1.683 12.803 3.174 15.162 1.491 2.358 5.531-.196 6.324 4.237.792 4.434-10.57 8.521-10.589 12.429s5.516-.13 5.542 5.827c.022 5.093-14.234 13.184-18.37 15.425-.681.814-1.391 1.57-2.132 2.253-3.388-.184-6.606-.476-9.638-.859-3.098 5.707-7.669 10.793-11.319 11.631-4.952 1.137-1.977-6.476-8.497-3.099-11.102 5.75-17.533 1.613-15.31-6.716 1.292-4.84 6.301-6.913 10.294-9.158-1.295-.827-2.368-1.692-3.204-2.585-4.335-.936-7.641-1.704-7.829-5.343-.293-5.682 7.443-3.54 5.502-7.106-1.942-3.567-16.626-2.15-14.787-8.79 1.839-6.639 7.34-1.051 7.062-6.434-.278-5.384-7.212-8.601-1.751-13.302 2.585-2.225 5.667-1.051 8.52.785.279-1.308.796-2.605 1.618-3.882" />
    <path fill="#b7551e"
      d="M569.561 266.875c-1.656 4.718-5.388 8.262-9.45 8.23-.765-.006-1.175.82-2.639.429-1.465-.39-1.402-1.313-2.07-1.684-3.657-2.03-4.995-6.876-4.046-11.827s2.488-6.188 2.488-6.188l16.673 4.443s.7 1.878-.956 6.597" />
    <path fill="#563321"
      d="M563.979 248.415c1.089-.634 5.161.734 3.554 1.841-1.216.837-1.672 1.412-2.137 2.182 4.472 1.404 8.248 3.852 7.02 8.411-.422 1.567-1.784 1.535-1.808 1.534l-17.9-4.769c-.022-.012-1.216-.663-.794-2.229 1.244-4.616 5.842-4.806 10.481-3.754.397-1.256.925-2.833 1.584-3.216" />
  </g>
  <defs>
    <clipPath id="a">
      <path fill="#fff" d="M484.111 187.241h186.072v218.054H484.111z" />
    </clipPath>
  </defs>
</svg>
