<svg xmlns="http://www.w3.org/2000/svg" fill="none" viewBox="0 0 768 387">
  <path fill="#A1D66C"
    d="M255.7 280.92c-.8 1.38-2.9 3.38-5.48 1.98-1.63-.9-4.82-4.77-7.5-8.71-2.04-2.9-3.08-3.32-3.3-4.39-.24-1.07.84-2.03.91-3.46 1.19-9.36 5.6-12.81 7.57-13.33 2.2-.57 3.8 1.21 5.45 1.07 1.66-.15-.19-3.25-.64-5.54-.45-2.3 1.2-5.58 4.73-6.3 3.53-.71 6.46 3.94 6.95 5.57.49 1.63 2.97.84 2.62-4.17-.34-5 4.64-13.4 8.85-20.79 4.2-7.4 9.49-11.11 13.86-12.73 4.37-1.62 8.13 3.39 9.63 6.75 1.5 3.37.54 9.4 2 10.28 1.55.95 2.02-.8 3.63-3.43 1.6-2.63 7.79-8.04 14.93-11.93 7.14-3.88 13.1-1.58 15.63 2.25 2.52 3.83.94 5.93 1.94 7.93.99 2 7.67-.91 10.16 3.45 2.5 4.36-.33 9.55-1.98 11.84-1.65 2.28.06 3.22 1.64 5.4 1.57 2.17 3.49 5.22-.94 9.9-5.08 5.36-13.95 7.64-20.74 7.98-6.79.35-10.83 1.97-10.49 4.97.34 3.01 6.47 4.8 9.72 8.58 3.25 3.77 3.14 8.63-1.7 12.5-4.83 3.87-18.81 3.61-29.11.14-10.3-3.48-17.7-10.07-18.8-9.48-1.08.59.74 3.95 1.1 6.56.37 2.61.63 7.94-5 8.78-5.64.84-10.95-10.02-12.15-11.72-1.21-1.7-2.68-1.32-3.5.05Z" />
  <path fill="url(#a)"
    d="M255.7 280.92c-.8 1.38-2.9 3.38-5.48 1.98-1.63-.9-4.82-4.77-7.5-8.71-2.04-2.9-3.08-3.32-3.3-4.39-.24-1.07.84-2.03.91-3.46 1.19-9.36 5.6-12.81 7.57-13.33 2.2-.57 3.8 1.21 5.45 1.07 1.66-.15-.19-3.25-.64-5.54-.45-2.3 1.2-5.58 4.73-6.3 3.53-.71 6.46 3.94 6.95 5.57.49 1.63 2.97.84 2.62-4.17-.34-5 4.64-13.4 8.85-20.79 4.2-7.4 9.49-11.11 13.86-12.73 4.37-1.62 8.13 3.39 9.63 6.75 1.5 3.37.54 9.4 2 10.28 1.55.95 2.02-.8 3.63-3.43 1.6-2.63 7.79-8.04 14.93-11.93 7.14-3.88 13.1-1.58 15.63 2.25 2.52 3.83.94 5.93 1.94 7.93.99 2 7.67-.91 10.16 3.45 2.5 4.36-.33 9.55-1.98 11.84-1.65 2.28.06 3.22 1.64 5.4 1.57 2.17 3.49 5.22-.94 9.9-5.08 5.36-13.95 7.64-20.74 7.98-6.79.35-10.83 1.97-10.49 4.97.34 3.01 6.47 4.8 9.72 8.58 3.25 3.77 3.14 8.63-1.7 12.5-4.83 3.87-18.81 3.61-29.11.14-10.3-3.48-17.7-10.07-18.8-9.48-1.08.59.74 3.95 1.1 6.56.37 2.61.63 7.94-5 8.78-5.64.84-10.95-10.02-12.15-11.72-1.21-1.7-2.68-1.32-3.5.05Z" />
  <path fill="#4AA036"
    d="M143.87 268.5c5.78-.53 11.89-.55 13.98.27 3.3 1.29 3.06 4.7 2.39 6.48-.67 1.78.11 3.41 2.65 3.23 2.53-.2 16.82-3.55 20.4 2.22 3.57 5.78-1.63 9.57-4.35 11.2-2.73 1.65-7.3 2.52-7.02 3.96.3 1.43 12.21 3.22 23.44 9.98 11.23 6.77 22.3 19.33 22.41 26.66.12 7.34-4.36 11.1-10.41 10.99-6.05-.11-12.49-4.35-15.57-2.39-3.08 1.96-1.47 6.87 3.46 13.33 4.93 6.45 9.66 16.26 8.56 24.94-.6 4.77-2.55 6.76-4.72 7.63H145.3c-.08-.31-.15-.63-.21-.96-1.88-9.45-1.6-19.17-.38-22.62 1.22-3.45 2.5-5.2.41-5.9-1.95-.67-6.86 4.76-11.18 5.94-4.31 1.17-11.93 1.52-13.8-3.69-1.86-5.2-2.47-12.84 1.22-22.26 3.69-9.42 7.69-20.3 12.66-23.77 4.96-3.47 3.78-6.33 1.87-5.55-1.9.8-8.54 1.63-10.6-2.13-2.05-3.76-.25-7.74 2.25-9.07 2.5-1.32 6.83-1.98 5.7-3.6-1.15-1.61-4.06-1.72-5.23-4.16-1.04-2.19-1.21-8.83 6.64-16.97 1.29-1.15 1.35-2.86 2.54-3.46 1.18-.6 2.38.03 6.67-.3Z" />
  <path fill="url(#b)" fill-opacity=".5"
    d="M143.87 268.5c5.78-.53 11.89-.55 13.98.27 3.3 1.29 3.06 4.7 2.39 6.48-.67 1.78.11 3.41 2.65 3.23 2.53-.2 16.82-3.55 20.4 2.22 3.57 5.78-1.63 9.57-4.35 11.2-2.73 1.65-7.3 2.52-7.02 3.96.3 1.43 12.21 3.22 23.44 9.98 11.23 6.77 22.3 19.33 22.41 26.66.12 7.34-4.36 11.1-10.41 10.99-6.05-.11-12.49-4.35-15.57-2.39-3.08 1.96-1.47 6.87 3.46 13.33 4.93 6.45 9.66 16.26 8.56 24.94-.6 4.77-2.55 6.76-4.72 7.63H145.3c-.08-.31-.15-.63-.21-.96-1.88-9.45-1.6-19.17-.38-22.62 1.22-3.45 2.5-5.2.41-5.9-1.95-.67-6.86 4.76-11.18 5.94-4.31 1.17-11.93 1.52-13.8-3.69-1.86-5.2-2.47-12.84 1.22-22.26 3.69-9.42 7.69-20.3 12.66-23.77 4.96-3.47 3.78-6.33 1.87-5.55-1.9.8-8.54 1.63-10.6-2.13-2.05-3.76-.25-7.74 2.25-9.07 2.5-1.32 6.83-1.98 5.7-3.6-1.15-1.61-4.06-1.72-5.23-4.16-1.04-2.19-1.21-8.83 6.64-16.97 1.29-1.15 1.35-2.86 2.54-3.46 1.18-.6 2.38.03 6.67-.3Z" />
  <path fill="#4AA036"
    d="M10.34 320.75c11.14-12.4 29.42-23.16 38.54-21.52 9.12 1.64 12.7 8.16 11.07 15.7-1.63 7.54-8.46 14.55-6.78 18.88 1.67 4.34 8.15 3.52 17.37-1.07 9.2-4.6 22.53-8.11 33.01-4.62 9.16 3.06 8.78 8.62 8.24 12.75-.54 4.12-2.14 6.67 1.65 8.54 3.8 1.87 11.19 6.82 10.98 14.6-.2 7.77-11.09 8.8-10.99 12.26.1 3.2 3.16 4.87 3.11 10.73H0v-51.99a92.3 92.3 0 0 1 10.34-14.26Zm192.22-28.66c.87-.39 1.66.28 2.81.06 7.56-.84 10.43 1.97 10.88 3.41.5 1.63-.91 3.22-.77 4.49.15 1.26 2.62-.77 4.46-1.56 1.84-.79 4.52-.12 5.16 2.51.63 2.64-3.06 5.82-4.37 6.51-1.3.7-.63 2.5 3.4 1.27 4.04-1.22 10.88 1.1 16.92 3 6.04 1.9 9.13 5.34 10.51 8.46 1.38 3.12-2.6 7.03-5.28 8.84-2.69 1.82-7.56 2.2-8.25 3.51-.74 1.4.69 1.44 2.83 2.2 2.15.76 6.62 4.59 9.87 9.45a9.54 9.54 0 0 1-1.53 12.7c-3.05 2.7-4.77 1.86-6.36 3.02-1.6 1.16.86 5.85-2.6 8.63-3.48 2.78-7.72 1.56-9.59.7-1.87-.87-2.6.65-4.32 2.3-1.73 1.65-4.15 3.73-8 1.14-4.42-2.96-6.4-9.5-6.8-14.75-.4-5.26-1.78-8.13-4.2-7.3-2.41.84-3.75 6-6.74 9.26s-6.9 4.1-10.1 1.04c-3.2-3.06-3.25-14.08-.62-22.82 2.62-8.74 7.8-15.8 7.31-16.55-.5-.74-3.18 1.34-5.27 2.12-2.1.78-6.4 2-7.17-2.27-.77-4.26 7.89-10.49 9.24-11.76 1.36-1.27 1.02-2.35-.1-2.72-1.13-.38-2.77-1.64-1.69-3.93.69-1.44 3.76-4.68 6.9-7.54 2.3-2.15 2.61-3.04 3.47-3.42Zm262.96-59.23c3.73-2.55 7.07-2.92 9.48-2.49 2.42.44 2.96 4.07 2.85 6.2-.11 2.15-2 4.94-1.54 5.8.5.93 1.13.17 2.5-.7 1.38-.87 5.55-1.84 9.79-1.76 4.24.07 6.46 2.96 6.7 5.63.26 2.67-.98 3.29-1 4.59-.01 1.3 3.78 1.74 3.9 4.67.1 2.94-2.45 4.77-3.77 5.45-1.31.69-.74 1.66-.53 3.22.2 1.55.36 3.65-2.81 4.76-3.64 1.26-8.3-.13-11.53-1.9-3.23-1.78-5.5-2.12-6.06-.5-.56 1.63 1.85 4.3 2.45 7.16.6 2.85-.61 5.29-3.78 5.86-3.17.58-9.6-3.57-13.53-8.3-3.94-4.72-5.8-10.2-6.45-10.22-.64-.01-.6 2.22-1.06 3.66-.46 1.43-1.61 4.21-4.43 3.02-2.81-1.2-2.67-8.24-2.82-9.45-.15-1.22-.93-1.45-1.63-.98-.7.47-2.16.88-3.01-.57-.55-.92-1.1-3.8-1.4-6.58-.24-2.06-.63-2.58-.47-3.19.15-.6.88-.78 1.25-1.5 2.8-4.4 5.67-4.9 6.7-4.59 1.17.35 1.48 1.7 2.28 2.11.8.4.69-1.7 1.03-3a2.81 2.81 0 0 1 3.7-1.84c1.8.65 2.05 3.86 1.89 4.83-.16.97 1.17 1.28 2.21-1.37 1.05-2.64 5.37-5.47 9.1-8.02ZM45.05 100.61c1.77-.62 3.82-.87 5.37-.24 1.68.06 3.45 1.11 4.81 2.4.7.67 1.32 1.43 1.77 2.18.46.75.78 1.53.84 2.26a8.75 8.75 0 0 0 1.28 3.74 4.9 4.9 0 0 0 3.05 2.33c1.42.3 2.47.23 3.77.35 1.28.1 2.63.4 4.4 1.41 1.88 1.08 2.83 3.3 3.27 5.34a14 14 0 0 1 .2 5.07 3.8 3.8 0 0 0 .4 2.5c.41.75 1.07 1.24 2 1.2 1.25-.07 3.33.38 5.3 1.1 1.96.73 3.95 1.78 4.95 3a13.18 13.18 0 0 1 2.43 4.9c.48 1.94.46 4.09-.75 5.85-1.14 1.66-3.09 3.44-4.62 4.93a23.4 23.4 0 0 0-1.9 1.99c-.23.28-.38.5-.46.69a.69.69 0 0 0-.06.2c.03 0 .08.04.17.06.22.07.54.12.96.16.86.09 2 .1 3.3.16 2.54.1 5.67.31 7.85 1.42 4.48 2.28 4.89 7.65 2.46 11.6-1.17 1.91-1.7 2.58-2.24 3.31-.52.71-1.06 1.5-2.28 3.67-1.71 3.05-5.47 4.63-8.97 5.69-1.76.53-3.52.95-4.97 1.34-1.48.4-2.58.76-3.17 1.17-.66.46-.93.77-1 .95a.26.26 0 0 0-.03.08v.01s.01.04.08.1c.16.13.47.27.93.4.45.14.98.25 1.53.37a6.49 6.49 0 0 1 3.65 2.35 5.16 5.16 0 0 1 .57 5.27 8.14 8.14 0 0 1-2.42 3 27 27 0 0 1-3.78 2.55c-1.37.8-2.8 1.53-4.1 2.2-1.3.7-2.46 1.31-3.32 1.87-3.63 2.37-7.73 3.36-10.92 3.92-1.54.27-2.9.85-3.5 1.38a.98.98 0 0 0-.26.3.2.2 0 0 0-.01.04c0 .01.04.06.15.11.14.08.37.17.7.24 1.52.32 3.15.98 4.46 1.73.66.38 1.25.79 1.71 1.2.45.39.83.83 1 1.28.25.71.7 2.43.3 4.32-.4 1.91-1.68 3.94-4.76 5.22-2.89 1.2-7.62 3.85-12.12 6.64-4.5 2.8-8.7 5.7-10.57 7.4-1.62 1.5-3.78 2.16-5.77 2.4-1.07.12-2.12.13-3.03.07l-1.3 6.11a2 2 0 0 1-3.91-.83l1.3-6.11c-.86-.32-1.82-.75-2.75-1.3a10.29 10.29 0 0 1-4.3-4.54c-1-2.3-3.67-6.67-6.64-11.06a135.39 135.39 0 0 0-6.1-8.34v-14.2a16.15 16.15 0 0 1 5.79.08c.33.08.57.1.73.08a.45.45 0 0 0 .2-.05v-.04c0-.07-.03-.2-.12-.37a8 8 0 0 0-2.64-2.69 38.78 38.78 0 0 1-3.96-3V134.5c.12.05.24.1.35.13a5.04 5.04 0 0 0 1.13.25c.01-.03.03-.1.03-.2 0-.2-.05-.47-.14-.82-.18-.7-.52-1.58-.93-2.6L0 130.2v-11.05a13.19 13.19 0 0 1 4.13-3.38c1.4-.7 3.65-.86 5.74-.72 2.09.13 4.18.56 5.3 1.14.82.41 1.62.24 2.3-.28a3.81 3.81 0 0 0 1.38-2.12c.2-.97 1-2.86 2.25-4.56 1.23-1.69 3-3.32 5.16-3.54 2.03-.2 3.38.08 4.6.5 1.23.42 2.16.91 3.58 1.21a4.9 4.9 0 0 0 3.73-.89 8.77 8.77 0 0 0 2.69-2.9c.36-.63.96-1.22 1.68-1.72.73-.5 1.6-.94 2.51-1.27Z" />
  <path fill="#A1D66C"
    d="M48.84 273.75c3.8-.83 6.6.27 8.54 1.81a12 12 0 0 1 3.36 4.32c.23.52.27 1.19.21 1.88-.06.71-.24 1.5-.5 2.32A15.45 15.45 0 0 1 58 288.8c-.5.63-.46.91-.44.98.03.06.17.22.71.28a8.99 8.99 0 0 0 4.33-1.04c3.3-1.62 7.79-3.43 13-3.58 1.25-.04 2.82-.23 4.56-.45 1.73-.22 3.62-.47 5.5-.63 1.9-.16 3.79-.23 5.52-.08 1.74.15 3.34.52 4.63 1.26 2.53 1.45 3.65 3.45 3.9 5.37a6.56 6.56 0 0 1-1.22 4.76c-.4.49-.76.95-1.04 1.38-.3.45-.45.79-.47 1.03-.02.1 0 .17.02.2.03.05.08.12.2.18.28.16.83.28 1.8.28.9 0 2.2-.4 3.85-1.02 1.61-.6 3.53-1.39 5.54-2.06 4.02-1.35 8.66-2.34 12.72-.56 2.95 1.3 4.1 1.7 5.18 2.03 1.1.35 2.14.64 4.81 1.7a14.1 14.1 0 0 1 6.6 5.24c1.46 2.27 2.01 4.94 1.02 7.55a11.9 11.9 0 0 1-2.43 3.64 36.27 36.27 0 0 1-3.32 3.09c-1.1.93-2.1 1.72-2.78 2.38-.34.33-.58.6-.7.8a.67.67 0 0 0-.1.22c.02.06.11.16.35.29.25.13.6.26 1.04.38.89.25 2.07.45 3.41.65 2.64.4 5.87.82 8.28 1.66 2.5.86 4.32 2.88 5.54 5.07a16.87 16.87 0 0 1 2.03 6.37c.16 1.85-.7 4.22-1.82 6.26-1.12 2.05-2.57 3.9-3.75 4.7-.84.56-1.02 1.48-.74 2.53a5.73 5.73 0 0 0 1.88 2.81c.98.78 2.75 2.73 4.1 5.02.7 1.15 1.28 2.4 1.62 3.65.33 1.25.42 2.52.04 3.7a9.52 9.52 0 0 1-2.69 4.37c-.5.47-1.05.91-1.54 1.35-.5.44-1.01.93-1.5 1.54-.9 1.13-1.04 2.7-.7 4.36a12.22 12.22 0 0 0 2.12 4.58c1.05 1.41 1.54 3.75 1.45 5.96H43.92c-1-2.95-.97-6.27-.68-9.32.2-2.11.53-4.16.76-5.86.22-1.75.32-3.1.12-3.98a4.1 4.1 0 0 0-.68-1.7.6.6 0 0 0-.22-.15.36.36 0 0 0-.2.02c-.23.08-.53.31-.9.7-.35.37-.72.84-1.11 1.32a6.56 6.56 0 0 1-4.36 2.27c-1.93.2-4.13-.44-6.12-2.58a11.26 11.26 0 0 1-2.27-4.22 33.3 33.3 0 0 1-1.17-5.4c-.27-1.87-.45-3.77-.63-5.5a50.5 50.5 0 0 0-.6-4.54c-1.03-5.12-.29-9.89.55-13.47a9 9 0 0 0 .03-4.46c-.18-.51-.37-.61-.44-.63-.07 0-.35.03-.85.65a15.45 15.45 0 0 1-4.04 3.47c-.74.44-1.47.79-2.15 1.01-.66.22-1.32.32-1.87.22a12 12 0 0 1-4.97-2.3A9.71 9.71 0 0 1 8.43 325l-.03-1.08c-.13-3.75-.94-9.78-1.99-15.68-1.12-6.29-2.5-12.35-3.6-15.3a11.45 11.45 0 0 1-.07-7.3c.38-1.25.9-2.38 1.42-3.32L0 279.02v-5.1l.17.12 6.48 5.15a16.6 16.6 0 0 1 2.92-2.14 11.45 11.45 0 0 1 7.11-1.58c3.12.4 9.35.38 15.73.04 6.38-.33 12.84-.96 16.43-1.76Z" />
  <path fill="#A1D66C" fill-rule="evenodd"
    d="M469.31 208.22c4.33-2.9 7.88-2.11 9.35-.11 1.46 2 .5 3.35 1.06 4.42.58 1.07 4.62-1.22 6.06 1.09 1.44 2.3-.31 5.57-1.33 7.04-1.02 1.48 0 1.87.92 2.99.91 1.12 2.02 2.72-.69 5.83-3.1 3.57-8.45 5.7-12.53 6.5-4.08.82-6.52 2.13-6.35 3.84.16 1.71 3.82 2.2 5.72 4.1 1.9 1.9 1.78 4.72-1.17 7.4-2.95 2.69-11.33 3.8-17.46 2.72-.51-.1-1-.2-1.5-.32a5.15 5.15 0 0 1-.57 3.83c-.7 1.1-1.9 2.29-2.84 3.26-.47.5-.88.93-1.14 1.29-.12.15-.2.28-.24.38l.42.06c.5.04 1.16.05 1.94.07.76.02 1.61.06 2.43.18.82.13 1.63.33 2.31.7a4.5 4.5 0 0 1 2.29 3.46 6.83 6.83 0 0 1-.93 4.27c-.73 1.25-1.06 1.7-1.39 2.17-.31.46-.65.97-1.4 2.38-1.1 2.05-3.42 3.13-5.52 3.85-1.05.36-2.12.65-2.97.9-.9.28-1.52.51-1.84.76-.34.26-.49.43-.54.52.07.05.2.12.42.18.25.08.55.15.88.22a3.7 3.7 0 0 1 2.54 5.14 5.8 5.8 0 0 1-1.53 2.02 16.9 16.9 0 0 1-2.3 1.7c-.84.53-1.7 1.02-2.48 1.47-.79.46-1.48.86-1.99 1.23a17.14 17.14 0 0 1-6.62 2.66 4.4 4.4 0 0 0-2 .88l-.06.05.28.1a9 9 0 0 1 2.69 1.1c.39.25.75.52 1.03.8.27.25.52.56.62.9.15.47.39 1.61.12 2.87a5.01 5.01 0 0 1-3.01 3.53c-1.72.8-4.56 2.54-7.27 4.39-1.32.9-2.6 1.81-3.7 2.64.88.34 1.84.76 2.76 1.25 1.03.55 2.03 1.18 2.84 1.88.8.7 1.45 1.49 1.68 2.38.43 1.6.21 2.65-.19 3.58-.18.42-.43.87-.61 1.25-.2.4-.37.81-.47 1.3-.17.79.3 1.74 1.32 2.72 1 .94 2.37 1.78 3.64 2.33a9.08 9.08 0 0 1 3.76 3.41c.45.73.8 1.5.95 2.24a3.1 3.1 0 0 1-.18 2 3.1 3.1 0 0 1-.66 1.9 6.9 6.9 0 0 1-1.8 1.64 9.1 9.1 0 0 1-4.83 1.55c-1.39-.03-2.99.17-4.28.62-1.33.46-2.16 1.13-2.33 1.93-.1.48-.12.93-.11 1.37 0 .42.05.93.04 1.4a5.06 5.06 0 0 1-1.31 3.33 5.03 5.03 0 0 1-2.52 1.47c-1.02.3-2.2.46-3.36.53-2.31.14-4.65-.07-5.73-.3a6.45 6.45 0 0 0-3 .05 2 2 0 0 0-.93.5.7.7 0 0 0-.18.64c.1.54.06 1.2-.1 1.88a9.4 9.4 0 0 1-.75 2.18c-.68 1.44-1.75 2.89-3.1 3.54-1.27.6-3.25 1.19-5.41 1.37a12.5 12.5 0 0 1-6.6-1.08c-2-1-4.2-2.63-6.06-3.93a33.57 33.57 0 0 0-2.48-1.63 5 5 0 0 0-.89-.43 1.3 1.3 0 0 0-.4-.1l-.02.03c-.04.11-.07.31-.08.62-.02.62.05 1.46.1 2.45.05.96.08 2.04-.04 3.08a6.15 6.15 0 0 1-.97 2.87c-1.17 1.65-3.31 2.37-5.64 2.44-2.35.07-5-.5-7.35-1.59-2.3-1.06-3.12-1.52-4-2a55.4 55.4 0 0 0-4.46-2.07c-3.59-1.54-5.74-4.5-7.28-7.27-.77-1.38-1.4-2.76-1.97-3.88-.59-1.15-1.1-2-1.62-2.48-.58-.54-1-.8-1.28-.9-.25-.09-.34-.04-.4 0-.09.08-.2.24-.31.56-.1.3-.19.68-.28 1.08-.43 2-3.46 4.27-8.33 2.63-2.48-.83-4.8-2.95-6.85-5.14-1.03-1.11-2-2.26-2.9-3.3a42.86 42.86 0 0 0-2.44-2.68l-.11-.12c-1.17.3-2.32.42-3.13.43-2.05.05-1.77 1.33-2.24 3.04-.48 1.7-1.28 3.93-5.99 3.48-5.39-.53-10.84-4.3-14.24-7.74-3.4-3.44-6.2-4.93-7.72-3.54-1.53 1.39.36 5.35-.22 8.58-.57 3.23-3.34 5.12-7.78 4.12-4.45-1-10.9-8.48-13.81-15.31s-2.72-13.39-3.56-13.73c-.85-.34-1.87 1.98-3.15 3.22-1.3 1.24-4.15 3.52-7.27.88-3.13-2.63.44-9.8.82-11.12.38-1.32-.52-1.95-1.67-1.82-1.16.13-3.26-.17-3.69-2.1a3.84 3.84 0 0 1-.05-.94c-.6-.11-1.4-.24-2.52-.4-3.27-.47-5.78-2.82-7.75-5.13-.97-1.15-1.85-2.34-2.6-3.3a8.94 8.94 0 0 0-1.95-2 3.2 3.2 0 0 0-1.17-.5c-.1 0-.13.02-.13.03-.01 0-.03.01-.05.05-.06.12-.1.34-.1.7 0 .36.04.77.09 1.2.1 1-.26 2.34-1.2 3.4-.94 1.08-2.47 1.86-4.65 1.77a8.66 8.66 0 0 1-3.42-1 24.47 24.47 0 0 1-3.41-2.12c-1.11-.8-2.2-1.66-3.18-2.43a39.98 39.98 0 0 0-2.63-1.96 22.4 22.4 0 0 1-6.67-7.02 6.23 6.23 0 0 0-2.22-2.18c-.34-.16-.44-.1-.44-.1.03-.02-.1.05-.05.6.12 1.21-.04 2.6-.37 3.77a7.65 7.65 0 0 1-.64 1.6 2.9 2.9 0 0 1-.93 1.08 9.38 9.38 0 0 1-3.86 1.32 7.5 7.5 0 0 1-6.12-2.15c-1.9-1.8-5.65-4.59-9.48-7.17-3.82-2.58-7.66-4.91-9.75-5.83a8.25 8.25 0 0 1-3.84-3.66c-.35-.63-.6-1.25-.8-1.84l-6.07.63a2 2 0 1 1-.41-3.98l6.06-.63c.08-.61.2-1.28.41-1.96a8.26 8.26 0 0 1 3.02-4.37c1.85-1.33 5.13-4.4 8.35-7.7 3.21-3.31 6.3-6.8 7.8-8.96a7.5 7.5 0 0 1 5.55-3.36 9.2 9.2 0 0 1 4.06.5c.41.16.8.49 1.13.87a10.47 10.47 0 0 1 2.08 5.05c.06.54.2.59.18.58.01 0 .13.01.4-.2a6.23 6.23 0 0 0 1.73-2.58 22.4 22.4 0 0 1 5.09-8.25c.64-.63 1.37-1.48 2.18-2.45.8-.96 1.68-2.02 2.6-3.03.93-1.01 1.9-1.99 2.9-2.78 1-.78 2.07-1.4 3.15-1.67 2.12-.53 3.77-.08 4.93.78a4.64 4.64 0 0 1 1.86 3.08c.04.43.08.84.15 1.18.08.36.16.57.24.67l.06.05c.01 0 .05.01.14-.01.2-.05.53-.25 1.05-.72.45-.42.92-1.24 1.48-2.36.54-1.09 1.16-2.44 1.88-3.77 1.45-2.66 3.43-5.47 6.54-6.6 2.23-.8 3.04-1.18 3.78-1.54.77-.37 1.47-.74 3.44-1.53a11.09 11.09 0 0 1 6.25-.64c1.97.41 3.68 1.5 4.52 3.34.41.92.57 2 .6 3.08.02 1.07-.07 2.19-.18 3.19-.11 1.01-.23 1.88-.25 2.54-.01.33 0 .56.03.71l.02.05a3.89 3.89 0 0 0 .94-.35c.6-.31 1.32-.8 2.13-1.35 1.6-1.1 3.55-2.49 5.26-3.27a8.3 8.3 0 0 1 5.63-.2c1.78.49 3.38 1.38 4.4 2.2 1.06.86 1.84 2.5 2.3 4.08.46 1.58.65 3.26.42 4.27-.07.32-.02.59.12.81.14.24.38.46.71.64.68.38 1.6.54 2.38.47.93-.1 2.88 0 4.8.47.95.24 1.92.57 2.75 1.04a4.81 4.81 0 0 1 1.98 1.88 6.5 6.5 0 0 1 .84 3.59c-.03.48-.09.99-.13 1.43-.04.47-.06.95 0 1.48.1.93.77 1.75 1.8 2.4a9.1 9.1 0 0 0 3.42 1.22c1.33.19 2.83 1.15 3.93 2.31 1.06 1.13 1.9 2.6 1.76 3.98.42 1.31-.1 2.93-.9 4.24-.85 1.38-2.12 2.62-3.38 3.07a9.12 9.12 0 0 0-3.1 1.9c-.87.85-1.37 1.79-1.27 2.72.06.53.17 1 .3 1.44.13.43.3.92.42 1.38.26 1 .37 2.1-.08 3.69a4.82 4.82 0 0 1-1.55 2.24 11.3 11.3 0 0 1-2.5 1.58 16.2 16.2 0 0 1-4.59 1.45 4.3 4.3 0 0 0-2.23.94c-.28.25-.48.51-.57.77-.08.25-.08.52.06.82.42.94.58 2.63.45 4.26-.12 1.64-.54 3.41-1.41 4.48a12.64 12.64 0 0 1-4.94 3.54 5.17 5.17 0 0 1-.12 3.55l2.2.48a8.7 8.7 0 0 1 5.97-4.42c2.6-.54 7.41-2.14 12.21-3.97 4.8-1.83 9.53-3.87 11.96-5.28 2.6-1.5 5.26-1.51 7.4-1.05 2.14.46 3.8 1.4 4.47 1.84.78.52 1.34 1.63 1.64 2.77.32 1.18.4 2.54.16 3.7-.1.45.02.53.04.54.07.05.3.11.73.01a6.6 6.6 0 0 0 2.85-1.71 22.76 22.76 0 0 1 8.57-5.6c.95-.34 2.07-.85 3.33-1.43 1.24-.58 2.6-1.22 4-1.8 2.77-1.15 5.77-2.11 8.37-1.85 5.1.53 6.93 3.85 6.5 5.84-.1.41-.18.78-.2 1.1-.04.34 0 .54.05.64.03.06.1.15.37.17.3.03.78-.04 1.53-.28.67-.23 1.49-.8 2.5-1.6.98-.78 2.13-1.77 3.4-2.71 2.55-1.89 5.73-3.68 9.64-3.6 2.85.06 3.93.01 4.91-.05 1-.06 1.94-.14 4.47-.16 2.59-.01 5.24.56 7.35 1.6 2.1 1.03 3.74 2.57 4.13 4.55a6.3 6.3 0 0 1-.3 3.03c-.33.98-.8 1.95-1.25 2.81-.46.88-.87 1.61-1.1 2.18-.13.29-.18.49-.19.6v.04c.07.03.2.06.41.08a7 7 0 0 0 1-.02c.77-.08 1.76-.25 2.86-.45a4.73 4.73 0 0 1-.16-2.63 5.94 5.94 0 0 1 1.3-2.56c.23-.26.59-.44.94-.56.37-.13.81-.23 1.27-.29a9.11 9.11 0 0 1 3.2.15l-.03-.08a4.54 4.54 0 0 0-1.45-1.63 17.14 17.14 0 0 1-4.9-5.19c-.32-.54-.78-1.2-1.3-1.94-.52-.73-1.1-1.54-1.64-2.36a17.2 17.2 0 0 1-1.39-2.52 5.68 5.68 0 0 1-.54-2.47 3.7 3.7 0 0 1 4.46-3.61c.32.07.63.14.89.17.22.03.37.03.45.01a2.2 2.2 0 0 0-.27-.7 6.68 6.68 0 0 0-1.36-1.45c-.66-.6-1.51-1.3-2.32-2.07-1.6-1.53-3.26-3.48-3.4-5.8a22 22 0 0 0-.29-2.74c-.1-.57-.21-1.12-.35-2.56a6.84 6.84 0 0 1 .94-4.26 4.5 4.5 0 0 1 3.52-2.2 7 7 0 0 1 2.39.34c.8.23 1.58.55 2.29.85.71.3 1.32.57 1.79.74.17.06.3.1.41.12 0-.1-.02-.25-.06-.44-.1-.44-.28-1-.5-1.66-.44-1.26-1.04-2.84-1.23-4.14a5.18 5.18 0 0 1 1.12-3.78 8.66 8.66 0 0 1 2.62-2.34c.9-.5 2.29-.62 3.53-.55a8.5 8.5 0 0 1 3.23.72c.37.2.75.13 1.13-.18.39-.31.7-.83.8-1.3.13-.65.65-1.9 1.43-3.02.76-1.1 1.87-2.24 3.25-2.42a5.63 5.63 0 0 1 2.83.3c.76.28 1.26.57 2.08.75.67.14 1.38-.09 2.05-.58a5.68 5.68 0 0 0 1.6-1.84 5.22 5.22 0 0 1 2.62-2.05 5.7 5.7 0 0 1 2.22-.44 1.99 1.99 0 0 1 2.2.48 5.68 5.68 0 0 1 2.23 1.78c1.72.05 3.02 1.96 3.25 2.74.28.9 1.78.22 1.63-2.65-.15-2.88 2.94-8.2 5.56-12.87 2.6-4.67 5.82-7.3 8.47-8.64 2.64-1.33 4.83 1.23 5.7 3.05.85 1.82.2 5.4 1.06 5.78.92.41 1.22-.65 2.22-2.32 1-1.67 4.77-5.36 9.1-8.26ZM261.22 295.1v.11c1.06.14 1.82.44 2.25.73 1.36.93 1.11 2.5 1.97 3.3.7.67 1.42-.7 2.24-1.85-1.07-.4-2.14-.86-3.1-1.26-.91-.38-1.72-.7-2.36-.88-.33-.1-.59-.15-.78-.16h-.22Z"
    clip-rule="evenodd" />
  <path fill="#A1D66C"
    d="M758.05 240.04c2.16-1.06 4.08 1.16 4.86 2.71.78 1.55.35 4.56 1.09 4.9.78.36 1-.52 1.77-1.9.35-.62 1.14-1.56 2.23-2.62v34.48c-2.36.18-4.9.06-7.1-.4-5.16-1.06-8.92-3.82-9.45-3.46-.54.35.4 1.88.6 3.13.21 1.26.39 3.84-2.41 4.6-2.8.76-5.55-4.22-6.16-4.98-.62-.75-1.35-.48-1.74.25-.4.72-1.42 1.83-2.71 1.3-.82-.33-2.45-2.03-3.82-3.8-1.05-1.28-1.57-1.42-1.7-1.93-.12-.51.41-1.05.44-1.75.5-4.64 2.67-6.6 3.65-6.98 1.1-.41 1.9.36 2.73.18.82-.17-.13-1.57-.38-2.66-.24-1.1.55-2.8 2.3-3.37 1.75-.57 3.26 1.52 3.52 2.29.26.77 1.48.23 1.27-2.2-.22-2.43 2.19-6.83 4.22-10.7 2.02-3.88 4.63-6.02 6.79-7.09ZM3.96 87.88c1.74-.41 3.8.4 5.47 1.6 1.73 1.24 3.22 3 3.69 4.68.4 1.45 1.19 3.09 2.23 4.33 1.05 1.26 2.3 2.05 3.63 2.02a10.3 10.3 0 0 0 2-.26c.6-.12 1.25-.29 1.88-.4a8.66 8.66 0 0 1 4.82.48c1.1.4 2 1.23 2.76 2.22.74 1 1.35 2.2 1.82 3.4a20.97 20.97 0 0 1 1.44 6.16 5.76 5.76 0 0 0 1.05 3.12c.62.84 1.4 1.21 2.26.9 1.27-.45 3.5-.48 5.66-.15 2.17.34 4.44 1.07 5.74 2.29a16.53 16.53 0 0 1 3.63 5.33c.95 2.24 1.44 4.84.67 7.3-.73 2.36-2.25 5.12-3.44 7.42a31.9 31.9 0 0 0-1.44 3.03c-.15.42-.25.77-.3 1.04a.92.92 0 0 0 .01.44l.2.05c.22.02.55 0 1-.08.87-.15 2.02-.45 3.34-.76 1.31-.3 2.77-.62 4.2-.76 1.42-.15 2.86-.13 4.12.25 2.53.77 4.22 2.78 5.09 5.26.87 2.47.93 5.43.2 8.21-.71 2.7-1.08 3.69-1.44 4.75a46.55 46.55 0 0 0-1.41 5.23c-.96 4.2-4.32 7.24-7.6 9.57-1.65 1.17-3.33 2.2-4.69 3.1-1.4.92-2.43 1.69-2.92 2.38a4.05 4.05 0 0 0-.82 1.57c-.02.14 0 .22.02.26.02.04.06.09.14.14.18.11.51.2 1.01.23.48.03 1.04.02 1.62 0 1.3-.03 3 .57 4.29 1.87 1.3 1.33 2.16 3.37 1.82 6.2a11.2 11.2 0 0 1-1.67 4.34c-.87 1.44-2 2.87-3.18 4.24-1.19 1.38-2.45 2.7-3.59 3.92a49.35 49.35 0 0 0-2.9 3.28c-3.07 3.97-6.96 6.4-10.04 8.01a8.5 8.5 0 0 0-3.21 2.75c-.26.46-.23.67-.2.73.04.05.21.23.95.22 1.62-.04 3.44.31 4.95.87.76.27 1.46.6 2.02.98.56.36 1.04.8 1.3 1.28.43.8 1.28 2.76 1.34 5.15A9.7 9.7 0 0 1 38 233.8c-2.62 2.33-6.74 6.98-10.6 11.75-3.85 4.77-7.39 9.6-8.85 12.26a10.86 10.86 0 0 1-5.22 4.61c-1.09.49-2.18.8-3.14 1l.2 8.08a2 2 0 0 1-4 .1l-.2-8.09c-.97-.14-2.07-.4-3.19-.84-1.01-.4-2.05-.94-3-1.67V88.79a6.05 6.05 0 0 1 3.96-.91Z" />
  <path fill="#BE5B19"
    d="M690.32 323.02c1.85 5.74 6.23 10.13 11.1 10.2.93.02 1.4 1.03 3.17.6 1.76-.43 1.72-1.55 2.53-1.98 4.45-2.34 6.2-8.15 5.2-14.16-1-6-2.81-7.54-2.81-7.54l-20.15 4.88s-.9 2.25.96 8Z" />
  <path fill="#663514"
    d="m710.82 312.32-21.63 5.24s-1.66.02-2.12-1.9c-1.47-6.06 4.18-8.9 10.21-10.36l.73-.18c6.04-1.46 12.36-1.53 13.83 4.53.47 1.92-1.02 2.67-1.02 2.67Z" />
  <path fill="#663514"
    d="M697.56 300.9c1.03.63 1.72 3.78 2.19 5.22.68 1.6-1.87 3.33-3.05 1.3-1.19-2.02-1.29-2.82-3.47-4.4-1.9-1.39 3.04-2.93 4.33-2.13Z" />
  <path fill="#DC894D"
    d="M223.5 161.5c13.17-10.83 42.5-17.5 28.5-9-13.94 8.47-18.96 14.45-19 14.5-.05.07-26.51 39-39 44.5-12.5 5.5-35.09 8.2-47 12-3.76 1.2-6.12 8.36-8.57 17.52 27.53-.43 74.2 6.38 85.65 9.3 13.89 3.52 105.81 9.7 117.78 9.7 11.97 0 79.57-6.85 98.16-9.7 17.24-2.65 89.06 37.47 99.6 40.12 10.53 2.65 69.42 7.94 128.79-7.94 47.5-12.7 86.18-11.76 99.59-9.7v17.64l-41 6.06c-11.5 3.38-31.14 11.7-73 22.5-114.39 29.5-101.5 8.48-142 8.48-15.98 0-31.7-9.48-52.94-15.81 6.2 10 14.35 22.4 22.94 25.83 12.5 5 37.5 5 45 5 .14 0 .3.02.48.05 6.31-1.42 15.42-3.2 24.02-4.05 15-1.5 43 10.5 56.5 11s-8.5 7-20 5-14.5-5-31.5-5a42.01 42.01 0 0 0-14.27 2.5c12.77 9.85 29.46 24.47 35.77 29.5-6.5-1.5-49-26-55.5-26s-40.36 5.47-52.5 2.5c-22.64-5.55-55.68-33.59-73.85-49.38-56.8 9.62-123.62 21.89-144.3 18.86-21.07-3.09-76.13-1.7-98.63-1.7S8.62 352.24 0 354v-87.37c3.42.35 20.45-2.64 41.03-6.68 25.05-25.2 57.26-58.69 71.47-64.45 9.38-3.8 62.5-8.5 73-9.5 8.4-.8 24.83-13.67 38-24.5Z" />
  <path fill="#663514" fill-opacity=".35"
    d="M178.3 216.35c-11.12 2.65-23.5 4.67-31.3 7.15-3.76 1.2-6.12 8.36-8.57 17.52 23.73-.37 61.68 4.64 79.04 7.9L280.5 277c12.17 8 34 25.5 58 29.5 23.83 3.97 55.06-3.89 57.94 2.37l-.29-.25c-56.8 9.62-123.62 21.89-144.3 18.86-21.07-3.09-76.13-1.7-98.63-1.7S8.62 352.24 0 354v-87.37c3.42.35 20.45-2.64 41.03-6.68 12.15-12.22 25.98-26.39 38.63-38.4L105 207.5l73.3 8.85Z" />
  <path fill="#663514" fill-opacity=".5"
    d="M89.5 224c.12.05 54.53 22.5 80.5 30.5 26 8 22.65 17.34 37.5 28 14.84 10.65 44.44 30.46 44.5 30.5 7.08 7.85 78.05-1.44 110.16 1.42-47.14 8.03-93.67 15.5-110.3 13.06-21.08-3.09-76.14-1.7-98.64-1.7S8.62 352.24 0 354v-85.72l3.7-1.84c6.82-.73 20.95-3.28 37.33-6.5 7.4-7.43 15.4-15.58 23.4-23.54L89.5 224Z" />
  <path fill="#F3D097"
    d="M448.5 309s-6-6.5 2.5-2c2.41 1.28 5.2 2.96 8.13 4.79 3.87 6.21 8.48 13.34 13.47 18.66.76.8 1.52 1.56 2.3 2.28a29.09 29.09 0 0 0 5.1 3.8c.66.38 1.33.7 2 .97 12.5 5 37.5 5 45 5 .14 0 .3.02.48.05 6.31-1.42 15.42-3.2 24.02-4.05 15-1.5 43 10.5 56.5 11 1.5.06 2.55.18 3.24.37-3.52.1-16.02-.2-23.67-1.52-11.5-2-14.5-5-31.5-5-5.82 0-20.57 3.47-13.84 8.66 12.77 9.84 29.46 24.46 35.77 29.49-.35-.08-.8-.23-1.34-.43-4.45-4.02-48.17-34.66-53.66-33.57-7.78-.73-37.62-1.61-43.97-4.15-6.27-2.5-11.45-7.83-15.53-12.85-4.23-5.2-7.39-9.5-10.5-14.5l-4.5-7Zm-310.07-67.98c15.48-.24 37.03 1.8 54.95 4.17a610.32 610.32 0 0 1 13.89 1.99 215.32 215.32 0 0 1 16.81 3.13c4.77 1.22 18.77 2.74 35.57 4.22A2415.68 2415.68 0 0 0 331 259.6c5.17.26 9 .41 10.87.41 11.96 0 79.56-6.84 98.15-9.7 7-1.07 23.01 4.91 40.26 12.57a716.61 716.61 0 0 1 16.05 7.4c19.94 9.44 38.34 18.92 43.28 20.16 10.54 2.64 69.43 7.94 128.8-7.94 47.5-12.7 86.18-11.76 99.59-9.7v5.52l-4.5-2.82c-16.41-1.18-29.66-3.65-69.5 7-30.5 8.15-87.08 19.66-111 20-23.69.33-23.5 0-29 0s-19.77-2.6-23-3.5c-3.23-.9-8.75-1.8-13-3.85-8.57-4.13-18.96-9.26-29.62-14.25-10.66-5-20.33-10.96-29.32-14.27-4.5-1.66-8.42-2.9-11.61-3.64-3.4-.8-5.18-.83-5.76-.74-9.54 1.46-27.15 2.31-47.85 4.38-20.52 2.05-40.9 3.82-47.4 3.82-6.35 0-35.11 4.24-61.22 2.26-13.14-1-19.87-1.63-30.72-2.71-9.89-.99-26.27-3.99-30.74-4.99l-.84-.2c-5.2-1.31-20.16-2.79-36.66-4.8-16.44-2-22.29-3.2-35.5-3-.03 0-22.76-2.89-19.26-6.7s5-4.81 6.93-9.29Zm85.07-79.52c13.17-10.83 42.5-17.5 28.5-9-17 4-31.36 17.63-30.5 16.5-2.45 1.85-11.87 13.46-14.26 15.1a95.86 95.86 0 0 1-10.49 6.39c-3.2 1.63-6.88 3.13-10.5 3.47-5.3.5-19.2 4.28-34.88 6.04a568.7 568.7 0 0 0-21.87 2.81c-6.28.96-5.63 1.19-9.5 1.19s-8.5 4-11 6-7.66 8.9-13 13.18a303.22 303.22 0 0 0-17.55 15.56c-12.84 12.13-10.34 15.2-22.95 27.89l-9.6 2.9-2.4.47c-10.31 2.02-21.73 5.63-29.1 6.86-2.75.45-5.25.84-7.4 1.14l-7 3.8v-15.17c3.42.35 20.45-2.64 41.03-6.68 25.05-25.2 57.26-58.69 71.47-64.45 9.38-3.8 62.5-8.5 73-9.5 8.4-.8 24.83-13.67 38-24.5Z" />
  <path fill="#A1D66C"
    d="M553.7 361.57c.52-.17 1.19.36 1.95.33 5.08.2 7.56 2.4 8.13 3.41.63 1.15-.06 2.08.27 2.95.32.87 1.67-.25 2.8-.6 1.13-.34 3.1.39 4.01 2.23.86 1.72-.84 3.38-1.7 3.86l-.23.12c-.65.38.16 1.56 2.65 1.16 2.58-.41 7.72 1.85 12.24 3.75 4.5 1.9 7.26 4.53 8.77 6.78.32.48.48.97.52 1.44h-39.39c.75-3.35 1.85-5.66 1.51-6.05-.47-.55-1.96.57-3.27.88-1.31.32-4.06.7-5.36-2.25-1.3-2.96 3.59-6.27 4.3-7 .7-.71.28-1.48-.56-1.84-.85-.37-2.2-1.4-1.86-2.82.22-.9 1.76-2.78 3.42-4.39 1.2-1.21 1.27-1.78 1.8-1.95Zm33.62-25.45a6.5 6.5 0 0 1 5.3-.25 8.38 8.38 0 0 1 2.83 1.81c.26.27.44.64.55 1.03a7.39 7.39 0 0 1-.2 4.2.8.8 0 0 0-.06.32c.04 0 .13.02.3 0 .55-.08 1.4-.48 2.1-1.08a17.12 17.12 0 0 1 6.6-3.67c.68-.2 1.51-.5 2.44-.85.92-.35 1.93-.74 2.95-1.08 2.03-.68 4.24-1.2 6.02-.79 3.52.83 4.3 3.65 3.72 5.16-.12.31-.22.59-.28.83-.07.26-.07.4-.06.46l.08.03c.15.04.46.03 1-.1a6.71 6.71 0 0 0 1.85-1.02c.77-.52 1.69-1.2 2.68-1.83 1.98-1.25 4.42-2.43 7.12-2.06 1.91.27 2.64.32 3.3.34.7.03 1.34.04 3.06.22a10 10 0 0 1 4.85 1.84c1.31.98 2.24 2.34 2.23 3.93-.01.8-.28 1.6-.63 2.33-.35.74-.81 1.45-1.23 2.08-.43.64-.81 1.17-1.05 1.6-.1.16-.15.28-.18.37l.1.02c.15.03.36.05.63.05.53 0 1.23-.05 2.02-.13 1.55-.15 3.47-.38 5-.28 1.63.11 3.1.92 4.24 1.9 1.16.98 2.04 2.15 2.5 3.07.52 1 .52 2.41.32 3.64a9.4 9.4 0 0 1-.46 1.76c-.2.51-.44.98-.72 1.3a.58.58 0 0 0-.15.47c.02.18.1.39.29.63.35.47.97.92 1.56 1.14.72.27 2.13 1.04 3.38 2.05.63.5 1.23 1.08 1.7 1.7.45.6.8 1.3.83 2.02a4.62 4.62 0 0 1-.63 2.78c-.18.31-.41.64-.59.91-.18.3-.35.6-.49.96-.22.58-.03 1.31.5 2.11a7.71 7.71 0 0 0 2.09 2.03 6.1 6.1 0 0 1 2.13 3c.22.6.34 1.24.34 1.83 0 .44-.07.88-.25 1.27a2.1 2.1 0 0 1-.22.58c-.12.4-.35.79-.64 1.12-.39.44-.9.82-1.44 1.13h-59.94a4.65 4.65 0 0 0-.54-1.3 2.48 2.48 0 0 0-.67-.72.25.25 0 0 0-.08-.03c-.05.04-.15.14-.27.38-.11.22-.22.5-.33.8-.11.3-.3.6-.53.87h-6.52a14.27 14.27 0 0 1-3.15-4c-.54-.94-1.05-1.9-1.5-2.77-.47-.88-.89-1.65-1.28-2.24a17.11 17.11 0 0 1-2.53-7.13 4.68 4.68 0 0 0-.86-2.18.74.74 0 0 0-.23-.2.8.8 0 0 0-.15.27 7.38 7.38 0 0 1-2.64 3.3c-.34.2-.72.37-1.1.4-.56.03-1.9.02-3.32-.52a6.5 6.5 0 0 1-3.8-3.68 68.06 68.06 0 0 0-4.53-8.16 65.07 65.07 0 0 0-5.18-7.38 6.68 6.68 0 0 1-1.62-4.94l-4.72-1.78a2 2 0 1 1 1.41-3.74l4.73 1.78a6.68 6.68 0 0 1 4.47-2.65 65.14 65.14 0 0 0 8.76-2.12 68.1 68.1 0 0 0 8.79-3.14ZM518 321.02a4.55 4.55 0 0 1 2.87.28c.86.4 1.54 1.13 1.75 2.16.1.5.06 1.06-.02 1.57-.09.53-.23 1.05-.37 1.51-.13.46-.25.83-.32 1.13.26-.09.58-.24.97-.43.75-.36 1.72-.86 2.54-1.08a3.5 3.5 0 0 1 2.6.43c.74.42 1.36 1 1.73 1.5.41.57.6 1.47.65 2.26.05.79-.02 1.63-.22 2.14-.06.15-.03.3.15.48.2.19.51.32.77.35a6.6 6.6 0 0 1 2.07.68c.77.4 1.63 1.03 1.87 1.96.2.8.15 1.36.03 1.87-.12.53-.26.81-.3 1.32-.04.35.13.73.46 1.09.34.35.8.64 1.22.8a3.47 3.47 0 0 1 1.73 1.86 2 2 0 0 1-.35 3.64l-.2.26a3.47 3.47 0 0 1-1.85 1.24 3.2 3.2 0 0 0-1.34.56c-.4.29-.63.62-.67.97-.05.51.03.82.05 1.36a3.7 3.7 0 0 1-.38 1.83c-.4.87-1.38 1.33-2.2 1.57-.84.25-1.72.33-2.16.28a1.4 1.4 0 0 0-.83.2c-.21.14-.27.28-.24.44.1.54.01 1.38-.19 2.14a4.5 4.5 0 0 1-1.06 2.1c-.46.42-1.18.88-1.99 1.14a3.5 3.5 0 0 1-2.62-.06c-.77-.37-1.62-1.05-2.3-1.54a9.86 9.86 0 0 0-.86-.6c0 .3.05.69.1 1.17.04.47.08 1.01.07 1.54a4.5 4.5 0 0 1-.27 1.56 3 3 0 0 1-2.13 1.79c-.9.23-1.94.12-2.86-.27-.85-.37-1.16-.54-1.49-.7-.3-.17-.64-.33-1.58-.7-1.44-.55-2.32-1.97-2.94-3.22-.3-.64-.57-1.29-.8-1.79a4.04 4.04 0 0 0-.58-1.03l-.13-.13-.07.56a2.58 2.58 0 0 1-.89 1.64c-.56.48-1.37.74-2.37.48a3.78 3.78 0 0 1-1.46-.83 10.8 10.8 0 0 1-1.27-1.34c-.4-.48-.78-.98-1.12-1.43-.35-.45-.65-.85-.9-1.13a10.91 10.91 0 0 1-2.23-3.98c-.12-.36-.3-.66-.45-.87a5.88 5.88 0 0 1-.92 2.35c-.15.2-.35.4-.6.5-.3.14-1.02.39-1.87.3a3.36 3.36 0 0 1-2.6-1.68c-.62-1-1.92-2.62-3.29-4.16a34.3 34.3 0 0 0-3.51-3.57 4.1 4.1 0 0 1-1.37-2.14l-2.6-.25a2 2 0 0 1 .38-3.98l2.6.25c.36-.7.9-1.42 1.74-1.85.87-.44 2.5-1.58 4.13-2.84a38.44 38.44 0 0 0 4.02-3.47 3.37 3.37 0 0 1 2.86-1.17c.85.08 1.52.46 1.8.65.21.15.37.4.48.62a5.9 5.9 0 0 1 .46 2.48 3 3 0 0 0 .6-.78 11.02 11.02 0 0 1 2.94-3.49c.3-.22.68-.55 1.1-.94.42-.37.9-.8 1.37-1.19.48-.4.99-.78 1.5-1.07a3.8 3.8 0 0 1 1.6-.54 2.54 2.54 0 0 1 2.23.91c.44.56.61 1.25.56 1.79-.02.2-.04.4-.04.55.05-.02.1-.05.16-.1.18-.12.42-.42.76-.9.32-.45.7-1.04 1.13-1.6.84-1.12 1.97-2.35 3.5-2.62a14 14 0 0 0 1.68-.37c.35-.1.68-.22 1.59-.42Zm240.9-54.69c.43-1.36 2.35-2.68 4.55-2.1 2.2.58 2.46 3.89 2.25 4.9-.2.91 1.09 1.2 2.3-.73v58.44l-.2-.36a11.85 11.85 0 0 0-.78-1.24l-.04.1c-.14.31-.29.75-.48 1.28-.18.52-.4 1.1-.67 1.63a4.8 4.8 0 0 1-1.05 1.45c-.89.78-2.03.94-3.11.7a5.76 5.76 0 0 1-2.93-1.76c-.75-.82-1-1.16-1.27-1.51-.26-.33-.56-.69-1.41-1.56-1.27-1.3-1.55-3.2-1.61-4.83-.03-.82 0-1.63-.01-2.27 0-.68-.04-1.14-.14-1.4a1.5 1.5 0 0 0-.18-.38l-.1.11-.34.54a2.8 2.8 0 0 1-1.73 1.2 3.1 3.1 0 0 1-2.72-.74c-.49-.4-.86-.97-1.15-1.6a13.1 13.1 0 0 1-.74-2.03c-.2-.7-.37-1.42-.52-2.07-.16-.65-.3-1.22-.45-1.66a12.36 12.36 0 0 1-.5-5.25 3.4 3.4 0 0 0-.13-1.42 6.17 6.17 0 0 1-2.25 2.1 1.8 1.8 0 0 1-.85.2 4.94 4.94 0 0 1-2.14-.68 4.08 4.08 0 0 1-1.95-3.03c-.2-1.37-.84-3.75-1.58-6.07a41.28 41.28 0 0 0-2.13-5.57 4.68 4.68 0 0 1-.38-3.17l-2.73-1.64a2 2 0 0 1 2.07-3.43l2.72 1.64.18-.13c.72-.55 1.68-1 2.8-1a41.15 41.15 0 0 0 6.86-.9c-.34-1.32-.63-3-.82-4.65-.28-2.13-.74-2.64-.55-3.28.2-.64 1.1-.86 1.56-1.62 3.49-4.72 7.02-5.38 8.28-5.11 1.42.3 1.78 1.69 2.76 2.06.97.38.87-1.8 1.3-3.16ZM82.15 93.3c2.78-.22 4.84 2.73 5.65 4.26.82 1.53 1.67.83 3.13.54 1.46-.3 3.44-.54 4.88 3.17 1.66 4.25.9 9.78-.4 13.64-1.28 3.86-1.33 6.54.29 7.16 1.61.61 3.87-2.3 6.5-3.1 2.65-.8 5.12.57 6.06 4.29.94 3.72-2.22 11.4-6.24 16.19-.48.56-.97 1.1-1.46 1.6.5.42.96.86 1.35 1.28 2.69 2.87 3.74 9.53 5.54 9.85 1.93.33 1.81-1.69 2.58-5.08.77-3.4 5.3-11.59 11.35-18.6 6.05-7 12.98-7.1 16.88-4.16 3.9 2.93 3 5.76 4.7 7.42 1.7 1.67 7.6-4.13 11.65-.64 4.05 3.5 2.9 10.06 1.97 13.12-.93 3.06 1.16 3.32 3.52 4.93 2.36 1.6 5.37 3.97 2.4 10.68-3.42 7.68-11.8 13.73-18.68 16.91-6.88 3.19-10.5 6.55-9.13 9.53 1.37 2.98 8.3 2.3 12.93 4.87 4.63 2.56 6.17 7.65 2.5 13.68-3.69 6.03-18.2 11.58-29.99 12.25-2.02.12-3.98.1-5.85 0 .13.85.1 1.71-.07 2.57a10.59 10.59 0 0 1-3.44 5.77c-1.71 1.51-2.42 2-3.15 2.56-.72.53-1.47 1.14-3.32 2.9-2.58 2.44-6.48 2.9-9.98 2.94-1.75.01-3.47-.08-4.89-.12a10.8 10.8 0 0 0-3.23.23 3.1 3.1 0 0 0-1.24.65c-.06.07-.07.1-.07.12 0 0 0 .04.04.1.09.17.3.38.66.64.35.25.78.5 1.23.78a5.6 5.6 0 0 1 1.14 8.53 8.72 8.72 0 0 1-3.2 2.2 26.83 26.83 0 0 1-4.26 1.39c-1.07.27-2.16.5-3.2.71.86.58 1.58 1.21 2.07 1.77.79.9 1.15 2.32 1.24 3.61.04.66.03 1.32-.05 1.9-.08.57-.22 1.1-.44 1.5-.1.18-.1.34-.04.5.06.17.22.38.47.58.5.41 1.29.72 1.98.82.83.11 2.51.58 4.09 1.32.78.37 1.57.81 2.2 1.33a4.03 4.03 0 0 1 1.4 1.86 4.6 4.6 0 0 1 .02 2.96c-.12.36-.28.75-.4 1.07a5.1 5.1 0 0 0-.28 1.08c-.08.63.3 1.34 1.07 2.04.76.69 1.8 1.26 2.74 1.6a6.7 6.7 0 0 1 3 2.55c.37.57.67 1.18.82 1.78.13.56.15 1.14-.04 1.66.04.56-.13 1.11-.4 1.61a5.8 5.8 0 0 1-1.28 1.5 6.7 6.7 0 0 1-3.57 1.65c-1 .08-2.15.35-3.07.8-.93.47-1.49 1.06-1.58 1.7-.05.39-.04.75-.01 1.1.02.34.08.76.1 1.14a4.6 4.6 0 0 1-.83 2.84c-.4.64-1.09 1.1-1.83 1.42-.76.33-1.63.55-2.49.7a16.5 16.5 0 0 1-4.29.17c-.7-.1-1.53 0-2.13.26-.3.13-.5.28-.6.44a.56.56 0 0 0-.1.5c.1.43.1.98.02 1.55a9.35 9.35 0 0 1-.46 1.84c-.44 1.22-1.17 2.5-2.16 3.15a11.7 11.7 0 0 1-3.98 1.53 8.5 8.5 0 0 1-5.02-.4c-1.52-.67-3.24-1.83-4.66-2.75-.72-.47-1.36-.87-1.89-1.14a3.87 3.87 0 0 0-.8-.3c-.02.09-.03.23-.03.44.02.5.1 1.18.2 1.98.08.78.15 1.66.11 2.52a5.6 5.6 0 0 1-.6 2.43c-.8 1.46-2.38 2.22-4.13 2.46a11.4 11.4 0 0 1-5.57-.76c-1.76-.7-2.38-1.01-3.06-1.33-.65-.31-1.38-.63-3.36-1.35-2.77-1.01-4.51-3.3-5.78-5.43-.63-1.07-1.17-2.15-1.63-3.01-.5-.9-.9-1.54-1.28-1.88a2.84 2.84 0 0 0-.93-.6.28.28 0 0 0-.12-.01l-.03.01c-.05.05-.12.18-.18.45-.07.25-.11.56-.16.9-.23 1.68-2.4 3.82-6.18 2.82-1.9-.5-3.75-2.08-5.36-3.72-.81-.82-1.58-1.69-2.3-2.47a32.17 32.17 0 0 0-1.9-2c-2.4-2.2-3.68-4.7-4.47-6.65a5 5 0 0 0-1.48-2.05c-.21-.15-.32-.16-.36-.16-.02.03-.07.1-.1.33a7.38 7.38 0 0 1-1.97 3.93c-.32.3-.67.54-1.05.65a9.46 9.46 0 0 1-4.4.08v-37.6l.66-.48a7.22 7.22 0 0 1 5.53-1.43c1.62.22 2.91.87 3.43 1.19.34.2.62.53.84.9a7.37 7.37 0 0 1 .84 4.32c-.03.22 0 .32.02.35.03 0 .14.02.38-.07.28-.1.6-.28.92-.53l-.33-1.56c-1.11-5.06-2.49-10.15-3.6-12.94-1.2-2.99-.67-5.36.35-7.07a9.07 9.07 0 0 1 3.13-3.09c.41-.24.97-.33 1.55-.34.6 0 1.27.07 1.97.2 1.4.28 2.95.84 4.2 1.58.27.16.47.24.6.27a.5.5 0 0 0 .15.01h.02l.01-.01.03-.07c.03-.07.05-.2.04-.4a7.41 7.41 0 0 0-1.4-3.32c-1.77-2.5-3.84-5.94-4.67-10.1-.2-1-.55-2.22-.96-3.6-.4-1.36-.86-2.85-1.24-4.34-.38-1.5-.7-3.01-.8-4.42a8.61 8.61 0 0 1 .42-3.85 5.59 5.59 0 0 1 8.05-3.05c.45.27.87.52 1.26.71.4.2.69.29.87.29.08 0 .1-.02.12-.03 0 0 .03-.02.06-.1.08-.21.11-.63-.01-1.41-.12-.7-.61-1.68-1.33-2.95-.7-1.24-1.6-2.7-2.43-4.25-1.63-3.1-3.07-6.75-2.14-10.18.66-2.46.84-3.41.97-4.3.14-.9.24-1.76.75-3.98a10.6 10.6 0 0 1 3.45-5.77 6.8 6.8 0 0 1 6.1-1.48c1.14.3 2.27.92 3.32 1.65 1.06.73 2.07 1.6 2.96 2.39.91.8 1.69 1.52 2.31 2.01a4.15 4.15 0 0 0 .88.55l.01-.02a.6.6 0 0 0 .1-.2c.07-.2.13-.48.17-.84.08-.72.09-1.68.08-2.76-.02-2.14-.1-4.77.25-6.77.39-2.12 1.82-3.76 3.46-4.93a13.4 13.4 0 0 1 4.97-2.16c1.52-.3 3.59.2 5.4.92 1.82.72 3.54 1.73 4.35 2.61.55.6 1.3.67 2.09.37a4.2 4.2 0 0 0 1.99-1.68c.5-.86 1.88-2.45 3.58-3.74 1.68-1.27 3.82-2.35 5.85-1.95.6.12 1.13.27 1.6.44-.02-.33 0-.67.06-1.03.4-2.15 3.42-2.53 4.37-2.36.94.16 1.07-1.42-1.57-2.57-2.65-1.16-5.88-6.17-8.76-10.48-2.9-4.31-3.65-8.24-3.54-11.1.12-2.86 3.5-3.6 5.56-3.54 2.05.07 4.94 2.22 5.7 1.65.83-.61.03-1.34-.97-2.93-1-1.6-2.44-6.48-2.89-11.48-.44-5 2.03-7.7 4.55-8.07 2.51-.37 3.25 1.06 4.49 1.05 1.24-.02 1.2-4.5 3.97-4.72Z" />
  <path fill="#A1D66C" fill-rule="evenodd"
    d="M733.22 210.24a2 2 0 0 1 3.1 1.57 4.47 4.47 0 0 1 .42 3.05 5.5 5.5 0 0 0-.17 1.92c.07.64.28 1 .53 1.12.2.1.4.16.6.21.18.05.45.1.68.17a2.9 2.9 0 0 1 1.57 1.12c.32.41.44.95.47 1.48a6.7 6.7 0 0 1-.12 1.66c-.2 1.1-.57 2.16-.82 2.65-.19.38-.3.86-.28 1.24.01.18.05.3.1.35.02.04.04.06.1.06.31.03.66.16.98.32.33.17.68.4 1 .66a4 4 0 0 1 1.43 2.01c.16.7.22 1.7.06 2.75a5.8 5.8 0 0 1-1.33 3.01c-.72.8-1.77 1.6-2.6 2.27a14.6 14.6 0 0 0-1.22 1.11c.29.09.68.16 1.17.27.47.1 1 .24 1.5.43.5.2 1 .47 1.36.89.73.83.83 2 .6 3.11a7.72 7.72 0 0 1-1.65 3.27c-.77.91-1.09 1.23-1.42 1.57-.3.33-.64.7-1.47 1.74-1.2 1.5-2.93 2.12-4.45 2.46-.75.17-1.5.28-2.09.4-.62.11-1.04.22-1.28.37a2 2 0 0 0-.45.34l.09.07c.12.08.27.16.46.26 1.06.53 1.82 2.4.41 4.52-.72 1.08-2.05 1.9-3.34 2.54-.65.32-1.31.62-1.9.9-.61.26-1.14.5-1.54.74a11.3 11.3 0 0 1-4.86 1.4 2.93 2.93 0 0 0-1.4.46 4.55 4.55 0 0 1 1.91 2.03c.11.26.2.55.17.84a6.4 6.4 0 0 1-.65 2.28 4.87 4.87 0 0 1-2.79 2.48c-1.25.44-3.45 1.5-5.6 2.67a45.42 45.42 0 0 0-5.18 3.15c-.9.7-1.87.93-2.72.94l-1.64 3.25a2 2 0 0 1-2.9.76 2 2 0 0 1-3.13-.98l-.77-2.46a3.36 3.36 0 0 1-1.6-.85c-.61-.6-2-1.62-3.47-2.61-1.48-1-3-1.92-3.9-2.32a3.32 3.32 0 0 1-1.85-2.08 4.14 4.14 0 0 1-.15-1.73c.03-.24.15-.46.28-.64a4.28 4.28 0 0 1 1.59-1.2 3.19 3.19 0 0 0-.7-.23c-1-.17-2.32-.52-3.58-1.4-.27-.2-.63-.4-1.06-.64-.42-.24-.88-.5-1.34-.8-.88-.55-1.83-1.25-2.25-2.12-.81-1.73.17-3.03 1.07-3.32l.3-.1a2.12 2.12 0 0 0-.1-.09c-.14-.1-.42-.21-.89-.35-.43-.12-1-.27-1.55-.45-1.12-.36-2.4-.95-3.13-2.16a14.1 14.1 0 0 0-.86-1.32c-.2-.27-.4-.52-.86-1.23a4.86 4.86 0 0 1-.79-2.52c0-.85.28-1.7 1-2.24.35-.26.79-.41 1.2-.5.42-.1.86-.15 1.24-.18l.76-.07c-.15-.18-.36-.4-.6-.64-.53-.53-1.22-1.2-1.67-1.83a3.71 3.71 0 0 1-.58-2.34c.04-.76.25-1.48.48-1.97.28-.57.9-1.03 1.46-1.33.3-.16.6-.29.89-.38a3 3 0 0 1 .82-.14l.06-.01a.43.43 0 0 0 .09-.19c.06-.22.06-.53-.02-.78a6.96 6.96 0 0 1-.23-1.98c.01-.4.06-.83.18-1.21.11-.39.3-.78.63-1.05.53-.45.98-.6 1.42-.66.18-.03.4-.05.55-.06.16-.02.32-.05.48-.1.2-.06.4-.27.54-.67s.19-.88.16-1.3c-.04-.53.15-1.13.45-1.64a2 2 0 0 1 3.73-1.18c.52.25 1.03.64 1.3 1.1.22.35.54.72.88.96.35.25.63.3.82.25.17-.06.31-.12.46-.2l.48-.27c.4-.2.85-.34 1.54-.27.43.04.8.25 1.12.5a6.9 6.9 0 0 1 1.79 2.65c.08.24.25.5.43.64.09.07.15.1.18.1l.06-.02c.2-.15.48-.27.75-.35.29-.1.62-.16.95-.2a3.4 3.4 0 0 1 1.95.25c.48.26 1.06.74 1.53 1.34.47.6.87 1.38.86 2.25 0 .77-.19 1.72-.31 2.45l-.13.87.66-.38c.33-.19.72-.4 1.12-.57.4-.16.84-.28 1.28-.27.44.02.84.15 1.2.38a2.16 2.16 0 0 1 1.54.1l.48.22.11.03c.02-.1.04-.27.01-.57a4.24 4.24 0 0 0-.46-1.26c-.26-.53-.61-1.2-.92-1.91-.62-1.42-1.16-3.18-.65-5.04.34-1.29.44-1.78.52-2.22.08-.47.15-.91.43-2.07.29-1.23.88-2.4 1.65-3.27.76-.85 1.76-1.46 2.86-1.37a3.5 3.5 0 0 1 1.52.57c.45.29.88.64 1.24.96.38.33.67.6.9.78h.01l.06-.28c.05-.35.08-.82.1-1.37.05-1.05.08-2.38.3-3.43a5.8 5.8 0 0 1 1.64-2.85 7.7 7.7 0 0 1 2.24-1.59 4 4 0 0 1 2.47-.04c.4.1.79.25 1.12.41.32.17.63.37.83.6.05.05.08.06.12.06a.7.7 0 0 0 .34-.14c.28-.18.56-.5.75-.82l.2-.34c.29-.52.86-1.32 1.53-2.03.38-.4.81-.8 1.26-1.09.45-.28.95-.5 1.48-.5.87.03 1.4.28 1.83.61l.54.45c.16.14.32.26.52.36.25.12.66.08 1.22-.24a5.5 5.5 0 0 0 1.44-1.29 4.46 4.46 0 0 1 2.7-1.46Zm-34.44 66.67a3.37 3.37 0 0 1-.8 1.56l.17.56.88-1.74a4.5 4.5 0 0 1-.25-.38Z"
    clip-rule="evenodd" />
  <path fill="#A1D66C"
    d="M219.43 91.69c.27 0 .53.02.78.09a2 2 0 0 1 1.37.5c.23.13.44.28.64.45a5.86 5.86 0 0 1 1.89 4.73 6.8 6.8 0 0 0 .14 2.69c.23.85.63 1.42 1.15 1.62.34.12.65.19.97.24.3.04.67.08 1 .15a4.3 4.3 0 0 1 2.35 1.27c.49.47.76 1.14.91 1.84.16.7.19 1.49.16 2.24a13.16 13.16 0 0 1-.64 3.63 3.4 3.4 0 0 0-.15 1.78c.05.26.15.45.25.57.1.1.21.16.4.16.4 0 .88.13 1.36.3.5.19 1.02.45 1.53.76a5.82 5.82 0 0 1 2.37 2.47c.36.89.64 2.24.62 3.65a7 7 0 0 1-1.28 4.15c-.87 1.14-2.2 2.35-3.26 3.34-.54.5-1 .96-1.33 1.34a2.4 2.4 0 0 0-.34.47l-.03.04.33.09c.44.09 1.04.15 1.76.24.7.09 1.48.2 2.22.41.73.2 1.46.51 2.03 1 1.13.97 1.52 2.47 1.4 4a9.34 9.34 0 0 1-1.69 4.54c-.93 1.32-1.32 1.78-1.72 2.27-.38.49-.8 1.02-1.78 2.53-1.4 2.13-3.73 3.12-5.83 3.74-1.04.31-2.09.54-2.92.76a6.2 6.2 0 0 0-1.84.67 2.28 2.28 0 0 0-.69.67c.03.04.12.12.33.22.2.1.47.2.75.31 1.44.54 2.95 2.82 1.36 5.82-.8 1.52-2.53 2.74-4.25 3.75-.87.51-1.76.98-2.57 1.41-.81.44-1.53.83-2.08 1.19a15.98 15.98 0 0 1-6.64 2.38l-.31.06a4.1 4.1 0 0 0-1.7.74.81.81 0 0 0-.17.18c.03.03.1.07.23.12a6.88 6.88 0 0 1 3.08 2.45c.2.33.36.68.39 1.04.03.53.02 1.78-.47 3.1a6.08 6.08 0 0 1-3.44 3.59c-1.74.73-4.7 2.42-7.58 4.23a60.31 60.31 0 0 0-6.85 4.84 6.23 6.23 0 0 1-4.49 1.53l-1.64 4.41a2 2 0 0 1-3.75-1.4l1.65-4.4a6.22 6.22 0 0 1-2.38-4.1 61.06 61.06 0 0 0-2-8.15 63.36 63.36 0 0 0-2.95-8.17 6.08 6.08 0 0 1-.25-4.95 7.82 7.82 0 0 1 1.68-2.66c.26-.25.61-.42.97-.53a6.89 6.89 0 0 1 3.94.17c.13.05.21.06.25.06v-.24a4.12 4.12 0 0 0-.8-1.68l-.2-.25a15.98 15.98 0 0 1-3.45-6.15 27.3 27.3 0 0 0-.8-2.26c-.32-.86-.69-1.8-1.01-2.75-.64-1.89-1.14-3.95-.75-5.62.77-3.3 3.4-4.04 4.84-3.5.29.1.54.2.77.26a1 1 0 0 0 .4.05l.01-.05c.03-.14.03-.41-.1-.9-.1-.42-.43-.99-.94-1.73-.5-.7-1.13-1.56-1.71-2.48-1.18-1.85-2.29-4.12-1.95-6.65.24-1.78.28-2.46.3-3.08.03-.64.04-1.24.2-2.84.18-1.67.79-3.3 1.7-4.54.92-1.23 2.2-2.1 3.69-2.1.74 0 1.5.26 2.18.58.7.33 1.36.76 1.95 1.15.6.4 1.09.74 1.48.97l.3.14.02-.04c.03-.14.05-.34.05-.58 0-.5-.06-1.15-.13-1.88-.14-1.45-.36-3.23-.27-4.66a7 7 0 0 1 1.76-3.98c.9-1.08 2-1.9 2.86-2.35a5.82 5.82 0 0 1 3.4-.3c.6.1 1.16.24 1.65.42s.93.41 1.24.67a.5.5 0 0 0 .4.14c.15-.02.35-.1.56-.27.44-.33.85-.9 1.05-1.44.25-.68.97-2 1.9-3.16a8.86 8.86 0 0 1 1.59-1.59 3.6 3.6 0 0 1 1.9-.8c1.2-.06 1.96.22 2.6.6.3.16.6.38.86.53.27.18.55.33.88.46.53.2 1.2.03 1.94-.47a7.18 7.18 0 0 0 1.87-1.94 5.76 5.76 0 0 1 2.8-2c.57-.2 1.16-.33 1.72-.33ZM1.02.51c1.14.1 2.47.84 3.55 1.69A8.76 8.76 0 0 1 7 4.88c.2.43.6.6 1.18.54a3.11 3.11 0 0 0 1.67-.75 12.2 12.2 0 0 1 3.32-1.93 8.78 8.78 0 0 1 2.3-.6c.78-.07 1.57 0 2.25.36a5.8 5.8 0 0 1 2.35 2.03c.23.33.44.7.64 1.02.21.33.44.65.73.98.51.56 1.33.79 2.29.74a6.88 6.88 0 0 0 2.74-.75c.97-.5 2.43-.56 3.73-.28a5.4 5.4 0 0 1 2.79 1.4 2 2 0 0 1 .76.84 5.39 5.39 0 0 1 1.15 2.91 5.94 5.94 0 0 1-.63 3.7 6.88 6.88 0 0 0-1 2.65c-.13.95.02 1.78.53 2.34.3.33.6.58.91.82.3.23.65.48.96.73a5.8 5.8 0 0 1 1.8 2.53c.3.72.3 1.5.15 2.27a8.78 8.78 0 0 1-.8 2.24 12.2 12.2 0 0 1-2.23 3.13c-.43.4-.8 1.02-.91 1.6-.11.56.03.98.44 1.22.76.44 1.7 1.5 2.44 2.66.74 1.15 1.37 2.55 1.35 3.7a10 10 0 0 1-.93 3.86 6.3 6.3 0 0 1-3.12 3.27c-1.39.58-3.27.95-4.78 1.28-.77.17-1.44.33-1.93.5-.25.1-.43.17-.55.25-.02 0-.03.02-.04.03.07.1.2.22.38.38.42.35 1.02.76 1.71 1.27.68.5 1.42 1.06 2.08 1.69a7.18 7.18 0 0 1 1.6 2.09 5 5 0 0 1-.28 4.62 8.35 8.35 0 0 1-3.7 3.38c-1.53.73-2.12.94-2.75 1.18-.6.23-1.25.5-2.9 1.37-2.37 1.23-5.18.8-7.57.17-1.2-.32-2.37-.7-3.32-1a7.4 7.4 0 0 0-2.2-.44c-.56.04-.83.13-.94.2l-.02.02c.01.09.1.25.28.49.17.23.4.48.65.75.58.64 1.02 1.71.96 2.88a4.4 4.4 0 0 1-2.13 3.44c-.76.5-1.71.78-2.73.93a19.1 19.1 0 0 1-3.24.17A62.3 62.3 0 0 1 0 73.64V.51C.37.49.71.49 1.02.5Z" />
  <path fill="#BE5B19"
    d="M416.2 342.19c-2.75 6.69-2.12 14.08 2.28 17.91.83.72.48 2 2.43 2.98 1.95.97 2.77-.09 3.84.15 5.88 1.29 11.97-2.69 15.69-8.95 3.72-6.26 3.25-9.07 3.25-9.07l-22.21-11.07s-2.55 1.36-5.29 8.05Z" />
  <path fill="#663514"
    d="m443.2 348.22-23.83-11.89s-1.54-1.27-.48-3.38c3.33-6.68 10.7-4.92 17.35-1.6l.8.4c6.65 3.32 12.49 8.13 9.16 14.81-1.06 2.12-3 1.66-3 1.66Z" />
  <path fill="#663514"
    d="M439.88 327.52c.46 1.38-1.34 4.8-2.02 6.48-.61 1.99-4.29 1.61-3.8-1.16.48-2.77 1-3.58.23-6.7-.67-2.74 5.03-.34 5.6 1.38Z" />
  <path fill="#BE5B19"
    d="M130.35 313.64c5.14 9.7 5.3 20.98-.79 27.44-1.14 1.21-.42 3.1-3.23 4.87-2.8 1.76-4.2.28-5.79.8-8.7 2.82-18.5-2.27-25.06-11.2-6.57-8.91-6.28-13.23-6.28-13.23l31.94-20.07s4.07 1.68 9.2 11.39Z" />
  <path fill="#663514"
    d="m90.38 326.8 34.29-21.55s2.13-2.15.21-5.2c-6.04-9.6-16.9-5.83-26.48.19l-1.15.72c-9.57 6.02-17.68 14.18-11.64 23.79 1.91 3.04 4.77 2.05 4.77 2.05Z" />
  <path fill="#663514"
    d="M92.31 295c-.48 2.15 2.75 7.06 4.04 9.49 1.21 2.92 6.72 1.8 5.58-2.32-1.15-4.12-2.07-5.27-1.37-10.12.6-4.23-7.65.25-8.25 2.95Z" />
  <path fill="#BE5B19"
    d="M742.16 294.9c.1 5.16-2.2 9.92-6.11 11.34-.74.27-.83 1.22-2.38 1.37-1.55.14-1.82-.77-2.6-.89-4.24-.65-7.27-4.85-8.15-9.97-.87-5.12.16-6.87.16-6.87l17.61-1.69s1.35 1.56 1.47 6.72Z" />
  <path fill="#663514"
    d="m722.63 292.01 18.9-1.82s1.35-.45 1.2-2.13c-.52-5.3-5.87-6-11.14-5.5l-.64.06c-5.28.51-10.4 2.23-9.89 7.52a1.95 1.95 0 0 0 1.57 1.87Z" />
  <path fill="#663514"
    d="M730.13 279.08c-.65.8-.33 3.54-.3 4.83-.1 1.48 2.44 2.17 2.83.2.38-1.96.24-2.64 1.55-4.52 1.15-1.65-3.26-1.51-4.08-.5Z" />
  <path fill="#BE5B19"
    d="M471.97 360.75c.31 4.25-1.38 8.28-4.55 9.62-.6.26-.63 1.04-1.9 1.23-1.27.19-1.54-.55-2.18-.62-3.53-.35-6.22-3.68-7.16-7.87-.95-4.19-.17-5.67-.17-5.67l14.46-2.16s1.18 1.23 1.5 5.47Z" />
  <path fill="#663514"
    d="m455.73 359.21 15.53-2.32s1.09-.43.88-1.8c-.65-4.36-5.1-4.71-9.43-4.06l-.52.08c-4.33.64-8.48 2.28-7.83 6.63.2 1.38 1.37 1.47 1.37 1.47Z" />
  <path fill="#663514"
    d="M461.36 348.22c-.5.69-.12 2.93-.04 4-.02 1.22 2.1 1.68 2.34.04.24-1.64.09-2.2 1.09-3.8.87-1.41-2.76-1.1-3.39-.24Z" />
  <defs>
    <linearGradient id="a" x1="338.92" x2="244.94" y1="214.05" y2="273.64"
      gradientUnits="userSpaceOnUse">
      <stop offset=".36" stop-color="#4AA036" stop-opacity="0" />
      <stop offset="1" stop-color="#4AA036" />
    </linearGradient>
    <linearGradient id="b" x1="342.5" x2="136.97" y1="260" y2="312.49"
      gradientUnits="userSpaceOnUse">
      <stop stop-color="#4AA036" stop-opacity="0" />
      <stop offset="1" stop-color="#1E5A1A" />
    </linearGradient>
  </defs>
</svg>
