<svg xmlns="http://www.w3.org/2000/svg" fill="none" viewBox="0 0 191 185">
  <path fill="#4AA036"
    d="M2.34 2.69c3.9-4.22 7.42-2.4 9.98-.92 2.55 1.5 3.87 3.12 5.87 1.55 2-1.58 6.76-4.26 11.75-1.9 4.99 2.35 3.37 8.7 5.63 9.65 2.25.94 4.08-.56 8.53 1.83 4.45 2.39 8.04 8.06 5.51 14.85-2.52 6.79-6.81 12.68-9.18 14.2-2.36 1.54-4.07 1.99-2.78 3.46 1.21 1.39 7.2.46 10.96 1.88 3.76 1.42 9.68 4.99 8.9 9.14-.76 4.16-3.49 9.2-10.22 13.2s-14.31 8.76-19.53 8.44c-5.21-.32-5.51 2.04-3.74 2.5 1.78.47 7.15 3.25 7.14 6.6-.01 3.35-3.05 4.92-5.5 4.5-2.44-.42-6-2.17-5.8-.6.18 1.57 2.34 3.09 2.2 5.18-.12 1.87-2.77 6.07-12.12 7.22-1.46.07-2.22 1.1-3.37.88-1.15-.22-1.79-1.2-5.18-3.14-.47-.25-.93-.52-1.39-.78V6.22c.62-1.3 1.39-2.5 2.34-3.53Z" />
  <path fill="url(#a)"
    d="M2.34 2.69c3.9-4.22 7.42-2.4 9.98-.92 2.55 1.5 3.87 3.12 5.87 1.55 2-1.58 6.76-4.26 11.75-1.9 4.99 2.35 3.37 8.7 5.63 9.65 2.25.94 4.08-.56 8.53 1.83 4.45 2.39 8.04 8.06 5.51 14.85-2.52 6.79-6.81 12.68-9.18 14.2-2.36 1.54-4.07 1.99-2.78 3.46 1.21 1.39 7.2.46 10.96 1.88 3.76 1.42 9.68 4.99 8.9 9.14-.76 4.16-3.49 9.2-10.22 13.2s-14.31 8.76-19.53 8.44c-5.21-.32-5.51 2.04-3.74 2.5 1.78.47 7.15 3.25 7.14 6.6-.01 3.35-3.05 4.92-5.5 4.5-2.44-.42-6-2.17-5.8-.6.18 1.57 2.34 3.09 2.2 5.18-.12 1.87-2.77 6.07-12.12 7.22-1.46.07-2.22 1.1-3.37.88-1.15-.22-1.79-1.2-5.18-3.14-.47-.25-.93-.52-1.39-.78V6.22c.62-1.3 1.39-2.5 2.34-3.53Z" />
  <path fill="#4AA036"
    d="M84.87 34.28a9.85 9.85 0 0 1 3.23.17c.94.23 1.8.64 2.42 1.3.84.32 1.55.96 2.12 1.74.6.83 1.06 1.85 1.39 2.93.63 2.13.74 4.6.07 6.35-.6 1.57-.99 3.52-.92 5.27.07 1.77.6 3.21 1.7 3.95.62.41 1.22.7 1.81.94.58.23 1.22.46 1.82.73a8.11 8.11 0 0 1 3.68 3.28 6.5 6.5 0 0 1 .87 3.62 16.78 16.78 0 0 1-.66 4.13 25.05 25.05 0 0 1-2.7 6.38 6.9 6.9 0 0 0-1.15 3.5c0 .57.1 1.05.3 1.41.2.35.51.6.98.73.69.17 1.5.58 2.31 1.13.82.55 1.68 1.26 2.48 2.05 1.58 1.58 3 3.58 3.3 5.44.27 1.78.23 4.37-.4 6.94-.63 2.57-1.88 5.18-4.06 6.94-2.1 1.7-5.1 3.32-7.55 4.7-1.24.7-2.33 1.34-3.13 1.91-.4.29-.7.55-.92.78-.21.23-.29.38-.3.47 0 .02.03.07.13.15.17.15.45.32.86.5.81.39 1.95.79 3.25 1.28 1.28.49 2.68 1.06 3.95 1.77a9.95 9.95 0 0 1 3.26 2.66c1.6 2.18 1.71 4.99.86 7.71a17.12 17.12 0 0 1-5.03 7.51c-2.3 2.03-3.23 2.7-4.2 3.45a53.5 53.5 0 0 0-4.5 3.92c-3.45 3.22-8.14 4-12.35 4.2-2.1.1-4.15.04-5.84.06-1.74.02-3.09.11-3.95.45a4.7 4.7 0 0 0-1.7.96.67.67 0 0 0-.17.3.4.4 0 0 0 .03.22c.07.21.3.48.68.8.37.3.84.62 1.33.95 2.22 1.49 4.09 6.13-.05 10.82-2.07 2.36-5.76 3.83-9.44 4.92-1.85.55-3.74 1.01-5.46 1.45-1.72.43-3.27.83-4.49 1.27-5.05 1.8-9.8 1.71-13.39 1.37a8.83 8.83 0 0 0-4.42.61c-.5.26-.64.5-.66.61-.01.09.02.36.63.77 1.37.91 2.65 2.3 3.55 3.7a10 10 0 0 1 1.04 2.07c.23.66.35 1.32.26 1.9-.15.96-.7 3.23-2.16 5.41-.5.74-1.1 1.47-1.83 2.14H0V60.39a15.4 15.4 0 0 1 2.75-3.03c2.2-1.82 4.84-2.79 7.47-2.13 1.31.33 2.56 1.1 3.7 2a30.8 30.8 0 0 1 3.13 2.99c.95 1.01 1.75 1.91 2.42 2.52.33.3.6.5.8.6.1.06.16.07.18.07.08-.05.2-.18.32-.46a6 6 0 0 0 .37-1.15c.23-.95.4-2.2.58-3.62.35-2.79.7-6.18 1.47-8.77.8-2.68 2.75-4.83 4.89-6.4a18.48 18.48 0 0 1 6.26-3c1.84-.43 4.23.12 6.28.99 1.04.43 2.03.96 2.85 1.51.82.55 1.5 1.14 1.92 1.7.3.4.65.58 1.04.63.41.06.9-.03 1.43-.26a6.9 6.9 0 0 0 2.8-2.37 24.8 24.8 0 0 1 4.87-4.94 16.76 16.76 0 0 1 3.57-2.18 6.5 6.5 0 0 1 3.68-.57 8 8 0 0 1 4.43 2.17c.48.44.93.95 1.37 1.4.45.45.94.9 1.55 1.3 1.1.75 2.64.7 4.3.09 1.65-.6 3.3-1.7 4.53-2.86 1.37-1.28 3.69-2.12 5.9-2.34Z" />
  <path fill="url(#b)"
    d="M84.87 34.28a9.85 9.85 0 0 1 3.23.17c.94.23 1.8.64 2.42 1.3.84.32 1.55.96 2.12 1.74.6.83 1.06 1.85 1.39 2.93.63 2.13.74 4.6.07 6.35-.6 1.57-.99 3.52-.92 5.27.07 1.77.6 3.21 1.7 3.95.62.41 1.22.7 1.81.94.58.23 1.22.46 1.82.73a8.11 8.11 0 0 1 3.68 3.28 6.5 6.5 0 0 1 .87 3.62 16.78 16.78 0 0 1-.66 4.13 25.05 25.05 0 0 1-2.7 6.38 6.9 6.9 0 0 0-1.15 3.5c0 .57.1 1.05.3 1.41.2.35.51.6.98.73.69.17 1.5.58 2.31 1.13.82.55 1.68 1.26 2.48 2.05 1.58 1.58 3 3.58 3.3 5.44.27 1.78.23 4.37-.4 6.94-.63 2.57-1.88 5.18-4.06 6.94-2.1 1.7-5.1 3.32-7.55 4.7-1.24.7-2.33 1.34-3.13 1.91-.4.29-.7.55-.92.78-.21.23-.29.38-.3.47 0 .02.03.07.13.15.17.15.45.32.86.5.81.39 1.95.79 3.25 1.28 1.28.49 2.68 1.06 3.95 1.77a9.95 9.95 0 0 1 3.26 2.66c1.6 2.18 1.71 4.99.86 7.71a17.12 17.12 0 0 1-5.03 7.51c-2.3 2.03-3.23 2.7-4.2 3.45a53.5 53.5 0 0 0-4.5 3.92c-3.45 3.22-8.14 4-12.35 4.2-2.1.1-4.15.04-5.84.06-1.74.02-3.09.11-3.95.45a4.7 4.7 0 0 0-1.7.96.67.67 0 0 0-.17.3.4.4 0 0 0 .03.22c.07.21.3.48.68.8.37.3.84.62 1.33.95 2.22 1.49 4.09 6.13-.05 10.82-2.07 2.36-5.76 3.83-9.44 4.92-1.85.55-3.74 1.01-5.46 1.45-1.72.43-3.27.83-4.49 1.27-5.05 1.8-9.8 1.71-13.39 1.37a8.83 8.83 0 0 0-4.42.61c-.5.26-.64.5-.66.61-.01.09.02.36.63.77 1.37.91 2.65 2.3 3.55 3.7a10 10 0 0 1 1.04 2.07c.23.66.35 1.32.26 1.9-.15.96-.7 3.23-2.16 5.41-.5.74-1.1 1.47-1.83 2.14H0V60.39a15.4 15.4 0 0 1 2.75-3.03c2.2-1.82 4.84-2.79 7.47-2.13 1.31.33 2.56 1.1 3.7 2a30.8 30.8 0 0 1 3.13 2.99c.95 1.01 1.75 1.91 2.42 2.52.33.3.6.5.8.6.1.06.16.07.18.07.08-.05.2-.18.32-.46a6 6 0 0 0 .37-1.15c.23-.95.4-2.2.58-3.62.35-2.79.7-6.18 1.47-8.77.8-2.68 2.75-4.83 4.89-6.4a18.48 18.48 0 0 1 6.26-3c1.84-.43 4.23.12 6.28.99 1.04.43 2.03.96 2.85 1.51.82.55 1.5 1.14 1.92 1.7.3.4.65.58 1.04.63.41.06.9-.03 1.43-.26a6.9 6.9 0 0 0 2.8-2.37 24.8 24.8 0 0 1 4.87-4.94 16.76 16.76 0 0 1 3.57-2.18 6.5 6.5 0 0 1 3.68-.57 8 8 0 0 1 4.43 2.17c.48.44.93.95 1.37 1.4.45.45.94.9 1.55 1.3 1.1.75 2.64.7 4.3.09 1.65-.6 3.3-1.7 4.53-2.86 1.37-1.28 3.69-2.12 5.9-2.34Z" />
  <path fill="#4AA036"
    d="M85.73 135.35c13.6-5.77 25.2-6.53 33.35-5.48 8.14 1.06 8.82 9.4 7.74 14.32-1.08 4.91-8.49 11.27-7.18 13.27 1.4 2.15 3.82.42 8.83-1.55 5-1.97 19.61-4.1 34.14-3.83 14.54.28 21.2 6.96 21.18 13.1 0 6.15-4.44 7.53-4.93 10.52-.45 2.74 10.39 3.9 11.7 9.3H0v-30.3c6.5-3.25 11.74-3.56 14.04-3.07 3.87.81 4.5 3.95 7.12 4.9 2.61.93 2.92-3.9 4.51-6.87 1.6-2.97 7.31-5.67 13.3-4.14 5.99 1.54 5.78 8.9 4.9 11.13-.88 2.22 3.61 2.97 8.05-3.08 4.44-6.05 20.2-12.44 33.8-18.22Z" />
  <path fill="url(#c)"
    d="M85.73 135.35c13.6-5.77 25.2-6.53 33.35-5.48 8.14 1.06 8.82 9.4 7.74 14.32-1.08 4.91-8.49 11.27-7.18 13.27 1.4 2.15 3.82.42 8.83-1.55 5-1.97 19.61-4.1 34.14-3.83 14.54.28 21.2 6.96 21.18 13.1 0 6.15-4.44 7.53-4.93 10.52-.45 2.74 10.39 3.9 11.7 9.3H0v-30.3c6.5-3.25 11.74-3.56 14.04-3.07 3.87.81 4.5 3.95 7.12 4.9 2.61.93 2.92-3.9 4.51-6.87 1.6-2.97 7.31-5.67 13.3-4.14 5.99 1.54 5.78 8.9 4.9 11.13-.88 2.22 3.61 2.97 8.05-3.08 4.44-6.05 20.2-12.44 33.8-18.22Z" />
  <defs>
    <linearGradient id="a" x1="37.05" x2="-15.59" y1="5.76" y2="90.85"
      gradientUnits="userSpaceOnUse">
      <stop stop-color="#4AA036" stop-opacity="0" />
      <stop offset="1" stop-color="#1E5A1A" />
    </linearGradient>
    <linearGradient id="b" x1="90.57" x2="-17.8" y1="35.67" y2="197.35"
      gradientUnits="userSpaceOnUse">
      <stop stop-color="#4AA036" stop-opacity="0" />
      <stop offset="1" stop-color="#1E5A1A" />
    </linearGradient>
    <linearGradient id="c" x1="189.75" x2="-12.5" y1="176.48" y2="196.76"
      gradientUnits="userSpaceOnUse">
      <stop stop-color="#4AA036" stop-opacity="0" />
      <stop offset="1" stop-color="#1E5A1A" />
    </linearGradient>
  </defs>
</svg>
