<svg xmlns="http://www.w3.org/2000/svg" fill="currentColor" viewBox="0 0 190 204">
  <path
    d="M15.74 191.23a2 2 0 0 1 1.6-.03 6.22 6.22 0 0 1 3.26.28c.47.17.9.41 1.2.73.4.44 1.02.86 1.7 1.1.67.23 1.37.26 1.98-.02.73-.33 1.15-.69 1.8-1.09a6.17 6.17 0 0 1 2.53-.88c1.3-.19 2.5.48 3.39 1.22a7.33 7.33 0 0 1 1.8 2.16c.15.32.48.65.86.8a1 1 0 0 0 1.08-.13c.58-.47 1.7-.97 2.84-1.32.58-.17 1.18-.31 1.74-.39a4.7 4.7 0 0 1 1.58.02c.84.18 1.9.62 2.78 1.3a3.83 3.83 0 0 1 1.65 2.92c.02 1.1-.3 2.54-.5 3.66a12.2 12.2 0 0 0-.22 1.64l.3-.17c.41-.24.93-.6 1.54-1.02 1.18-.79 2.7-1.76 4.1-2.03a4.1 4.1 0 0 1 3.6.98 4.92 4.92 0 0 1 1.52 3.04H5.56c.17-.75.5-1.47 1.11-2A6.18 6.18 0 0 1 9 200.63c.72-.23 1.27-.32 2-.66a2.62 2.62 0 0 0 1.3-1.5c.26-.66.33-1.4.26-2a3.2 3.2 0 0 1 .22-1.4 6.21 6.21 0 0 1 1.9-2.65 2 2 0 0 1 1.07-1.2ZM153.99 72.71c3.97-1.92 10.3.12 14.89 9 4.58 8.88 7.62 18.55 7.86 22.25.25 3.7-.14 5.74 1.67 5.93 1.7.18 3.56-6.36 6.41-8.55a11.65 11.65 0 0 1 6.18-2.46V204H81.4c.55-2.34 1.67-3.6 1.62-5.5-.06-2.87-8.22-3.63-8.7-10.1-.46-6.45 4.85-10.64 7.61-12.22 2.76-1.59 1.46-3.7.89-7.12-.57-3.43-1.08-8.05 5.63-10.67 7.68-3 17.76-.18 24.82 3.55 7.06 3.73 11.92 4.36 13 .74 1.07-3.62-4.3-9.38-5.82-15.64-1.52-6.25.88-11.7 7.62-13.15 3.4-.73 8.64 1.14 14.15 4.47 2.96.22 5.63.53 6.63-1.08 1.66-2.67-1.2-7.13-7.07-12.33-5.87-5.19-12.71-13.74-14.8-22.58-1.81-7.7 1.26-9.3 3.64-10.29 2.38-.99 4.33-.67 3.9-4.07-.44-3.4-.6-10.46 3.58-12.9 4.18-2.46 8.8 5.14 10.59 3.91 1.78-1.23 1.33-4.4 5.3-6.3ZM191 1.79v59.02a7.53 7.53 0 0 1-3.62-.86 26.85 26.85 0 0 0-2.72-1.36c-.59-.24-1.14-.46-2.56-1.17a8.6 8.6 0 0 1-3.53-3.22 4.66 4.66 0 0 1-.43-4.26c.3-.7.83-1.33 1.42-1.87a17.5 17.5 0 0 1 1.85-1.47c.62-.44 1.14-.8 1.5-1.1.14-.1.24-.2.3-.26l-.03-.02a2.9 2.9 0 0 0-.51-.24c-.46-.18-1.08-.35-1.8-.53-1.39-.36-3.13-.77-4.43-1.35a6.46 6.46 0 0 1-2.98-3.09 9.62 9.62 0 0 1-1-3.57c-.06-1.06.47-2.32 1.1-3.35.33-.53.7-1.02 1.07-1.43.37-.4.75-.74 1.12-.94.17-.1.26-.22.31-.37.05-.16.06-.38 0-.64a3.15 3.15 0 0 0-.9-1.5 12.48 12.48 0 0 1-2.16-2.93 8.64 8.64 0 0 1-.82-2.07c-.17-.7-.2-1.43.04-2.1a4.8 4.8 0 0 1 1.6-2.27c.27-.22.59-.44.85-.63.27-.2.53-.42.79-.7.41-.46.53-1.18.38-2.05A6.79 6.79 0 0 0 174.8 13a5.65 5.65 0 0 1-.71-3.4c.06-.85.3-1.75.77-2.41A2 2 0 0 1 175.95 6a4.9 4.9 0 0 1 2.34-1c1.19-.2 2.53-.1 3.45.4.73.4 1.67.72 2.54.8.88.07 1.59-.11 2-.57.26-.28.45-.56.63-.85.17-.27.35-.61.55-.9a4.8 4.8 0 0 1 2.12-1.8c.44-.21.92-.3 1.42-.29Z" />
</svg>
