<svg xmlns="http://www.w3.org/2000/svg" fill="none" viewBox="0 0 76 97">
  <path fill="#4AA036"
    d="M23.98 81.19c.7-1.65 2.5-4.14 4.61-3.42 2.1.72 4.66 2.44 6.7 5.96 2.03 3.52 4.45 7.5 4.3 9.94-.16 2.43 1.03 2.77 1.26 1.97.23-.8 1.63-3.09 3.33-2.8 1.7.3 2.5 1.87 2.29 2.98-.07.37-.22.79-.35 1.18H.18c-.2-1.09.33-1.93.8-2.61.76-1.08 1.58-1.56.78-2.64s-2.16-3.56-.98-5.7c1.19-2.15 4.41-.85 4.88-1.83.48-.98-.29-1.97.92-3.87 1.2-1.89 4.07-3.1 7.5-1.32 3.45 1.78 6.43 4.3 7.2 5.55.79 1.25 1.01 2.1 1.76 1.61.7-.45.22-3.35.94-5Z" />
  <path fill="url(#a)"
    d="M23.98 81.19c.7-1.65 2.5-4.14 4.61-3.42 2.1.72 4.66 2.44 6.7 5.96 2.03 3.52 4.45 7.5 4.3 9.94-.16 2.43 1.03 2.77 1.26 1.97.23-.8 1.63-3.09 3.33-2.8 1.7.3 2.5 1.87 2.29 2.98-.07.37-.22.79-.35 1.18H.18c-.2-1.09.33-1.93.8-2.61.76-1.08 1.58-1.56.78-2.64s-2.16-3.56-.98-5.7c1.19-2.15 4.41-.85 4.88-1.83.48-.98-.29-1.97.92-3.87 1.2-1.89 4.07-3.1 7.5-1.32 3.45 1.78 6.43 4.3 7.2 5.55.79 1.25 1.01 2.1 1.76 1.61.7-.45.22-3.35.94-5Z" />
  <path fill="#4AA036"
    d="M50.36 1.42c3.7-1.6 9.3 0 12.9 7.19 3.58 7.18 5.73 15.03 5.72 18.04 0 3.01-.48 4.67 1.14 4.81 1.44.13 3.38-4.63 5.88-6.69V97H60.28c-.33-2.58 1.24-4.89 2.27-6.16 1.5-1.87 4.45-3.49 3.9-4.58-.55-1.1-9.24-.11-18.67-3.26-9.43-3.15-20.13-10.97-21.99-16.82-1.85-5.85.34-9.77 4.57-10.9 4.22-1.14 9.7.95 11.37-1.24 1.66-2.2-.64-5.8-5.62-9.98C31.13 39.9 25.47 33 24.14 25.82c-1.16-6.26 1.71-7.59 3.92-8.41 2.21-.83 3.95-.59 3.77-3.35-.19-2.77.11-8.51 4.04-10.55 3.92-2.03 7.63 4.11 9.31 3.1 1.69-1.02 1.48-3.6 5.18-5.2Z" />
  <path fill="url(#b)"
    d="M50.36 1.42c3.7-1.6 9.3 0 12.9 7.19 3.58 7.18 5.73 15.03 5.72 18.04 0 3.01-.48 4.67 1.14 4.81 1.44.13 3.38-4.63 5.88-6.69V97H60.28c-.33-2.58 1.24-4.89 2.27-6.16 1.5-1.87 4.45-3.49 3.9-4.58-.55-1.1-9.24-.11-18.67-3.26-9.43-3.15-20.13-10.97-21.99-16.82-1.85-5.85.34-9.77 4.57-10.9 4.22-1.14 9.7.95 11.37-1.24 1.66-2.2-.64-5.8-5.62-9.98C31.13 39.9 25.47 33 24.14 25.82c-1.16-6.26 1.71-7.59 3.92-8.41 2.21-.83 3.95-.59 3.77-3.35-.19-2.77.11-8.51 4.04-10.55 3.92-2.03 7.63 4.11 9.31 3.1 1.69-1.02 1.48-3.6 5.18-5.2Z" />
  <defs>
    <linearGradient id="a" x1="42.15" x2="77.53" y1="1.37" y2="107.63"
      gradientUnits="userSpaceOnUse">
      <stop stop-color="#4AA036" stop-opacity="0" />
      <stop offset="1" stop-color="#1E5A1A" />
    </linearGradient>
    <linearGradient id="b" x1="42.15" x2="77.53" y1="1.37" y2="107.63"
      gradientUnits="userSpaceOnUse">
      <stop stop-color="#4AA036" stop-opacity="0" />
      <stop offset="1" stop-color="#1E5A1A" />
    </linearGradient>
  </defs>
</svg>
