<svg xmlns="http://www.w3.org/2000/svg" width="1203" height="901" fill="none">
  <path fill="#BE5B19"
    d="M172.203 14.417C38.653 60.827-31.988 206.715 14.423 340.265c34.5 99.275 123.967 163.786 222.474 171.298 73.634 171.546 268.528 259.392 447.605 197.16l80.763-28.066c20.867-7.252 31.905-30.047 24.653-50.914-7.252-20.867-30.047-31.905-50.914-24.653l-80.762 28.066c-83.469 29.007-174.649-15.144-203.656-98.613-17.181-49.44-8.694-101.583 18.425-141.911l-.164.057c39.984-63.56 51.771-144.047 25.205-220.492-46.411-133.55-192.298-204.191-325.849-157.78Z" />
  <path fill="#F77625"
    d="M203.028 185.568c-.792.24-1.592.518-2.401.84l-.095.04c-.788.255-1.584.55-2.386.888l-.087.037c-.784.272-1.575.582-2.371.936l-.083.038a30.27 30.27 0 0 0-2.35.981l-.071.034a30.63 30.63 0 0 0-2.337 1.03l-.057.029c-.77.318-1.545.676-2.323 1.079l-.049.025c-.765.334-1.534.708-2.306 1.126l-.046.025c-.757.349-1.517.737-2.279 1.17l-.034.019a30.17 30.17 0 0 0-2.263 1.217l-.025.015c-.746.38-1.494.799-2.242 1.263l-.026.016a30.95 30.95 0 0 0-2.211 1.304l-.007.005c-.733.41-1.467.86-2.199 1.354l-.002.001a30.81 30.81 0 0 0-2.165 1.393c-.712.437-1.424.912-2.132 1.432-.701.448-1.4.936-2.095 1.466-.696.465-1.39.968-2.079 1.515-.675.471-1.348.98-2.015 1.531-.676.49-1.348 1.02-2.014 1.592a31.251 31.251 0 0 0-1.948 1.602 31.027 31.027 0 0 0-1.927 1.649 31.408 31.408 0 0 0-1.884 1.676 31.372 31.372 0 0 0-1.857 1.719c-.61.541-1.213 1.12-1.805 1.737a31.608 31.608 0 0 0-1.775 1.775 31.715 31.715 0 0 0-1.733 1.802 31.887 31.887 0 0 0-1.701 1.84 31.01 31.01 0 0 0-1.66 1.867 31.385 31.385 0 0 0-1.609 1.88 32.108 32.108 0 0 0-1.579 1.922 32.429 32.429 0 0 0-1.527 1.933 32.556 32.556 0 0 0-1.494 1.97 31.995 31.995 0 0 0-1.453 1.995 32.2 32.2 0 0 0-1.404 2.008c-.473.65-.932 1.333-1.374 2.049a32.424 32.424 0 0 0-1.318 2.053 32.543 32.543 0 0 0-1.27 2.066 32.56 32.56 0 0 0-1.236 2.099c-.413.674-.81 1.378-1.188 2.113a32.074 32.074 0 0 0-1.151 2.142 32.617 32.617 0 0 0-1.099 2.145 32.557 32.557 0 0 0-1.057 2.168 32.292 32.292 0 0 0-1.012 2.183 32.97 32.97 0 0 0-.965 2.189c-.328.712-.636 1.45-.924 2.217a32.762 32.762 0 0 0-.878 2.227 32.71 32.71 0 0 0-.828 2.226 33.077 33.077 0 0 0-.784 2.241 33.21 33.21 0 0 0-.738 2.253 32.664 32.664 0 0 0-.689 2.248 32.916 32.916 0 0 0-.647 2.27c-.225.74-.427 1.504-.605 2.291a32.92 32.92 0 0 0-.553 2.276c-.191.734-.36 1.49-.505 2.269a32.948 32.948 0 0 0-.465 2.301 32.942 32.942 0 0 0-.415 2.288 32.95 32.95 0 0 0-.368 2.279 33.047 33.047 0 0 0-.327 2.317c-.117.746-.211 1.51-.279 2.295-.102.749-.18 1.517-.233 2.304a33.63 33.63 0 0 0-.186 2.274c-.071.742-.118 1.5-.14 2.276a34.045 34.045 0 0 0-.098 2.311 34.933 34.933 0 0 0-.051 2.281 35.013 35.013 0 0 0-.005 2.27c-.012.742 0 1.499.039 2.271.002.741.03 1.497.084 2.268.017.736.059 1.485.127 2.249.032.737.089 1.487.172 2.25.047.736.117 1.484.216 2.244.06.73.145 1.472.258 2.225.075.726.175 1.464.302 2.212.089.722.202 1.455.343 2.198.103.717.231 1.444.386 2.182.119.724.263 1.458.435 2.202.131.709.286 1.427.469 2.153.146.708.315 1.425.513 2.15.159.698.34 1.404.55 2.118.173.699.371 1.406.596 2.12.186.689.395 1.385.632 2.087.199.689.425 1.384.677 2.086.212.68.448 1.366.712 2.058.224.67.472 1.346.748 2.027.239.671.502 1.347.793 2.027.25.658.523 1.32.824 1.986.263.655.551 1.315.866 1.977.275.647.574 1.298.901 1.951.289.642.6 1.288.94 1.935.301.634.625 1.271.977 1.909.309.619.641 1.24.999 1.862.323.616.669 1.235 1.042 1.853a35.29 35.29 0 0 0 1.067 1.81c.349.607.722 1.215 1.122 1.821.351.582.724 1.165 1.123 1.746a36.21 36.21 0 0 0 1.165 1.732c.38.577.783 1.153 1.211 1.726.383.555.787 1.109 1.215 1.66a35.26 35.26 0 0 0 1.263 1.656c.409.547.841 1.092 1.298 1.633.418.537.859 1.07 1.324 1.599.426.523.872 1.042 1.343 1.557.437.516.896 1.028 1.379 1.536.444.502.908 1.001 1.396 1.494.453.493.927.981 1.423 1.463.46.48.941.956 1.444 1.425.464.467.949.927 1.455 1.382.488.472.999.937 1.532 1.396.483.447.985.888 1.509 1.321a35.84 35.84 0 0 0 1.542 1.296c.498.426 1.015.844 1.553 1.254.508.417 1.035.825 1.583 1.226.52.41 1.061.811 1.622 1.204.521.393 1.061.778 1.621 1.155a36.96 36.96 0 0 0 1.638 1.117c.535.37 1.089.732 1.662 1.084a35.97 35.97 0 0 0 1.697 1.059c.541.343 1.1.677 1.678 1.001.545.331 1.107.651 1.688.962a36.32 36.32 0 0 0 1.743.947c.552.304 1.122.597 1.707.882.572.301 1.16.591 1.766.869.567.284 1.149.556 1.748.817.577.274 1.17.536 1.78.787.577.26 1.171.509 1.78.745.572.244 1.159.475 1.761.696a36.75 36.75 0 0 0 1.821.676 36.86 36.86 0 0 0 1.791.626c.595.212 1.206.409 1.83.596.599.199 1.212.385 1.839.558.59.183 1.193.352 1.809.509.598.172 1.209.329 1.834.475.596.158 1.205.303 1.826.435.604.148 1.221.28 1.851.4.598.133 1.207.251 1.829.356.604.121 1.22.229 1.849.322.601.108 1.214.201 1.839.281.606.096 1.224.177 1.853.244.6.082 1.211.149 1.832.203.603.07 1.216.125 1.839.166.602.057 1.214.099 1.836.127a37.16 37.16 0 0 0 1.855.091 38.63 38.63 0 0 0 1.817.05c.603.019 1.216.024 1.837.013.593.007 1.193 0 1.803-.023a36.64 36.64 0 0 0 1.826-.062 37.626 37.626 0 0 0 1.809-.099 38.612 38.612 0 0 0 1.789-.135c.581-.042 1.17-.099 1.766-.17a38.126 38.126 0 0 0 1.786-.21c.597-.067 1.2-.15 1.81-.25.569-.078 1.143-.17 1.724-.277.578-.09 1.162-.196 1.752-.317.565-.1 1.136-.217 1.712-.348a36.86 36.86 0 0 0 1.712-.384c.576-.127 1.156-.27 1.742-.43a35.549 35.549 0 0 0 1.672-.45c.554-.147 1.111-.31 1.673-.487a38.425 38.425 0 0 0 1.658-.522c.55-.171 1.103-.358 1.66-.56a37.93 37.93 0 0 0 1.613-.582c.535-.192 1.073-.4 1.613-.622a38.234 38.234 0 0 0 1.606-.657 38.519 38.519 0 0 0 1.587-.69 38.294 38.294 0 0 0 1.542-.71c.514-.235 1.03-.486 1.546-.751.489-.237.979-.488 1.469-.753a37.116 37.116 0 0 0 1.508-.812c.5-.268.999-.552 1.5-.851.476-.269.951-.553 1.428-.851.474-.281.947-.577 1.421-.888.471-.293.941-.601 1.41-.923.463-.302.924-.619 1.384-.95.448-.307.894-.627 1.338-.961.454-.324.905-.663 1.356-1.018.429-.322.856-.658 1.282-1.007.431-.339.861-.691 1.288-1.057.423-.347.844-.709 1.263-1.084.408-.35.814-.713 1.216-1.09a38.56 38.56 0 0 0 1.194-1.116c.391-.367.779-.746 1.163-1.139a35.88 35.88 0 0 0 1.155-1.179c.372-.38.742-.773 1.107-1.179a37.06 37.06 0 0 0 1.091-1.218 38.81 38.81 0 0 0 1.051-1.224c.348-.406.692-.824 1.031-1.256.332-.405.66-.822.982-1.252.327-.418.651-.847.967-1.289.313-.419.622-.85.924-1.292.308-.432.612-.874.909-1.33.299-.44.593-.89.88-1.353.277-.428.55-.866.815-1.315.279-.453.553-.916.82-1.392.262-.449.52-.907.769-1.377.216-.389.427-.785.633-1.19a37.8 37.8 0 0 0 .719-1.423c.225-.446.442-.901.653-1.366.221-.463.433-.937.64-1.42.209-.465.409-.941.603-1.425.2-.471.39-.952.574-1.442.19-.48.371-.97.545-1.47.181-.487.351-.983.515-1.489a39.1 39.1 0 0 0 .471-1.474c.151-.477.293-.962.428-1.456.141-.48.273-.968.397-1.465.132-.491.254-.991.368-1.499.12-.494.231-.997.333-1.508.107-.491.206-.989.295-1.495.094-.484.179-.976.255-1.474.086-.508.163-1.022.23-1.545.07-.484.132-.975.184-1.472.063-.513.116-1.032.158-1.56.048-.495.088-.998.117-1.507a37.9 37.9 0 0 0 .079-1.493c.025-.499.041-1.003.046-1.515.012-.496.016-.999.008-1.508 0-.501-.006-1.008-.027-1.52a37.504 37.504 0 0 0-.063-1.482 37.158 37.158 0 0 0-.071-1.135l-.007-.075c-.007-.096-.012-.192-.021-.288a36.466 36.466 0 0 0-.103-1.161 34.716 34.716 0 0 0-.161-1.466 35.875 35.875 0 0 0-.198-1.476 37.147 37.147 0 0 0-.236-1.486 38.57 38.57 0 0 0-.273-1.472 35.33 35.33 0 0 0-.308-1.462 35.531 35.531 0 0 0-.336-1.422 37.13 37.13 0 0 0-.379-1.444c-.127-.474-.264-.95-.413-1.429-.142-.48-.296-.963-.461-1.448a37.816 37.816 0 0 0-.486-1.405c-.16-.453-.329-.908-.511-1.364-.175-.461-.36-.923-.559-1.387a36.747 36.747 0 0 0-.596-1.372c-.192-.434-.393-.87-.606-1.305a38.19 38.19 0 0 0-.66-1.331 35.41 35.41 0 0 0-.514-.979 36.843 36.843 0 0 0-.723-1.304 35.7 35.7 0 0 0-.75-1.27c-.253-.426-.52-.85-.797-1.274-.263-.416-.538-.83-.825-1.243a35.306 35.306 0 0 0-.836-1.19 37.27 37.27 0 0 0-.898-1.207c-.294-.39-.599-.777-.915-1.163a35.34 35.34 0 0 0-.952-1.143c-.31-.368-.63-.735-.963-1.097-.329-.37-.669-.737-1.021-1.1a35.675 35.675 0 0 0-1.04-1.06 36.805 36.805 0 0 0-.824-.8 35.383 35.383 0 0 0-1.074-.991 36.74 36.74 0 0 0-1.153-1.006c-.374-.322-.76-.638-1.156-.95-.39-.317-.791-.628-1.203-.934-.39-.298-.791-.591-1.203-.879-.407-.292-.824-.58-1.252-.861a35.74 35.74 0 0 0-1.275-.822 34.887 34.887 0 0 0-1.283-.775 34.48 34.48 0 0 0-1.314-.743 34.76 34.76 0 0 0-1.069-.567l-.081-.041-.218-.112a37.46 37.46 0 0 0-1.1-.541c-.089-.043-.179-.084-.268-.126l-.019-.01c-.35-.166-.706-.327-1.067-.484a34.167 34.167 0 0 0-1.416-.598 34.797 34.797 0 0 0-1.436-.555 33.728 33.728 0 0 0-1.477-.519 33.432 33.432 0 0 0-1.465-.464 34.512 34.512 0 0 0-1.473-.418 35.475 35.475 0 0 0-1.535-.382 33.734 33.734 0 0 0-1.551-.334 34.405 34.405 0 0 0-1.533-.279c-.423-.072-.85-.137-1.283-.195-.051-.007-.101-.013-.151-.021l-.113-.014a35.648 35.648 0 0 0-1.302-.155 34.522 34.522 0 0 0-3.499-.211 32.877 32.877 0 0 0-.444-.009 34.697 34.697 0 0 0-1.615-.009c-.527.003-1.059.017-1.597.045-.444.018-.892.043-1.343.079l-.065.005-.159.012c-2.917.211-5.964.815-9.118 1.868-32.41 10.824-29.916 46.628-11.332 62.016l-.184.053a23.48 23.48 0 0 0-.438.113c-.149.033-.298.069-.447.104-.153.031-.307.064-.461.097-.165.03-.331.062-.497.094-.156.025-.312.052-.469.079-.166.022-.332.047-.499.072-.17.019-.341.041-.513.063-.169.016-.34.034-.511.053-.176.012-.353.027-.531.042-.178.01-.356.02-.536.032-.181.005-.363.013-.546.021l-.537.009c-.191-.002-.382-.004-.575-.003a53.38 53.38 0 0 0-.573-.015c-.192-.01-.385-.018-.579-.026a37.261 37.261 0 0 0-.59-.04 37.19 37.19 0 0 0-.592-.053c-.195-.023-.39-.044-.587-.065a40.148 40.148 0 0 0-.631-.082 39.095 39.095 0 0 0-.612-.094 38.239 38.239 0 0 0-.606-.105 40.88 40.88 0 0 0-.627-.123 38.321 38.321 0 0 0-.626-.137 41.572 41.572 0 0 0-.653-.155 39.591 39.591 0 0 0-.638-.167 39.443 39.443 0 0 0-.66-.187 36.278 36.278 0 0 0-.634-.194 32.94 32.94 0 0 0-.671-.221 31.699 31.699 0 0 0-.657-.231c-.22-.085-.442-.169-.666-.25a39.92 39.92 0 0 0-.664-.266 42.056 42.056 0 0 0-.68-.288 44.649 44.649 0 0 0-.657-.294c-.22-.106-.442-.212-.668-.316a35.78 35.78 0 0 0-.679-.338c-.222-.12-.447-.238-.675-.354-.219-.123-.44-.246-.665-.367a38.833 38.833 0 0 0-.676-.392c-.225-.14-.454-.277-.685-.413a40.672 40.672 0 0 0-.653-.415 37.893 37.893 0 0 0-.661-.439 39.205 39.205 0 0 0-.684-.473 42.519 42.519 0 0 0-.656-.474 44.158 44.158 0 0 0-.663-.501 38.79 38.79 0 0 0-.651-.513 36.04 36.04 0 0 0-.661-.542 39.1 39.1 0 0 0-.641-.549c-.21-.191-.422-.382-.639-.571a38.418 38.418 0 0 0-.654-.607c-.203-.201-.41-.4-.62-.599-.209-.215-.421-.43-.639-.643a31.239 31.239 0 0 0-.619-.649 42.15 42.15 0 0 0-.615-.674 43.721 43.721 0 0 0-.586-.667 35.14 35.14 0 0 0-.603-.714 34.082 34.082 0 0 0-.578-.714 34.596 34.596 0 0 0-.576-.743 42.349 42.349 0 0 0-.572-.768c-.182-.263-.37-.525-.562-.788-.173-.26-.351-.52-.533-.78a32.946 32.946 0 0 0-.538-.821 35.879 35.879 0 0 0-.522-.835c-.163-.28-.331-.56-.503-.841-.161-.29-.326-.58-.498-.871a36.478 36.478 0 0 0-.49-.899 39.322 39.322 0 0 0-.47-.907 36.697 36.697 0 0 0-.451-.913c-.14-.312-.287-.625-.44-.938a33.76 33.76 0 0 0-.42-.945 35.16 35.16 0 0 0-.404-.96 36.1 36.1 0 0 0-.392-.987c-.12-.335-.247-.67-.379-1.008a38.373 38.373 0 0 0-.361-1.029 36.858 36.858 0 0 0-.337-1.021c-.101-.35-.21-.701-.324-1.054a38.708 38.708 0 0 0-.298-1.045 37.523 37.523 0 0 0-.288-1.09 38.223 38.223 0 0 0-.262-1.077 36.572 36.572 0 0 0-.244-1.102 34.534 34.534 0 0 0-.227-1.126c-.06-.37-.129-.743-.202-1.119-.054-.38-.116-.764-.184-1.151a34.86 34.86 0 0 0-.161-1.15 35.681 35.681 0 0 0-.138-1.17c-.032-.39-.073-.785-.118-1.183a35.618 35.618 0 0 0-.093-1.19 36.063 36.063 0 0 0-.071-1.204 35.48 35.48 0 0 0-.046-1.206c0-.402-.01-.809-.024-1.22.008-.404.008-.812.002-1.225.016-.409.024-.822.026-1.241.025-.409.041-.824.051-1.243.033-.413.058-.831.077-1.255a35.5 35.5 0 0 0 .101-1.253c.05-.414.092-.833.128-1.258.059-.417.109-.841.153-1.27.068-.422.128-.849.182-1.283.076-.418.143-.842.205-1.273.085-.421.162-.85.234-1.285.094-.422.181-.852.261-1.289.103-.423.199-.854.288-1.292.112-.422.217-.852.315-1.289.123-.429.239-.867.348-1.313.129-.419.251-.845.367-1.28.141-.428.275-.864.403-1.308.151-.427.294-.861.431-1.305.158-.421.309-.85.453-1.289.169-.423.331-.856.487-1.299.177-.421.348-.851.513-1.29.187-.422.368-.853.543-1.294.196-.418.386-.846.57-1.284.206-.418.406-.847.6-1.286.218-.419.429-.848.634-1.288.226-.415.446-.841.66-1.278.235-.411.463-.834.687-1.267.244-.409.482-.828.715-1.259.254-.408.503-.828.747-1.259.264-.405.522-.821.775-1.249.275-.404.545-.819.809-1.247.283-.398.56-.809.833-1.231.294-.397.583-.806.867-1.228.3-.389.596-.791.887-1.206.314-.39.623-.793.927-1.21.32-.382.635-.776.946-1.185.332-.38.66-.775.983-1.183.338-.372.671-.758 1-1.157.351-.371.697-.756 1.04-1.155.361-.367.719-.749 1.072-1.145a33.14 33.14 0 0 0 1.089-1.119c.376-.354.749-.723 1.12-1.106.386-.349.769-.713 1.149-1.092.398-.346.793-.707 1.186-1.083.402-.336.803-.687 1.2-1.053.411-.329.819-.674 1.226-1.034.423-.325.843-.668 1.263-1.025.429-.317.857-.65 1.284-1 .44-.312.88-.641 1.318-.986.444-.301.887-.618 1.329-.953.456-.297.913-.611 1.369-.942.462-.288.925-.593 1.388-.915.473-.282.946-.581 1.419-.898.48-.273.96-.563 1.44-.872.487-.264.974-.546 1.462-.846.494-.256.99-.529 1.487-.821a31.93 31.93 0 0 0 1.51-.797c.514-.241 1.03-.5 1.549-.779a30.76 30.76 0 0 0 1.553-.743c.523-.22 1.05-.459 1.578-.718a30.742 30.742 0 0 0 1.603-.691 31.196 31.196 0 0 0 1.629-.665c.54-.191 1.085-.4 1.633-.63a30.68 30.68 0 0 0 1.675-.609 31.183 31.183 0 0 0 1.68-.573 30.59 30.59 0 0 0 1.7-.545 30.407 30.407 0 0 0 1.733-.517c.57-.14 1.148-.299 1.731-.479a30.373 30.373 0 0 0 1.759-.453 31.089 31.089 0 0 0 1.771-.417c.591-.109 1.19-.237 1.797-.387a30.981 30.981 0 0 0 1.815-.354 29.87 29.87 0 0 0 1.828-.32c.6-.074 1.208-.168 1.826-.283a30.243 30.243 0 0 0 1.863-.251 30.363 30.363 0 0 0 1.856-.214 29.254 29.254 0 0 0 1.881-.181 29.712 29.712 0 0 0 1.886-.143c.627-.015 1.267-.05 1.919-.108a29.473 29.473 0 0 0 1.905-.069c.63.009 1.273-.002 1.929-.035.626.022 1.265.025 1.917.005.634.035 1.282.049 1.944.041.635.047 1.285.076 1.951.081.636.06 1.289.099 1.956.117.638.073 1.292.126 1.962.157.639.085 1.294.151 1.966.195.639.099 1.295.178 1.969.235.641.112 1.3.205 1.977.276a28.686 28.686 0 0 0 1.983.313c.636.137 1.289.256 1.962.352l.02.003c.632.149 1.284.28 1.956.39l.024.003c.631.162 1.282.307 1.952.43l.024.004a28.4 28.4 0 0 0 1.951.468l.029.005c.628.188 1.277.359 1.947.509.014.004.029.005.044.009.622.199 1.265.383 1.93.545l.053.011c.618.212 1.257.408 1.918.583l.051.012c.616.226 1.255.434 1.917.623l.061.017c.612.237 1.246.457 1.903.659l.067.019c.607.25 1.237.483 1.891.698l.078.024c.602.261 1.227.507 1.876.734l.09.03c.595.272 1.214.53 1.856.769l.096.033c.59.285 1.204.555 1.843.807l.104.039c.584.296 1.193.577 1.827.841l.101.04c.582.309 1.188.604 1.82.882l.114.048c.574.32 1.172.626 1.797.915l.119.053c.568.331 1.162.649 1.782.951.042.021.084.039.126.059.561.342 1.149.672 1.763.986l.132.065c.555.353 1.135.694 1.743 1.02l.135.07c.549.365 1.124.717 1.728 1.056l.146.079c.54.374 1.106.739 1.701 1.088l.152.085c.533.386 1.092.761 1.681 1.121l.156.093c.526.396 1.078.782 1.661 1.154.053.035.108.067.162.101.518.406 1.062.803 1.637 1.187l.167.108c.51.416 1.047.824 1.615 1.219.057.04.115.077.172.116a25.77 25.77 0 0 0 1.591 1.25l.178.127c.493.435 1.013.863 1.565 1.28.059.045.121.088.181.132.485.446.998.886 1.542 1.314l.186.142c.475.455.98.903 1.515 1.341l.189.15c.467.465.962.925 1.491 1.374l.19.158c.458.475.946.944 1.466 1.403.065.058.131.113.196.17.448.483.926.96 1.436 1.429l.199.178c.439.492.908.98 1.409 1.459.067.064.135.126.203.189.428.5.887.996 1.379 1.485.067.067.135.131.203.196.419.51.87 1.016 1.353 1.515l.206.208c.409.517.849 1.031 1.322 1.539.07.075.141.147.21.22a24.88 24.88 0 0 0 1.291 1.563c.071.08.144.157.216.235.387.531.804 1.061 1.256 1.585.069.081.141.16.211.239.378.541.787 1.08 1.23 1.616.071.085.144.169.216.253.366.547.763 1.094 1.196 1.636.071.09.144.177.216.265.355.554.743 1.107 1.164 1.658.073.095.147.188.22.28.344.56.718 1.119 1.128 1.677.072.098.146.195.219.292a24.575 24.575 0 0 0 1.315 2.001 24.28 24.28 0 0 0 1.063 1.72c.073.108.148.214.222.319.309.577.65 1.157 1.026 1.736.07.109.143.216.214.323.3.586.631 1.175.998 1.764.07.113.142.224.213.334a24 24 0 0 0 .962 1.784c.071.119.144.236.216.352.275.596.582 1.195.924 1.795.069.121.139.239.209.357.265.603.561 1.211.894 1.821.068.125.138.248.207.371a23.677 23.677 0 0 0 1.062 2.22 23.35 23.35 0 0 0 1.021 2.244 23.623 23.623 0 0 0 .984 2.28 23.56 23.56 0 0 0 .94 2.298 23.462 23.462 0 0 0 .903 2.331 22.703 22.703 0 0 0 .859 2.358c.179.63.388 1.27.634 1.917.059.153.12.305.18.455a22.94 22.94 0 0 0 .774 2.404 22.476 22.476 0 0 0 .73 2.431 22.473 22.473 0 0 0 .686 2.455 22.702 22.702 0 0 0 .638 2.458 22.393 22.393 0 0 0 .595 2.496 22.821 22.821 0 0 0 .547 2.504 21.715 21.715 0 0 0 .503 2.533 21.782 21.782 0 0 0 .453 2.545 22.128 22.128 0 0 0 .408 2.569 21.48 21.48 0 0 0 .359 2.583 21.925 21.925 0 0 0 .309 2.598 21.72 21.72 0 0 0 .262 2.612 21.5 21.5 0 0 0 .21 2.626 21.327 21.327 0 0 0 .162 2.639 21.4 21.4 0 0 0 .112 2.655 21.086 21.086 0 0 0 .06 2.665 21.101 21.101 0 0 0 .009 2.669 20.894 20.894 0 0 0-.043 2.685 20.89 20.89 0 0 0-.094 2.688 20.604 20.604 0 0 0-.147 2.699 20.612 20.612 0 0 0-.199 2.702 20.323 20.323 0 0 0-.252 2.712 20.237 20.237 0 0 0-.305 2.709 19.946 19.946 0 0 0-.359 2.714 20.01 20.01 0 0 0-.411 2.719 19.896 19.896 0 0 0-.466 2.716 20.199 20.199 0 0 0-.52 2.72 19.76 19.76 0 0 0-.574 2.718 19.611 19.611 0 0 0-.628 2.716 19.3 19.3 0 0 0-.682 2.704 19.574 19.574 0 0 0-.737 2.71 19.713 19.713 0 0 0-.793 2.704 19.004 19.004 0 0 0-.844 2.69 18.988 18.988 0 0 0-.902 2.689 19.111 19.111 0 0 0-.955 2.677 18.735 18.735 0 0 0-1.006 2.658 18.62 18.62 0 0 0-1.065 2.659 18.773 18.773 0 0 0-1.117 2.641 18.367 18.367 0 0 0-1.172 2.629 18.388 18.388 0 0 0-1.225 2.613 18.076 18.076 0 0 0-1.281 2.6 18.077 18.077 0 0 0-1.335 2.583 18.035 18.035 0 0 0-1.387 2.564 17.805 17.805 0 0 0-1.441 2.543 17.836 17.836 0 0 0-1.496 2.526 18.182 18.182 0 0 0-1.549 2.507 17.262 17.262 0 0 0-1.127 1.649c-.17.28-.327.558-.474.834a17.092 17.092 0 0 0-1.159 1.625 17.39 17.39 0 0 0-.498.839c-.413.492-.81 1.023-1.187 1.597-.185.28-.356.559-.518.835a17.227 17.227 0 0 0-1.759 2.411 16.873 16.873 0 0 0-1.809 2.382 17.18 17.18 0 0 0-1.865 2.359c-.449.455-.885.953-1.305 1.495-.215.278-.417.555-.605.83a17.208 17.208 0 0 0-1.966 2.301c-.466.436-.921.915-1.36 1.439-.233.276-.45.552-.654.827-.473.426-.937.895-1.386 1.41-.24.276-.466.551-.677.825a16.869 16.869 0 0 0-2.111 2.201 15.955 15.955 0 0 0-2.144 2.154 15.778 15.778 0 0 0-2.208 2.132 15.835 15.835 0 0 0-2.254 2.095 15.738 15.738 0 0 0-2.301 2.058 15.538 15.538 0 0 0-2.349 2.021 15.375 15.375 0 0 0-2.396 1.983 15.347 15.347 0 0 0-2.439 1.939 15.594 15.594 0 0 0-2.482 1.899 15.01 15.01 0 0 0-2.527 1.857 15.01 15.01 0 0 0-2.574 1.818c-.56.297-1.119.642-1.674 1.041-.335.239-.648.484-.941.73a15.299 15.299 0 0 0-2.651 1.723c-.57.274-1.142.596-1.711.972-.35.232-.679.469-.986.709a14.27 14.27 0 0 0-1.726.935c-.361.228-.698.462-1.013.699-.577.249-1.158.546-1.737.897-.369.224-.713.452-1.035.686a14.797 14.797 0 0 0-2.811 1.535c-.586.224-1.177.498-1.769.826a14.92 14.92 0 0 0-1.08.66 13.94 13.94 0 0 0-2.881 1.433c-.595.201-1.197.449-1.802.755-.398.201-.77.412-1.117.628a13.75 13.75 0 0 0-2.955 1.331c-.602.175-1.213.399-1.829.681-.415.19-.8.39-1.16.597-.605.163-1.219.374-1.84.644-.421.183-.813.377-1.178.579-.609.15-1.228.35-1.856.608-.428.177-.826.365-1.198.562-.611.137-1.234.324-1.865.57-.436.17-.841.354-1.219.545a12.85 12.85 0 0 0-1.875.531c-.443.163-.856.34-1.24.526-.614.112-1.243.274-1.883.495-.45.155-.868.326-1.257.506-.617.098-1.25.248-1.895.457a13.4 13.4 0 0 0-1.276.487c-.618.086-1.253.222-1.901.418-.465.141-.897.299-1.298.468-.619.072-1.256.196-1.907.379-.471.133-.908.284-1.314.446-.621.06-1.26.172-1.915.343a12.3 12.3 0 0 0-1.333.425c-.621.046-1.262.145-1.92.303-.486.117-.936.253-1.353.404-.621.033-1.263.118-1.923.264-.492.108-.948.237-1.369.382a11.82 11.82 0 0 0-1.929.225c-.497.1-.957.22-1.383.358-.622.007-1.268.068-1.934.188-.506.091-.974.203-1.405.335a11.477 11.477 0 0 0-1.932.149c-.513.082-.987.187-1.424.313-.619-.02-1.264.015-1.932.108-.519.073-.998.171-1.439.29a11.137 11.137 0 0 0-1.933.068c-.525.063-1.009.154-1.454.266a11.03 11.03 0 0 0-1.934.028c-.533.054-1.023.136-1.473.242a10.878 10.878 0 0 0-1.93-.011c-.538.043-1.032.117-1.486.216a11.264 11.264 0 0 0-3.428.141 11.138 11.138 0 0 0-3.444.075 10.545 10.545 0 0 0-1.926-.13c-.555.013-1.063.062-1.527.139a10.428 10.428 0 0 0-1.923-.168 10.66 10.66 0 0 0-1.54.111 10.197 10.197 0 0 0-1.917-.207 10.44 10.44 0 0 0-1.552.084 10.068 10.068 0 0 0-1.912-.247 10.25 10.25 0 0 0-1.564.057 10.06 10.06 0 0 0-1.908-.287c-.576-.031-1.1-.019-1.575.03a9.836 9.836 0 0 0-1.9-.325 9.972 9.972 0 0 0-1.586 0 9.698 9.698 0 0 0-1.892-.364 9.86 9.86 0 0 0-1.597-.027 9.649 9.649 0 0 0-1.885-.404 9.633 9.633 0 0 0-1.605-.055 9.452 9.452 0 0 0-1.877-.443 9.573 9.573 0 0 0-1.615-.084 9.295 9.295 0 0 0-1.865-.482 9.303 9.303 0 0 0-1.571-.114 255.954 255.954 0 0 0 64.937 13.636c.073-.007.146-.012.218-.02a10.833 10.833 0 0 0 1.69-.332c.619.029 1.255.006 1.902-.083a10.94 10.94 0 0 0 1.675-.36 10.54 10.54 0 0 0 1.902-.122 11.33 11.33 0 0 0 1.661-.389c.621.002 1.256-.048 1.901-.162a11.213 11.213 0 0 0 1.647-.416 10.77 10.77 0 0 0 1.899-.2 11.331 11.331 0 0 0 1.631-.444c.622-.023 1.256-.1 1.898-.239a11.714 11.714 0 0 0 1.617-.471 11.622 11.622 0 0 0 3.489-.776c.622-.05 1.255-.153 1.893-.317a12.018 12.018 0 0 0 1.585-.525c.62-.063 1.249-.18 1.884-.356a12.139 12.139 0 0 0 1.57-.551 11.384 11.384 0 0 0 1.877-.395c.563-.168 1.08-.362 1.555-.577.616-.09 1.24-.23 1.867-.431.557-.178 1.07-.381 1.539-.604a11.786 11.786 0 0 0 1.86-.469c.549-.188 1.054-.4 1.518-.629a11.847 11.847 0 0 0 1.853-.507 12.788 12.788 0 0 0 1.499-.654 12.132 12.132 0 0 0 1.846-.544 12.972 12.972 0 0 0 1.481-.68 12.147 12.147 0 0 0 1.835-.58 13.186 13.186 0 0 0 1.458-.701 12.397 12.397 0 0 0 1.828-.621c.521-.224 1-.468 1.44-.725a12.413 12.413 0 0 0 1.816-.657 13.33 13.33 0 0 0 1.418-.747c.602-.18 1.206-.408 1.807-.694.505-.241.969-.5 1.396-.769a12.811 12.811 0 0 0 1.796-.732c.497-.249.953-.515 1.374-.791a12.833 12.833 0 0 0 1.783-.768 13.99 13.99 0 0 0 1.351-.812 13.065 13.065 0 0 0 3.1-1.637c.588-.23 1.177-.507 1.758-.841.473-.272.906-.56 1.306-.853a13.174 13.174 0 0 0 1.743-.878c.465-.279.891-.572 1.284-.871.58-.255 1.158-.556 1.728-.914.456-.286.873-.585 1.259-.889.576-.267 1.15-.581 1.713-.95.448-.294.86-.599 1.239-.909a13.58 13.58 0 0 0 1.694-.985c.439-.3.842-.61 1.213-.925a13.713 13.713 0 0 0 1.677-1.02c.433-.308.831-.624 1.196-.946a13.837 13.837 0 0 0 1.654-1.052c.425-.315.815-.637 1.174-.965a13.776 13.776 0 0 0 1.632-1.084c.416-.32.797-.648 1.148-.98a14 14 0 0 0 1.614-1.119c.406-.326.78-.658 1.123-.994.541-.337 1.075-.72 1.594-1.153.397-.332.763-.669 1.098-1.009a15.094 15.094 0 0 0 2.647-2.212 14.54 14.54 0 0 0 1.552-1.219c.379-.342.728-.688 1.047-1.036a14.556 14.556 0 0 0 1.532-1.254c.37-.347.709-.697 1.021-1.049.516-.382 1.02-.811 1.509-1.287.36-.352.692-.706.995-1.061a14.825 14.825 0 0 0 1.485-1.318c.351-.355.673-.713.969-1.071a15.17 15.17 0 0 0 1.463-1.351c.342-.361.656-.723.944-1.085.494-.416.975-.875 1.437-1.38.333-.365.637-.73.917-1.095.487-.427.96-.896 1.413-1.412.324-.368.62-.738.892-1.107.478-.436.942-.914 1.386-1.439.314-.372.601-.745.865-1.116.47-.447.925-.935 1.359-1.469.305-.374.582-.749.837-1.122.463-.457.909-.957 1.334-1.502.296-.379.567-.757.814-1.133.454-.467.89-.975 1.305-1.527.286-.381.547-.762.786-1.14.445-.477.873-.995 1.278-1.556.277-.384.528-.768.758-1.147.437-.487.855-1.014 1.25-1.584.267-.387.511-.773.733-1.154.427-.496.836-1.032 1.219-1.61.259-.39.494-.778.708-1.162.418-.505.816-1.049 1.188-1.635.25-.392.477-.783.683-1.169a16.463 16.463 0 0 0 1.812-2.832 16.54 16.54 0 0 0 1.128-1.686c.23-.395.44-.788.629-1.176.389-.532.755-1.101 1.095-1.711.222-.397.421-.791.603-1.18a16.97 16.97 0 0 0 1.064-1.736c.213-.4.406-.797.579-1.188.367-.548.712-1.131 1.028-1.753.204-.401.388-.798.553-1.19.357-.556.691-1.148.996-1.778.194-.402.369-.799.526-1.191a17.671 17.671 0 0 0 1.463-2.994c.336-.571.647-1.178.929-1.821.176-.403.334-.801.474-1.193.325-.58.625-1.194.895-1.844.167-.404.316-.802.449-1.194.314-.587.602-1.208.86-1.864.157-.403.298-.8.422-1.191.303-.595.58-1.223.825-1.885.149-.403.281-.8.397-1.191a17.902 17.902 0 0 0 1.161-3.094c.28-.609.533-1.249.753-1.923.131-.401.246-.796.347-1.185.269-.615.51-1.263.718-1.944.122-.4.228-.794.321-1.182a18.12 18.12 0 0 0 .68-1.96c.113-.398.211-.791.296-1.176a18.3 18.3 0 0 0 .644-1.981c.105-.398.195-.789.272-1.174.233-.635.437-1.3.606-1.995.096-.396.178-.785.247-1.168.222-.64.412-1.311.568-2.011.088-.395.162-.784.224-1.166.209-.645.387-1.32.53-2.024.08-.393.145-.78.2-1.159.196-.651.361-1.331.49-2.039.072-.392.131-.778.178-1.156.183-.656.335-1.338.451-2.049.063-.39.114-.773.154-1.149a19.799 19.799 0 0 0 .542-3.205 19.161 19.161 0 0 0 .482-3.218 19.12 19.12 0 0 0 .418-3.212 19.21 19.21 0 0 0 .292-2.087c.032-.381.053-.754.065-1.121.119-.676.203-1.378.251-2.103.025-.379.038-.752.043-1.117.105-.679.177-1.381.21-2.107.018-.376.024-.745.022-1.106.093-.683.151-1.389.17-2.117.01-.375.01-.743.001-1.104.079-.683.124-1.389.129-2.116.003-.371-.004-.735-.02-1.092.066-.687.096-1.395.087-2.125a21 21 0 0 0-.04-1.079 20.27 20.27 0 0 0-.015-3.206 19.94 19.94 0 0 0 .005-2.133 21.356 21.356 0 0 0-.081-1.071c.025-.69.015-1.4-.036-2.128a23.303 23.303 0 0 0-.1-1.064 21.196 21.196 0 0 0-.196-3.174 20.365 20.365 0 0 0-.122-2.134 21.877 21.877 0 0 0-.137-1.034 20.634 20.634 0 0 0-.318-3.169 20.645 20.645 0 0 0-.204-2.126 23.11 23.11 0 0 0-.173-1.011 20.8 20.8 0 0 0-.246-2.135 22.535 22.535 0 0 0-.191-1.002 20.98 20.98 0 0 0-.496-3.114 20.734 20.734 0 0 0-.33-2.133 22.201 22.201 0 0 0-.225-.976 21.523 21.523 0 0 0-.612-3.081 21.241 21.241 0 0 0-.671-3.068 21.232 21.232 0 0 0-.728-3.049 21.7 21.7 0 0 0-.785-3.031 21.575 21.575 0 0 0-.841-3.006 21.88 21.88 0 0 0-.896-2.986 21.794 21.794 0 0 0-.956-2.973 21.841 21.841 0 0 0-1.004-2.931 22.17 22.17 0 0 0-1.066-2.923 22.107 22.107 0 0 0-1.111-2.881 22.4 22.4 0 0 0-1.171-2.866 22.235 22.235 0 0 0-1.22-2.833 22.49 22.49 0 0 0-1.274-2.807 22.81 22.81 0 0 0-1.324-2.774 22.746 22.746 0 0 0-1.374-2.743 22.699 22.699 0 0 0-1.427-2.718 22.914 22.914 0 0 0-1.471-2.676 23.048 23.048 0 0 0-1.523-2.647 23.224 23.224 0 0 0-1.568-2.61 23.01 23.01 0 0 0-1.62-2.582 23.607 23.607 0 0 0-1.662-2.539 23.449 23.449 0 0 0-1.711-2.507 23.702 23.702 0 0 0-1.748-2.46 23.625 23.625 0 0 0-1.801-2.434 23.879 23.879 0 0 0-1.839-2.387 23.79 23.79 0 0 0-1.88-2.346 23.788 23.788 0 0 0-1.923-2.308 23.69 23.69 0 0 0-1.961-2.265 24.332 24.332 0 0 0-2.002-2.223 24.012 24.012 0 0 0-2.039-2.178 24.435 24.435 0 0 0-2.081-2.139 24.497 24.497 0 0 0-2.112-2.092 24.676 24.676 0 0 0-2.152-2.047 24.265 24.265 0 0 0-2.185-2.001 24.616 24.616 0 0 0-2.227-1.962 24.498 24.498 0 0 0-2.25-1.908 24.623 24.623 0 0 0-2.285-1.862 25.19 25.19 0 0 0-2.315-1.814 24.748 24.748 0 0 0-2.341-1.763 25.231 25.231 0 0 0-2.378-1.72 25.331 25.331 0 0 0-2.396-1.664 25.387 25.387 0 0 0-2.439-1.625 25.587 25.587 0 0 0-2.447-1.562 25.594 25.594 0 0 0-2.489-1.524 25.447 25.447 0 0 0-2.496-1.463 25.75 25.75 0 0 0-2.522-1.413 25.46 25.46 0 0 0-2.547-1.362 25.909 25.909 0 0 0-2.571-1.314 25.604 25.604 0 0 0-2.582-1.258 26.116 26.116 0 0 0-2.153-1.022c-.155-.065-.31-.127-.463-.189a26.123 26.123 0 0 0-2.168-.979c-.152-.061-.305-.118-.456-.176a26.352 26.352 0 0 0-2.192-.938c-.148-.056-.296-.109-.443-.162a26.713 26.713 0 0 0-2.665-1.052 26.704 26.704 0 0 0-2.234-.854c-.145-.049-.29-.094-.433-.14a26.867 26.867 0 0 0-2.259-.814c-.143-.044-.286-.086-.428-.128a26.75 26.75 0 0 0-2.696-.887 26.365 26.365 0 0 0-2.71-.836 27.042 27.042 0 0 0-2.312-.684c-.133-.033-.266-.064-.399-.095a27.246 27.246 0 0 0-2.336-.642l-.401-.087a27.642 27.642 0 0 0-2.343-.595l-.387-.076a27.132 27.132 0 0 0-2.363-.552c-.125-.023-.25-.044-.374-.065-.766-.2-1.56-.37-2.383-.508l-.363-.057a27.174 27.174 0 0 0-2.399-.461c-.12-.018-.241-.034-.36-.05a27.535 27.535 0 0 0-2.407-.415l-.342-.04a27.798 27.798 0 0 0-2.426-.369c-.115-.013-.229-.023-.344-.034a27.684 27.684 0 0 0-2.426-.322c-.112-.01-.223-.017-.334-.026-.787-.124-1.6-.217-2.437-.274-.105-.008-.211-.013-.316-.019a27.643 27.643 0 0 0-2.455-.228l-.305-.012a28.116 28.116 0 0 0-2.463-.181l-.305-.007a28.037 28.037 0 0 0-2.462-.131l-.294-.001a28.086 28.086 0 0 0-2.469-.084c-.093 0-.185.003-.277.005a27.88 27.88 0 0 0-2.757-.026 28.129 28.129 0 0 0-2.478.012l-.259.015a28.642 28.642 0 0 0-2.486.06l-.247.02c-.81-.001-1.641.034-2.492.108-.082.007-.163.016-.245.024-.809.016-1.637.067-2.484.157l-.231.027c-.811.031-1.641.1-2.489.207l-.224.031c-.811.047-1.64.13-2.486.254l-.212.034c-.811.064-1.64.163-2.484.304-.068.011-.135.024-.202.036-.812.079-1.64.196-2.483.353l-.189.037c-.812.096-1.64.228-2.482.402l-.191.042c-.807.111-1.629.259-2.465.449l-.18.043c-.806.128-1.627.292-2.461.499l-.163.042a29.273 29.273 0 0 0-2.612.591c-.806.16-1.625.357-2.455.598l-.145.043c-.803.176-1.618.39-2.443.646l-.135.043c-.8.192-1.612.423-2.434.696l-.123.042a29.56 29.56 0 0 0-2.424.744l-.115.042c-.795.224-1.6.486-2.413.792l-.103.04ZM739.732 474.218c8.281-22.783-3.476-47.965-26.258-56.246l-148.225-53.874c-15.777-5.735-33.216 2.406-38.951 18.184-5.054 13.905.638 29.428 13.482 36.771l136.915 78.276c23.633 13.511 53.738 2.474 63.037-23.111ZM950.211 461.366c-1.476-24.196 16.942-45.007 41.138-46.483l157.421-9.603c16.75-1.022 31.17 11.733 32.19 28.489.9 14.767-8.96 28.038-23.36 31.435l-153.5 36.209c-26.496 6.25-52.232-12.875-53.889-40.047ZM872.545 692.716c-4.607-53.573-51.772-93.267-105.345-88.66-50.693 4.36-88.958 46.824-89.022 96.767l-.063-.007-1.188 65.45c-.74 40.778 26.48 75.972 64.599 86.442l-32.342 12.054c-11.601 4.183-20.503 14.576-23.074 27.936-.789 4.102 2.436 7.807 6.522 8.184h131.352c8.431-1.283 14.995-8.455 15.671-17.069l4.289-25.627c.509-2.157.781-4.421.781-6.755l-.002-.219c.16-.519.297-1.051.406-1.595l25.475-127.187-.049-.004a97.323 97.323 0 0 0 1.99-29.71ZM1041.45 606.293c-39.52-30.536-96.527-26.293-131.02 11.111-36.451 39.529-33.957 101.124 5.572 137.576a97.351 97.351 0 0 0 24.704 16.622l-.026.041 110.37 54.882.12.115 17.98 18.753c5.41 6.732 14.85 8.974 22.49 5.306l107.76-73.648c3.14-2.603 3.69-7.469.73-10.413-9.65-9.588-22.81-13.179-34.69-10.128l-54.04 13.265 4.38-6.947c24.47-38.848 14.97-89.986-21.83-117.443l-52.47-39.146-.03.054Z" />
  <path fill="#F77625"
    d="M812.508 229.845c-74.259 7.213-129.441 70.795-127.314 144.277l-.751 25.705-3.298 288.562a96.878 96.878 0 0 0 .375 13.332c5.126 52.771 52.061 91.394 104.832 86.268l191.101-18.565-.032-.329c48.649-8.811 83.199-53.64 78.339-103.73a96.264 96.264 0 0 0-5.19-23.203l-79.868-273.133-5.489-22.109c-12.056-72.518-78.445-124.289-152.705-117.075Z" />
  <path fill="#FDD4A8"
    d="M935.748 326.009c-10.269-50.673-57.165-85.396-108.629-80.433-55.524 5.355-96.181 54.726-90.787 110.245l24.654 253.785c5.767 59.367 58.569 102.818 117.936 97.051l12.191-1.184c63.743-6.193 108.126-66.178 95.405-128.945l-50.77-250.519Z" />
  <path fill="#F77625"
    d="M798.325 75.424c-1.277-7.269 3.773-14.23 11.278-15.547 33.774-5.929 61.868 16.475 67.61 49.187l12.709 73.064c3.19 18.173-9.434 35.576-28.198 38.869l-5.31.933c-18.763 3.293-34.104-9.2-37.294-27.374L798.325 75.424Z" />
  <path fill="#F77625"
    d="M726.205 132.596c-20.807 1.29-37.135 18.344-37.519 39.188l-4.209 228.977c-.172 9.341 7.663 16.841 16.987 16.263l182.73-11.326c56.276-3.488 198.386-98.686 137.796-178.758l-41.434-54.759c-27.602-36.476-71.496-53.319-113.816-48.06a21.338 21.338 0 0 0-3.182-.039l-137.353 8.514Z" />
  <path fill="#FDD4A8"
    d="M841.211 272.169c-1.251.033-2.506.087-3.765.166-57.328 3.553-100.92 52.907-97.367 110.234l2.004 32.335 207.602-12.868c80.225-11.456 139.665-74.4 135.285-145.044l-243.532 15.095c-.075.025-.15.054-.227.082Z" />
  <path fill="#1D1F20"
    d="M1085.09 258.871c-.97-15.565-14.37-27.4-29.93-26.435l-28.18 1.747 1.74 28.181c.97 15.564 14.37 27.399 29.93 26.435 15.57-.965 27.4-14.364 26.44-29.928Z" />
  <path fill="#6E0E0B"
    d="M776.243 317.227a4.27 4.27 0 0 0-4.765 4.046c-1.606 33.251 21.927 62.397 54.381 66.191 32.162 3.759 61.844-19.554 68.143-51.839a4.265 4.265 0 0 0-3.694-5.064l-114.065-13.334Z" />
  <path fill="#FB403A"
    d="M772.71 337.527c5.292 26.044 26.127 46.778 53.148 49.937 9.37 1.095 18.529-.109 26.961-3.162 1.012-20.788-13.697-39.012-33.986-41.384l-46.123-5.391Z" />
  <ellipse cx="50" cy="64" fill="#fff" rx="50" ry="64"
    transform="scale(-1 1) rotate(3.547 -3181.481 -15132.898)" />
  <path fill="#1D1F20"
    d="M853.964 237.09c1.538 24.805 18.897 43.915 38.773 42.683 19.876-1.232 34.742-22.34 33.205-47.145-1.538-24.805-18.897-43.915-38.773-42.683-19.876 1.232-34.742 22.339-33.205 47.145Z" />
  <path fill="#fff"
    d="M895.294 204.47c.513 8.269 5.762 14.672 11.725 14.302 5.963-.369 10.381-7.372 9.868-15.64-.512-8.269-5.761-14.672-11.724-14.302-5.963.369-10.381 7.372-9.869 15.64Z" />
  <ellipse cx="50" cy="64" fill="#fff" rx="50" ry="64"
    transform="scale(-1 1) rotate(3.547 -3241.483 -13195.07)" />
  <path fill="#1D1F20"
    d="M740.964 245.089c1.538 24.806 18.897 43.916 38.773 42.684 19.876-1.232 34.742-22.34 33.205-47.145-1.538-24.805-18.897-43.915-38.773-42.683-19.876 1.232-34.742 22.339-33.205 47.144Z" />
  <path fill="#fff"
    d="M782.295 212.47c.512 8.268 5.762 14.672 11.724 14.302 5.963-.369 10.381-7.372 9.869-15.64-.513-8.269-5.762-14.672-11.725-14.302-5.962.369-10.381 7.372-9.868 15.64Z" />
  <path fill="#F7AB25" stroke="#F7AB25" stroke-linejoin="round"
    d="M751.967 49.428c-2.21-3.014-6.882-2.374-8.2 1.123l-11.733 31.148a3.706 3.706 0 0 1-4.545 2.24l-53.574-16.261c-3.002-.911-6.038 1.315-6.072 4.452l-.609 55.945a3.705 3.705 0 0 1-3.54 3.661l-35.385 1.58c-3.754.168-5.807 4.452-3.585 7.483l54.863 74.833a4.706 4.706 0 0 0 6.577 1.014l118.74-87.053a4.705 4.705 0 0 0 1.013-6.577l-53.95-73.588Z" />
  <path fill="#FB403A"
    d="M701.074 102.77a8.411 8.411 0 0 0-9.593 7.033l-5.419 35.19a8.411 8.411 0 0 0 7.034 9.593l35.189 5.419a8.412 8.412 0 0 0 9.594-7.034l5.418-35.189a8.412 8.412 0 0 0-7.033-9.594l-35.19-5.418Z" />
  <path fill="#BE5B19"
    d="M1175.98 488.167c-5.01 19.893-18.89 35.734-35.42 37.078-3.11.253-4.48 3.777-10.57 2.713-6.1-1.065-6.18-4.862-9.03-6.135-15.62-6.971-22.82-26.301-20.77-46.885 2.05-20.584 7.86-26.203 7.86-26.203l69.42 12.116s3.52 7.422-1.49 27.316Z" />
  <path fill="#663514"
    d="M1146.55 414.72c4.2-2.988 21.26 1.131 15.13 6.236-4.65 3.867-6.29 6.38-7.91 9.7 18.7 4.116 34.95 12.753 31.62 31.839-1.15 6.616-6.79 6.931-6.79 6.931l-74.52-13.006s-5.2-2.206-4.05-8.823c3.38-19.326 22.01-21.772 41.25-19.152 1.16-5.283 2.73-11.919 5.27-13.725Z" />
  <path fill="#BE5B19"
    d="M570.887 406.997c7.082 17.298 5.471 36.42-5.924 46.344-2.146 1.869-1.241 5.191-6.287 7.708-5.047 2.516-7.16-.224-9.94.385-15.217 3.33-30.956-6.946-40.582-23.15-9.626-16.204-8.408-23.464-8.408-23.464l57.456-28.655s6.602 3.534 13.685 20.832Z" />
  <path fill="#663514"
    d="M509.587 369.055c1.462-4.461 16.197-10.665 14.463-3.607-1.314 5.347-1.162 8.079-.549 11.386 15.938-7.094 32.524-9.546 40.402 6.25 2.719 5.451-1.198 8.726-1.234 8.756l-61.678 30.761s-5.006 1.194-7.737-4.282c-7.978-15.996 4.363-27.866 19.893-36.352-2.007-4.501-4.444-10.215-3.56-12.912Z" />
</svg>
