<svg width="167" height="174" viewBox="0 0 167 174" fill="none" xmlns="http://www.w3.org/2000/svg">
<path d="M0 1.33009C2.08723 0.293186 5.94346 -1.0109 9.66895 1.23732L10.0439 1.47462L10.335 1.67872C13.2787 3.81633 14.1872 7.07361 14.4521 9.40431C14.6747 11.3637 14.5491 13.5038 14.2305 15.7012C14.9382 15.8188 15.6587 16.0167 16.3789 16.3193C19.2556 17.5284 20.8459 19.8226 21.6328 22.0557C23.9989 22.2956 26.2861 22.7872 28.4697 23.5625C31.6181 24.6805 33.7354 27.1536 34.5479 30.1983C35.0963 32.2538 34.9958 34.3488 34.6719 36.2256C35.3568 36.1721 36.1776 36.0796 37.1494 35.919C38.4517 35.7037 40.5045 35.5008 42.5859 36.2207C43.7422 36.6208 45.0363 37.3537 46.0947 38.6162C47.1668 39.8954 47.6833 41.3451 47.8535 42.6641C48.0174 43.9353 47.8627 45.119 47.6074 46.126C48.4328 46.1239 49.2421 46.1813 50.0186 46.3184C51.5242 46.5843 53.605 47.2655 55.2695 49.0752C57.0705 51.0334 57.5599 53.4022 57.4502 55.3555C57.3377 57.3568 57.4063 59.1099 57.6201 60.6358C57.7074 61.2581 57.9433 61.7998 58.4912 62.3897C61.6659 65.808 62.4128 70.1483 61.2236 74.3457C60.7791 75.9143 60.2943 77.4516 59.7773 78.958C60.7745 79.5811 61.9062 80.4723 62.7969 81.752C64.1227 83.6573 64.7019 86.148 63.957 88.6983C63.323 90.8676 61.9379 92.349 60.9277 93.2315C60.8896 93.2647 60.8481 93.2953 60.8096 93.3281C60.9087 94.1345 60.8713 94.943 60.7031 95.7149C60.1233 98.3755 58.2106 99.9111 57.6768 100.34C57.1377 100.773 56.5463 101.162 55.9551 101.518C55.8102 102.854 55.629 104.183 55.4102 105.505C56.4436 106.496 57.8618 107.697 59.7256 109.111C60.9877 110.069 62.2188 111.133 63.208 112.301C64.072 113.321 65.4669 115.243 65.6387 117.86C65.8575 121.202 64.0347 123.675 62.0479 125.015C60.394 126.13 58.5426 126.576 57.1914 126.801C55.7954 127.033 54.9309 127.301 54.4502 127.497C53.6722 128.956 52.7081 130.278 51.585 131.464C51.7172 131.701 51.869 131.965 52.0488 132.254C52.798 133.456 53.5088 134.806 53.959 136.237C54.389 137.605 54.7842 139.693 54.0723 141.96C53.263 144.535 51.393 146.211 49.4199 147.074C47.8955 147.741 46.3484 147.922 45.0859 147.941H44.4102C43.9575 148.846 43.3335 149.714 42.5059 150.479C41.0811 151.794 39.4331 152.453 37.959 152.751C38.2293 153.406 38.4613 154.061 38.6348 154.702C38.8547 155.516 39.0994 156.725 38.9824 158.096C38.8581 159.552 38.2586 161.673 36.3145 163.283C34.4518 164.825 32.3804 165.04 31.1328 164.997C29.8812 164.954 28.7829 164.64 27.9971 164.362C26.9533 163.993 25.8699 163.469 24.7881 162.866C24.5899 163.296 24.3501 163.728 24.0586 164.152C22.9459 165.77 21.5704 166.715 20.167 167.234C20.5151 168.606 20.7822 169.991 20.8613 171.31C20.8951 171.873 20.9115 172.643 20.8057 173.516H0V1.33009Z" fill="#8AC950"/>
<path d="M0.0615234 61.5802C3.84593 58.1744 9.47999 54.2607 15.9512 55.3361L16.5811 55.4562L16.9912 55.5509C21.189 56.6047 23.819 59.6238 25.2119 62.673C25.6406 63.6116 25.975 64.5952 26.2363 65.5988C28.21 64.9915 31.503 64.5191 34.7607 66.4572C37.0198 67.8016 38.2658 69.7188 38.959 71.4191C40.7152 70.509 42.5452 69.7888 44.3896 69.4435C46.2831 69.0893 48.8325 69.0094 51.4258 70.1652C54.0168 71.3205 55.7378 73.2999 56.7471 75.3732L56.9404 75.7892L57.1504 76.2912C58.625 79.98 58.7003 84.089 58.1104 88.1339C60.6934 87.8362 63.2261 87.7454 65.6953 87.8879C69.1074 88.085 73.941 89.5533 76.2334 94.6369C78.0538 98.6751 77.139 102.844 76.2412 105.547C77.6711 106.451 78.9993 107.491 80.207 108.671C82.8536 106.846 86.0914 105.45 89.7656 105.756L90.3066 105.813L91.0137 105.927C94.4745 106.597 96.7985 108.784 98.1387 111.043C98.5545 111.744 98.8993 112.484 99.1855 113.245C100.838 112.628 103.566 112.055 106.443 113.341C108.434 114.231 109.641 115.631 110.373 116.918C111.772 116.066 113.247 115.359 114.764 114.939C116.34 114.502 118.501 114.225 120.81 114.929C123.121 115.633 124.767 117.07 125.812 118.647L126.014 118.963L126.235 119.344C127.795 122.128 128.233 125.362 128.112 128.607C130.253 128.138 132.369 127.83 134.454 127.71L135.018 127.69C137.904 127.643 141.79 128.493 144.101 132.083C146.054 135.117 145.706 138.513 145.221 140.751C147.46 141.746 149.489 143.084 151.223 144.804C151.623 145.201 152.54 145.842 154.509 146.412C157.217 147.197 160.276 148.957 161.684 152.403C162.966 155.542 162.243 158.614 161.356 160.791C160.667 162.485 159.906 164.146 159.079 165.773C159.606 165.908 160.133 166.069 160.645 166.267C162.111 166.834 164.664 168.157 165.847 171.045C166.198 171.904 166.362 172.734 166.396 173.516H0V61.6339C0.0204549 61.6163 0.0414679 61.5983 0.0615234 61.5802Z" fill="#C3DF7F"/>
</svg>
