<svg width="83" height="403" viewBox="0 0 83 403" fill="none" xmlns="http://www.w3.org/2000/svg">
<path d="M0 24.5029C0.119512 24.6776 0.234193 24.8614 0.34375 25.0547C1.08604 26.3647 1.32351 27.7289 1.32422 28.9375C1.67193 28.9255 2.0212 28.9245 2.36816 28.9453C3.91618 29.0384 6.82048 29.6111 8.42285 32.4697C9.69253 34.7358 9.35503 37.0792 8.91309 38.5742C9.9172 38.8349 11.2067 39.3782 12.2783 40.5527C13.5887 41.9893 14.0417 43.7763 13.9795 45.3828C13.8783 47.9889 12.4447 50.1342 11.71 51.1611C11.6734 51.2122 11.635 51.2632 11.5977 51.3145C11.9227 51.4497 12.2479 51.6096 12.5664 51.7988C14.6914 53.0613 16.0173 55.3191 15.9658 58.0361C15.9603 58.3269 15.9385 58.6129 15.9043 58.8906C18.8389 59.3266 21.5979 60.2007 23.832 61.8047C25.9119 63.2984 27.4518 65.6366 27.5615 68.7139C27.6596 71.4725 26.5693 73.9578 25.4141 75.8506C23.6787 78.6938 21.7168 81.4849 19.54 84.2246C20.1417 84.941 20.8079 85.672 21.542 86.4131C22.3906 87.2696 23.9125 88.3715 26.3955 89.626C28.2605 90.5682 30.1818 91.9069 31.4961 93.8936C32.9389 96.0749 33.4389 98.741 32.7607 101.53C32.0568 104.424 30.2356 106.626 28.4131 108.191C27.3965 109.064 26.2515 109.847 25.0303 110.562C25.3594 111.038 25.6577 111.544 25.9121 112.081C26.9471 114.266 27.2155 116.902 26.2002 119.585L25.9805 120.122C23.6889 125.302 18.4511 127.142 14.542 127.844C14.5054 127.85 14.4686 127.858 14.4326 127.864C14.6326 128.277 14.8636 128.731 15.1279 129.228C15.8119 130.513 16.4092 131.82 16.8076 133.096C17.1639 134.236 17.5828 136.026 17.21 138.03C16.7351 140.581 15.0243 143.033 12.208 144.203C10.0531 145.098 8.01573 144.902 6.83691 144.703C4.6331 144.33 2.51685 143.769 0.494141 143.022C0.348934 143.438 0.185165 143.853 0 144.263V24.5029Z" fill="#A8D467"/>
<path d="M0 0C1.30336 4.27233 2.63452 8.53596 3.99512 12.7891C24.7766 143.994 16.3004 230.044 20.8809 333.539C21.3901 352.155 21.9993 370.668 22.8887 388.576H0V0Z" fill="#A06F40"/>
<path d="M0 173.049C8.02668 220.431 15.6813 288.606 55 370.944L6.06543 402.444H0V173.049Z" fill="#7F5732"/>
<path d="M1.71777 301.851C6.14962 301.962 8.14068 305.446 8.76367 306.933C9.45235 308.579 9.7106 310.411 9.83301 311.951C9.92452 313.102 10.0477 314.035 10.1846 314.771C10.1899 314.8 10.1949 314.83 10.2002 314.857C10.7283 314.884 11.2914 314.887 11.8896 314.856C12.3279 314.834 13.8288 314.494 16.7266 312.788C17.8742 312.112 19.6818 311.222 21.8477 311.142C24.5863 311.042 27.2817 312.286 28.8965 314.82C30.1535 316.794 30.3456 318.928 30.3643 320.254C30.3841 321.674 30.2007 323.178 29.9307 324.667C30.0262 324.627 30.1257 324.589 30.2246 324.547C33.9875 322.925 39.3054 321.412 43.9531 323.982L44.4014 324.244L44.959 324.615C47.644 326.534 48.7675 329.407 48.9883 332.026C49.0614 332.894 49.0417 333.77 48.9551 334.639C50.5854 334.723 53.2755 335.265 55.21 337.716C56.552 339.416 56.9135 341.26 56.9219 342.749C58.5303 342.584 60.1396 342.588 61.6455 342.889C63.1645 343.192 65.0831 343.897 66.6631 345.536C68.238 347.17 68.921 349.152 69.0518 350.985L69.0693 351.349L69.0762 351.788C69.0717 355.008 67.8728 358.106 66.1924 360.945C68.2075 361.52 70.12 362.236 71.9131 363.107C74.3722 364.303 77.4884 366.872 77.6201 371.329C77.7238 374.856 75.7844 377.645 74.293 379.368C75.6163 381.232 76.6144 383.292 77.1963 385.546C77.3162 386.009 77.7224 386.924 79.0439 388.246C80.8392 390.041 82.6358 392.914 82.167 396.612C81.8509 399.103 80.6076 401.028 79.2744 402.443H0V302.002C0.535222 301.893 1.10831 301.836 1.71777 301.851Z" fill="#57A72E"/>
</svg>
