<svg width="97" height="51" viewBox="0 0 97 51" fill="none" xmlns="http://www.w3.org/2000/svg">
<path d="M42.0205 0.86595C44.8781 -0.37506 48.4453 -0.420136 51.5801 1.64232C54.0998 3.30041 55.3712 5.71358 56.0244 7.25462C57.0291 9.62488 57.908 12.0303 58.668 14.4665C59.9211 13.8809 61.2589 13.4154 62.665 13.1648C65.9242 12.5842 69.4261 13.218 72.2637 15.5202C72.6989 15.445 73.2847 15.3051 74.0361 15.0622C75.6032 14.5558 78.0621 13.9498 80.7393 14.4519C82.2138 14.7285 83.8794 15.3665 85.377 16.6355C86.8916 17.9192 87.8299 19.5066 88.3457 21.0456C89.2739 23.8159 88.8594 26.4645 88.4912 28.0593C88.1489 29.542 87.6108 31.0628 86.9785 32.5642C88.6235 33.4335 90.1976 34.8123 91.2832 37.0007C92.588 39.6314 92.4671 42.2219 92.1006 44.0134C91.8676 45.1519 91.4882 46.2156 91.0586 47.1745C92.2459 47.8488 93.5777 48.5745 95.0605 49.3493C95.7058 49.6865 96.3388 50.0474 96.9561 50.4324H0V11.2117C0.409616 10.7837 0.879252 10.3643 1.41797 9.98118C2.57925 9.15555 4.19951 8.4002 6.19922 8.27904C6.48378 8.26182 6.76383 8.26061 7.03711 8.26927C9.4155 4.41309 13.3687 0.580155 19.6299 1.03783C26.1952 1.51838 30.444 6.47245 33.0498 10.7615C33.2584 10.4152 33.4774 10.0417 33.7061 9.64036C34.6913 7.91105 35.76 6.26922 36.9268 4.87474C37.9948 3.59841 39.6685 1.88774 42.0205 0.86595Z" fill="#8AC950"/>
</svg>
