<svg width="167" height="730" viewBox="0 0 167 730" fill="none" xmlns="http://www.w3.org/2000/svg">
<path d="M166.722 47.5483C164.126 48.6792 159.795 49.8258 155.523 47.5005L155.078 47.2437C153.804 46.476 152.377 45.8906 150.753 45.5044C146.424 44.4741 142.952 42.0742 140.483 38.7427L140.002 38.0649C138.255 35.4791 137.633 32.5549 137.459 29.9624C137.375 28.7147 137.388 27.4092 137.479 26.061C136.344 26.073 135.16 25.9447 133.961 25.5942C128.672 24.0477 126.82 19.7436 126.318 16.6938L126.236 16.103C125.997 14.0349 125.591 12.5516 125.161 11.519C122.355 11.3172 119.287 10.354 116.83 7.97803C116.229 7.39593 115.716 6.77905 115.283 6.14502C112.102 7.69874 108.975 8.93364 106.047 9.53955C103.445 10.0778 99.5991 10.4094 96.0186 8.54248L95.3066 8.13916C91.8642 6.02828 90.4555 2.84367 90.0605 -0.000488281H166.722V47.5483Z" fill="#57A72E"/>
<path d="M166.722 706.98C157.339 706.943 147.955 706.906 138.572 706.868C138.206 706.984 137.816 707.053 137.408 707.053H4.53416C-0.0511174 707.053 -1.79839 697.203 2.32713 695.202C18.3243 687.444 36.7284 675.894 52.3105 659.891C79.0728 632.405 108.212 615.79 119.625 569.198C125.667 519.298 144.976 385.282 166.722 270.418V706.98Z" fill="#C28D53"/>
<path d="M165.375 0C165.816 0.856111 166.264 1.69924 166.722 2.52734V51.8223C157.144 38.9393 147.467 21.591 139.693 0H165.375Z" fill="#C28D53"/>
<path d="M166.722 519.646C156.189 541.254 143.011 561.58 125.248 579.365C119.657 585.954 114.284 592.057 108.371 598.588C112.985 590.185 116.836 580.588 119.626 569.2C120.948 558.279 122.36 547.366 123.888 536.45C143.222 511.064 155.622 481.667 166.722 450.85V519.646Z" fill="#A06F40"/>
<path d="M166.722 729.67C156.83 729.662 146.803 728.178 142.336 724.895C139.654 722.942 139.009 720.432 140.092 717.896C144.589 709.777 141.518 700.239 131.819 694.125C129.907 692.984 129.476 690.827 130.886 689.426C132.297 688.027 135.574 687.36 138.02 687.97C145.26 689.914 151.612 693.013 156.671 696.808C159.307 690.97 162.658 685.236 166.722 679.746V729.67Z" fill="#8AC950"/>
</svg>
