<svg width="73" height="95" viewBox="0 0 73 95" fill="none" xmlns="http://www.w3.org/2000/svg">
<path d="M72.2402 94.293H0.284169C0.0651862 93.3501 -0.0379644 92.3276 0.0126846 91.2217C0.165634 87.8859 0.73695 84.6085 1.71874 81.4062C3.16942 76.6751 6.34715 73.0254 10.1846 70.2744C13.1407 68.1553 16.0189 66.2495 18.8154 64.5664C18.8253 64.5605 18.835 64.5528 18.8447 64.5469C18.8938 64.4085 18.9452 64.2708 18.9951 64.1328C18.5532 63.6119 18.0432 63.035 17.4531 62.4062C16.1039 60.9687 14.8546 59.4708 13.875 57.9482C12.9904 56.5732 11.8176 54.4113 11.5937 51.7686C11.3137 48.4593 12.616 45.0464 15.6387 42.8477C17.1561 41.7442 18.7852 41.1928 20.1875 40.9092C20.2958 37.1804 21.3291 33.4437 23.8701 30.2168C26.3838 27.0251 29.6066 24.664 33.3564 23.1465C37.8955 21.3101 42.7558 21.4219 47.3701 22.498C48.8356 22.8398 50.1665 23.1003 51.3662 23.2939C51.8733 20.6871 53.1654 17.1052 56.748 14.9346C58.5668 13.8329 60.383 13.4247 62.0664 13.4141C62.1889 11.91 62.3978 10.4333 62.7412 9.05957C63.1461 7.44037 63.9797 4.93408 66.0127 2.90039C67.762 1.15097 69.9595 0.183408 72.2402 0V94.293Z" fill="#6DBB3C"/>
</svg>
