<svg width="189" height="136" viewBox="0 0 189 136" fill="none" xmlns="http://www.w3.org/2000/svg">
<path d="M152.417 55.8389C154.893 55.823 156.781 56.9095 158.014 57.9473L158.503 58.3858L158.988 58.8633C160.561 60.4465 162.017 62.304 163.386 64.3731C163.964 63.9064 164.591 63.4792 165.27 63.1172C167.33 62.019 169.675 61.6277 172.011 62.1338C172.053 62.0862 172.098 62.0356 172.144 61.9815C173.638 60.2074 177.395 56.782 182.48 58.6631C184.563 59.4337 185.953 60.8616 186.818 62.0186C187.694 63.1896 188.35 64.5044 188.862 65.7647V135.839H0C0.248933 134.996 0.632983 134.148 1.19336 133.32C3.12026 130.476 6.10945 129.406 8.28516 128.973C8.77565 128.875 9.25274 128.77 9.71875 128.671C8.78736 127.289 7.92465 125.832 7.35352 124.393C6.93147 123.329 5.84378 120.333 7.33203 117.223C9.24666 113.222 13.2433 112.832 14.8535 112.872C16.636 112.917 18.4129 113.43 19.8682 113.948C20.955 114.335 21.854 114.604 22.5801 114.779C22.6008 114.784 22.6223 114.788 22.6426 114.793C22.8758 114.325 23.0992 113.815 23.3076 113.26C23.4445 112.895 23.7292 111.433 23.2607 108.131C23.0722 106.802 22.9423 104.787 23.7031 102.75C24.6597 100.19 26.8201 98.2037 29.7285 97.6553C32.0148 97.2244 34.0594 97.8249 35.3115 98.3008C36.5781 98.7824 37.846 99.4628 39.0732 100.218C39.0718 100.195 39.0718 100.171 39.0703 100.148C38.7874 95.9754 39.1134 90.3084 43.2559 86.7686L43.7793 86.3506C46.4248 84.3864 49.4894 84.2201 51.9893 84.7715C52.7316 84.9353 53.4606 85.1674 54.1719 85.4493C54.7333 83.8728 55.9629 81.6695 58.5928 80.4883C60.353 79.6979 62.041 79.6809 63.4199 79.9336C63.576 78.4691 63.8727 77.0425 64.3877 75.75C64.9461 74.3491 65.9611 72.5987 67.8262 71.334C69.8344 69.9728 72.0741 69.6819 74.0264 69.9864C77.0346 70.4558 79.8196 71.9947 82.3369 73.9659C82.9852 72.2698 83.7096 70.6659 84.5156 69.1661L84.7744 68.7081C86.1568 66.3917 88.7974 63.7747 92.9717 63.8526C96.2728 63.9145 98.8429 65.7404 100.502 67.2422C102.17 66.0408 103.998 65.0938 105.984 64.4659C106.229 64.3884 106.945 64.0649 108.011 62.7276L108.329 62.3428C109.985 60.4293 112.549 58.6724 115.988 58.7305C119.301 58.7869 121.864 60.5336 123.538 62.0645C124.567 63.0052 125.582 63.9678 126.593 64.9424C126.748 64.6869 126.911 64.4335 127.087 64.1885C128 62.9148 129.775 61.0337 132.659 60.5381C135.692 60.0176 138.073 61.3325 139.439 62.4542C140.715 63.5013 141.674 64.8103 142.396 65.9756C143.233 63.3533 144.406 60.5634 146.262 58.6172C147.463 57.3581 149.532 55.8576 152.417 55.8389Z" fill="#E2EBA3"/>
<path d="M188.862 0.00499118V135.839H50.0479C50.3772 134.654 50.914 133.553 51.5938 132.57C53.3556 130.025 55.8841 128.077 58.7188 126.543C58.5942 126.243 58.482 125.928 58.3887 125.598C57.6064 122.833 58.3442 120.047 60.1768 118.028C60.4837 117.69 60.8091 117.389 61.1406 117.119C61.0576 117.052 60.9741 116.986 60.8936 116.919C59.9352 116.12 57.9837 114.384 57.2676 111.749C56.8219 110.109 56.8601 108.105 57.8779 106.201C58.748 104.575 60.0229 103.612 60.9912 103.062C60.2252 101.675 59.3032 99.2673 60.1836 96.4523C61.2556 93.0257 64.1292 91.6464 65.6582 91.1378C66.0547 91.006 66.459 90.8974 66.8643 90.8087C66.6275 89.516 66.6109 87.9662 67.1836 86.336C68.5211 82.5298 71.7986 81.1458 74.1348 80.6163C74.246 78.9652 74.7598 77.2121 75.9795 75.5851C77.9979 72.8929 80.9514 71.9129 83.1709 71.5401C83.5397 71.4782 83.9012 71.4151 84.2549 71.3497C83.3354 70.0551 82.4833 68.6931 81.8994 67.3292C81.4233 66.2166 80.3067 63.3034 81.6572 60.1915C83.3678 56.2511 87.1768 55.5861 88.877 55.5265C90.6841 55.4633 92.5021 55.8811 93.9932 56.3243C95.0712 56.6448 95.9611 56.8616 96.6787 56.9952C96.8624 56.5305 97.0314 56.0277 97.1826 55.4864C97.2784 55.1415 97.4352 53.6971 96.6406 50.4835C96.3176 49.1769 95.9843 47.1832 96.5381 45.0773C97.2326 42.4373 99.1756 40.2518 101.996 39.4064C104.22 38.7399 106.313 39.1184 107.612 39.4601C108.916 39.8028 110.239 40.3427 111.532 40.9591C111.529 40.9421 111.529 40.9234 111.526 40.9064C110.818 36.9078 110.535 31.448 113.951 27.5079L114.292 27.1319L114.771 26.6632C117.205 24.4347 120.245 23.9533 122.805 24.2589C123.599 24.3538 124.385 24.5252 125.156 24.753C125.561 23.1419 126.589 20.7436 129.203 19.3165C131.011 18.3296 132.803 18.233 134.244 18.4308C134.321 16.8742 134.556 15.345 135.046 13.9513C135.555 12.5032 136.513 10.7058 138.345 9.36925C140.178 8.03156 142.239 7.62457 144.085 7.75401L144.451 7.78722L144.881 7.84191C147.985 8.28813 150.837 9.84579 153.395 11.8321C154.187 9.93818 155.096 8.15648 156.14 6.50792L156.43 6.06944C157.971 3.85783 160.783 1.41313 164.949 1.76085C168.471 2.055 171.026 4.30255 172.569 5.97765C174.598 4.8637 176.79 4.10872 179.129 3.80089C179.669 3.72972 180.688 3.41085 182.226 2.25401C183.906 0.989649 186.205 -0.0823804 188.862 0.00499118Z" fill="#A8D467"/>
</svg>
