<svg width="651" height="351" viewBox="0 0 651 351" fill="none" xmlns="http://www.w3.org/2000/svg">
<path d="M61.2373 0.0276379C69.6524 -0.51781 75.8316 7.12036 80.3564 13.1995C84.2165 9.73455 89.3698 7.85868 94.5723 8.71611C98.7714 3.43308 104.818 -0.115885 111.726 2.05889C115.256 3.17113 117.687 5.4359 119.222 7.28936C121.611 10.1757 122.712 13.7067 124.781 16.762C128.2 17.2497 131.199 18.6021 133.793 20.4202C135.509 18.2322 137.386 16.2247 139.461 14.5804C142.422 12.2344 146.439 10.115 151.318 10.0755C153.639 10.0568 155.798 9.27997 157.928 8.43779C160.945 7.32407 164.677 7.03666 168.42 8.65361C174.498 11.2797 177.337 17.544 178.76 23.6224C181.805 20.4875 184.668 17.1657 188.999 15.7972C193.856 14.2632 199.181 15.6519 202.656 19.3792C207.035 24.0767 207.502 30.7983 207.816 36.8772C208.693 36.9221 209.592 37.0383 210.506 37.2386C214.715 38.1617 216.516 41.7722 219.931 43.138C228.075 40.8275 235.493 36.8847 244.245 37.6058C251.076 38.1689 255.316 42.7751 257.269 47.4651C259.257 45.9078 261.247 44.5699 263.217 43.5452C266.582 41.7949 273.283 39.2835 279.746 43.1839L280.857 43.9202C288.246 49.2856 288.541 59.0907 287.351 67.2962C293.124 68.2554 297.751 72.3823 299.691 77.889C303.636 78.2889 307.448 79.1083 311.088 80.4007C316.336 82.2643 319.865 86.3876 321.22 91.4632C322.134 94.8898 321.968 98.3823 321.428 101.511C325.901 101.162 330.191 99.9701 334.62 101.502C336.548 102.169 338.704 103.39 340.469 105.494C343.402 108.994 344.091 113.671 342.99 118.014C347.705 118.002 352.478 119.36 355.763 122.931C358.765 126.195 359.582 130.143 359.399 133.4C359.202 136.919 358.484 142.272 361.134 145.125C366.426 150.824 367.672 158.06 365.689 165.057C364.949 167.672 364.14 170.233 363.278 172.744C364.941 173.783 366.827 175.27 368.312 177.404C370.522 180.58 371.488 184.732 370.246 188.984C369.35 192.05 367.406 194.648 364.999 196.7C365.736 202.691 361.757 207.434 356.907 210.353C356.666 212.58 356.363 214.796 355.998 216.999C360.143 220.975 365.269 223.927 368.997 228.328C370.437 230.029 372.762 233.233 373.048 237.597C373.413 243.167 370.375 247.288 367.062 249.522C363.134 252.171 358.609 251.94 354.398 253.659C353.101 256.092 351.494 258.296 349.621 260.274C351.075 262.882 352.673 265.352 353.578 268.232C354.295 270.512 354.953 273.991 353.767 277.77C352.418 282.063 349.301 284.857 346.012 286.296C343.356 287.458 340.523 287.742 337.66 287.742C335.549 291.962 331.505 294.83 326.906 295.759C328.069 298.577 328.875 301.595 328.613 304.668C328.406 307.096 327.406 310.632 324.165 313.317C321.06 315.887 317.608 316.245 315.528 316.173C311.749 316.042 308.202 314.431 304.951 312.62C303.428 315.924 300.679 318.633 297.247 319.904C297.827 322.19 298.272 324.497 298.404 326.696C298.536 328.897 298.518 332.987 296.063 336.731C292.392 342.33 285.431 343.757 279.426 341.573C278.043 344.9 275.874 348.056 272.524 350.306H241.189C240.289 350.017 239.396 349.725 238.514 349.433C235.835 348.545 234.777 348.822 234.686 348.85C233.332 349.264 232.009 349.752 230.713 350.306H0V8.97979C0.191409 8.96151 0.384755 8.94648 0.580078 8.93486C8.08864 8.48904 13.6888 13.5087 19.0654 17.9866C21.0546 14.1249 24.3757 10.9719 28.6875 9.92998C35.6968 8.23665 41.6736 12.5422 45.5381 17.9651C46.6665 13.498 48.3396 8.70411 51.2539 5.26006C53.1334 3.03928 56.435 0.339558 61.2373 0.0276379Z" fill="#8AC950"/>
<path d="M277.489 165.336C292.647 162.35 296.147 177.171 300.72 187.499C309.429 185.639 313.171 176.341 321.525 173.569C336.451 168.619 344.207 183.093 345.727 195.342C353.02 188.836 362.211 183.043 372.434 184.742C381.303 186.425 387.358 193.321 389.579 201.849C398.197 199.197 407.354 203.126 410.789 211.551C417.181 208.239 424.694 206.396 431.57 209.46C442.969 214.542 444.283 228.652 442.713 239.416C456.717 237.801 474.339 240.803 474.669 258.264C480.601 259.182 485.472 263.012 487.997 268.438C488.99 270.572 488.455 276.664 490.244 275.133C495.915 270.275 504.463 264.566 514.889 265.335C522.672 266.063 529.453 270.496 532.542 277.777C539.953 275.323 549.081 276.98 553.507 283.879C559.462 280.665 566.35 278.76 573.066 280.575C583.421 283.373 587.168 293.318 586.751 303.296C601.262 300.481 623.975 302.388 618.812 323.473C626.724 326.588 646.355 335.643 649.666 342.828C650.811 345.313 651.101 347.823 650.841 350.306H28.3564C31.3576 341.41 42.9889 337.377 52.126 335.191C46.5867 328.943 40.8167 319.788 43.2217 309.142C45.0506 301.987 49.8187 296.761 56.6445 293.96C36.0198 257.486 76.4266 259.216 98.4951 251.482C97.06 239.936 94.7748 224.388 102.256 214.346C110.673 203.049 125.753 204.884 137.134 209.693C140.794 203.033 148.491 199.722 155.854 201.43C155.924 196.734 156.838 191.949 159.719 188.113C164.212 182.13 172.208 180.306 178.984 183.234C184.022 171.661 197.73 169.591 206.905 177.575C214.108 169.767 225.438 170.344 233.205 177.148C243.327 170.777 253.643 175.595 261.41 183.125C264.201 175.384 268.631 167.083 277.489 165.336Z" fill="#C3DF7F"/>
<path d="M429.372 302.557C428.982 299.918 431.478 296.292 434.414 297.642C436.216 298.476 436.607 300.972 437.19 302.932C441.654 317.359 442.757 333.888 441.262 350.307H416.047C416.225 342.219 414.055 334.291 408.81 326.908C407.71 325.369 408.031 322.932 409.164 321.506C415.584 313.431 427.122 337.32 428.334 340.786C430.813 327.949 431.195 314.965 429.372 302.557Z" fill="#A8D467"/>
<path d="M443.002 350.307C447.556 347.419 457.301 342.288 458.283 348.605C458.368 349.147 458.327 349.732 458.191 350.307H443.002Z" fill="#A8D467"/>
</svg>
