<svg width="650" height="805" viewBox="0 0 650 805" fill="none" xmlns="http://www.w3.org/2000/svg">
<rect x="-0.000366211" y="362" width="119" height="238" fill="#307918"/>
<path d="M321.003 0C321.547 0.874067 322.032 1.80445 322.447 2.79785C325.217 9.4177 323.82 15.7574 321.41 20.4834C320.234 22.6704 318.711 25.0803 318.789 27.6494C318.93 32.2582 318.226 36.7449 316.828 41.0586C320.866 43.4713 326.268 47.5859 328.392 54.3447C332.235 66.5797 322.799 75.3053 314.082 81.8154C319.529 85.8638 324.41 90.9026 327.053 97.2324C331.763 109.164 323.099 119.113 312.504 123.218C316.148 130.895 313.505 139.761 306.653 144.667C311.376 150.834 313.593 158.903 310.564 166.366C308.378 171.478 304.518 175.467 299.746 178.261C295.841 180.546 291.336 182.118 286.685 183.26C291.813 187.467 296.733 192.703 297.811 199.515C298.754 205.482 296.509 211.067 292.245 214.801C285.785 220.455 275.956 218.882 270.309 225.468C273.856 229.672 278.262 233.021 280.828 238.014C282.491 241.25 285.037 248.721 279.798 255.783C274.535 262.876 265.384 263.52 257.319 262.816C261.134 272.528 261.321 283.466 252.29 290.332C255.775 299.618 252.697 310.03 243.487 314.355C245.897 320.188 245.829 326.941 241.93 332.163C238.419 336.864 233.526 338.347 230.231 338.829C231.004 345.873 227.24 352.724 220.64 355.513C216.326 357.335 211.57 357.141 207.088 356.14C206.915 363.331 202.268 369.742 195.396 371.982C196.778 378.394 197.159 384.85 195.695 390.911C194.332 396.554 190.885 401.874 184.883 404.953C173.896 410.587 159.173 405.921 148.074 402.92C142.718 413.534 144.479 426.464 138.096 436.36C134.885 441.337 129.993 444.833 123.958 446.031C115.239 447.762 106.9 443.838 100.188 438.582C96.1946 445.033 89.6487 449.091 82.0059 449.393C71.1128 449.495 63.126 441.695 57.8672 432.936C52.8068 438.981 47.9808 445.96 39.8857 448.048C34.478 449.442 28.321 448.213 23.8535 443.533C17.8178 437.209 17.3508 426.696 17.2324 418.46C10.9627 419.052 4.56354 417.45 0 413.349V148.111C4.35139 146.505 8.92378 145.154 13.2334 142.998C13.719 141.714 14.2126 140.431 14.71 139.146C10.8989 135.276 6.50662 132 3.44238 127.441C2.41638 125.915 0.326903 122.482 0 118.043V115.683C0.0980846 114.384 0.363426 113.02 0.854492 111.612C3.17614 104.959 9.42309 101.253 16.1191 100.417C14.586 89.2387 23.553 81.0364 34.21 79.7607C51.4406 77.7001 37.3529 40.6439 42.7275 29.2773C45.8791 22.6137 51.2905 19.0227 56.9424 17.1758C55.2679 11.0849 56.5001 4.47474 60.7383 0H321.003Z" fill="#57A72E"/>
<path d="M381.819 0C381.935 0.450726 382.035 0.909536 382.115 1.37793C384.491 15.3349 370.848 22.2871 360.108 26.4785C363.386 29.3534 366.818 32.0048 369.158 35.7695C371.007 38.7446 373.344 44.3165 371.001 50.7607C368.907 56.52 363.817 60.2145 358.127 61.9014C362.377 70.2067 367.267 79.5381 364.088 89.0498C361.813 95.8557 356.587 99.7079 351.661 101.678C349.336 102.549 346.602 103.36 344.97 105.345C342.041 108.906 338.557 111.819 334.665 114.145C336.115 118.619 337.472 125.273 334.619 131.758C329.455 143.497 316.607 143.85 305.76 143.01C307.193 149.643 307.549 156.649 305.37 163.153C304.058 166.83 301.514 170.422 297.4 172.77C291.146 176.338 283.804 175.495 277.31 173.13C274.997 181.307 267.169 186.238 258.782 185.419C258.275 193.17 254.631 200.702 247.438 204.325C242.426 206.733 236.894 207.194 231.463 206.153C227.019 205.302 222.594 203.518 218.341 201.314C219.43 207.858 219.685 215.038 216.011 220.874C212.792 225.986 207.425 228.712 201.757 228.714C193.172 228.716 186.81 221.06 178.224 222.297C178.125 227.797 179.235 233.217 177.879 238.665C177 242.196 173.996 249.495 165.402 251.36C156.771 253.233 149.459 247.691 143.854 241.852C140.33 251.673 133.268 260.028 121.951 259.248C118.459 268.532 109.285 274.341 99.5059 271.531C97.4788 277.508 92.9815 282.544 86.6084 283.907C80.8705 285.134 76.212 283.029 73.415 281.222C69.3585 287.032 62.0126 289.708 55.209 287.461C50.7629 285.992 47.3117 282.714 44.5977 279.009C39.7321 284.307 32.0137 286.073 25.3672 283.234C22.185 288.969 18.2206 294.079 13.1279 297.676C9.43168 300.286 4.91252 301.915 0 301.732V0H381.819Z" fill="#307918"/>
<path d="M649.48 0C536.621 51.1058 427.205 27.9772 336.86 59.3584C322.047 66.7438 307.185 76.1439 292.401 86.8516C255.657 113.466 222.762 145.014 190.078 176.368C181.694 184.585 173.331 192.976 165.306 201.325C172.895 232.862 185.611 263.152 191.52 295.221C221.77 459.412 207.001 568.262 212.764 698.331C213.404 721.728 214.171 744.993 215.29 767.5H0V762.479C1.09859 739.351 2.51091 716.602 4.02148 694.042C11.9674 570.352 27.4702 422.907 23.54 335.603C19.3541 316.337 15.5947 297.056 12.2295 277.766C8.14984 274.096 4.07432 270.428 0 266.763V0H168.693C159.087 23.5845 149.481 47.1694 139.875 70.7539C142.843 90.1478 146.128 109.464 149.76 128.7C200.739 85.2445 248.136 41.5666 317.324 10.7129C335.16 6.0874 353.129 2.63922 371.069 0H649.48Z" fill="#A06F40"/>
<path d="M0.00012207 137.213C24.7224 190.089 54.0701 239.656 92.0001 270C205.323 360.658 226.572 642.238 317.189 805H0.170044C22.7198 728.203 82.208 486.564 0.00012207 306.22V137.213Z" fill="#7F5732"/>
<path d="M89.0112 0C93.0593 16.3386 97.3139 32.6376 101.66 48.8701C115.664 102.372 143.263 152.324 167.498 204.042C170.837 215.592 174.312 227.115 177.938 238.606C178.742 243.753 179.511 248.853 180.255 253.906C148.359 188.415 102.651 129.005 77.0044 56.8193C70.3326 37.9792 63.748 19.0605 57.4468 0H89.0112Z" fill="#7F5732"/>
<path d="M315.513 0.000366211C311.762 4.35998 307.094 7.83317 301.407 9.49939C300.726 9.69896 300.052 9.85015 299.39 9.96716C299.384 10.0487 299.383 10.1307 299.377 10.2123C298.937 15.4139 297.322 20.316 294.458 24.7064C291.714 28.9112 287.859 31.7157 283.639 33.5414C283.969 35.296 284.088 37.3509 283.619 39.5414C282.599 44.2976 279.315 47.6541 275.383 49.223C272.15 50.5128 268.917 50.4595 266.688 50.2416C264.258 50.0039 261.701 49.4246 259.158 48.6869C258.151 48.3949 257.242 48.1555 256.426 47.9623C256.353 48.0516 256.278 48.1406 256.204 48.2299C256.203 48.2939 256.204 48.3589 256.205 48.4242C256.278 52.4998 256.394 56.801 256.552 61.3246C256.762 67.3073 255.776 73.3543 252.603 78.6302C250.503 82.1209 248.104 85.373 245.41 88.3705C240.27 94.0886 233.229 93.6407 229.196 92.6967C225.822 91.9066 222.324 90.3323 218.855 88.3998C218.894 88.8279 218.929 89.2725 218.978 89.7299C219.406 93.6799 219.42 97.9734 218.229 101.946C216.934 106.264 214.005 110.67 208.691 112.863C201.229 115.94 193.467 113.707 187.447 110.823C184.708 109.51 182.579 108.751 180.99 108.338C179.996 108.861 178.998 109.379 177.994 109.891C178.034 111.148 178.127 112.645 178.302 114.405C178.581 117.199 178.695 120.185 178.279 122.925C177.972 124.947 176.833 130.699 171.176 133.674C165.053 136.893 159.467 133.97 157.538 132.779C157.003 132.449 156.484 132.085 155.975 131.703C155.018 133.036 153.75 134.356 152.067 135.435C144.116 140.534 136.52 135.475 133.907 133.414C132.272 132.125 131.157 131.509 130.537 131.243C128.412 131.655 126.332 132.22 124.298 132.954C124.22 132.983 123.196 133.395 121.552 135.73C118.858 139.559 115.989 143.186 112.942 146.603C109.117 150.892 104.395 154.287 98.693 155.865C92.8173 157.49 87.6815 155.956 83.5406 153.339C82.7745 154.444 81.8585 155.547 80.7467 156.521C77.6633 159.22 72.5739 161.227 67.0221 158.98C62.862 157.296 60.5198 153.931 59.3824 152.052C58.2352 150.156 57.286 147.989 56.4606 145.762C54.0167 146.383 51.2009 146.379 48.108 145.161C47.2811 144.835 46.5234 144.443 45.8297 144.016C44.8773 145.869 43.8518 147.614 42.7379 149.101C41.9093 150.207 40.6781 151.655 38.9879 152.871C37.3092 154.079 34.2215 155.72 30.1793 155.286C25.9512 154.83 23.16 152.385 21.6647 150.47C20.2557 148.666 19.5004 146.761 19.068 145.433C18.7176 144.357 18.4432 143.204 18.2194 142.015C18.195 142.025 18.1706 142.039 18.1461 142.048C15.7995 142.976 12.8698 143.55 9.65588 142.978C7.7606 142.64 6.0738 141.953 4.60315 141.06C4.50874 141.118 4.40721 141.181 4.30432 141.247C3.13706 142.003 1.68401 142.822 -0.000366211 143.445V0.000366211H315.513Z" fill="#205F10"/>
<path d="M10.5247 544.065C16.1486 543.077 22.064 544.878 26.1194 549.643C30.8062 555.151 31.3703 562.731 31.0852 569.647C39.9645 564.349 50.5949 560.124 60.7649 564.557C68.8048 568.062 72.8435 576.208 73.2161 584.61C82.354 583.771 90.6107 589.716 92.0413 598.868C99.0696 597.074 106.877 596.978 112.906 601.59C122.836 609.187 120.845 623.258 116.796 633.376C118.053 633.529 119.296 633.71 120.525 633.917C124.19 627.98 131.91 626.166 137.925 629.654C139.164 627.4 141.842 623.666 146.929 622.473C152.301 621.214 157.445 623.669 160.956 627.638C167.61 621.95 176.781 623.726 182.228 630.241C191.339 626.306 198.92 631.865 204.064 639.097C207.59 633.445 212.479 627.542 219.817 627.725C232.351 628.038 232.25 640.488 233.957 649.406C241.187 649.771 246.226 643.476 253.373 643.213C257.939 643.046 262.431 645.12 265.123 649.345C268.239 654.237 267.837 660.299 266.847 665.758C274.217 662.664 282.764 660.492 290.223 664.617L291.901 665.672C297.262 669.504 299.189 676.073 298.561 682.383C305.934 682.759 311.801 688.45 311.843 695.903C317.637 695.31 323.848 696.157 328.081 700.547C335.046 707.773 331.75 718.71 327.296 726.236C335.95 728.705 346.036 733.064 346.346 743.544C346.519 749.424 343.286 754.073 340.8 756.946C344.127 761.631 344.647 767.673 348.72 771.746C351.713 774.739 354.707 779.527 353.926 785.693C352.434 797.446 342.259 800.872 333.283 805H0.000244141V549.229C3.22451 546.977 6.49198 544.773 10.5247 544.065Z" fill="#57A72E"/>
</svg>
