<svg width="299" height="99" viewBox="0 0 299 99" fill="none" xmlns="http://www.w3.org/2000/svg">
<path d="M85.8111 6.3906C88.9313 2.75717 94.6386 -0.540146 102.256 0.0741954C114.991 1.10173 121.27 12.2401 129.814 20.0146C132.817 19.702 135.853 19.4502 138.92 19.2715C144.124 12.5879 152.103 8.60791 160.646 10.6689C166.532 5.98091 175.185 1.91919 186.026 4.93748C197.393 8.10325 202.712 16.8745 205.426 24.0644C211.475 19.1443 217.554 14.151 225.587 13.1123C231.171 12.3907 237.481 13.6677 242.104 17.833C247.95 23.1003 248.453 31.7125 248.977 39.0664C257.263 37.8016 266.603 39.22 272.491 45.707C277.769 46.0684 282.78 45.374 287.907 47.3496C293.239 49.4044 297.855 53.8393 298.428 59.7568C299.037 66.0477 294.983 71.5305 290.963 75.9179C293.483 77.7954 295.654 80.3839 296.609 83.9609C298.009 89.2075 295.722 94.2228 292.261 98.0556H7.49566C7.21977 93.8547 9.14297 89.7823 12.4341 86.9404C8.49451 84.3499 4.29055 81.4209 1.83648 77.2793C0.750945 75.4469 -1.18162 71.2522 0.98003 66.3672C4.97481 57.3426 16.0776 56.7718 24.4986 57.8193C23.7905 51.0227 27.7325 45.0706 33.6666 42.0156C33.4878 38.5255 33.2735 35.2546 34.6656 31.9228C36.2467 28.1391 39.7192 24.3559 45.5474 22.5244C54.3689 19.7527 62.1748 23.1804 70.2222 26.3486C73.0327 24.0634 76.2238 22.1343 79.7857 20.6142C82.3045 15.926 82.153 10.6516 85.8111 6.3906Z" fill="#8AC950"/>
</svg>
