<svg width="565" height="752" viewBox="0 0 565 752" fill="none" xmlns="http://www.w3.org/2000/svg">
<path d="M541.099 329.117C545.717 324.497 552.003 322.711 558.202 324.981C560.491 325.819 562.537 327.13 564.382 328.759V752H541.822C541.524 751.792 541.236 751.648 540.959 751.58C540.87 751.719 540.782 751.86 540.692 752H464.861C456.708 743.512 454.298 732.082 450.285 720.828C441.818 725.137 431.612 724.034 425.482 715.422C420.042 719.836 413.734 723.566 406.914 722.882C400.528 722.24 395.219 717.892 392.41 711.432C390.05 706.001 390.385 700.566 390.129 694.753C383.136 689.448 380.103 679.962 380.28 670.548C372.072 671.879 362.351 674.146 354.78 668.989C349.005 665.054 346.246 658.377 345.928 651.93C345.443 642.09 350.215 633.805 354.473 625.85C345.459 624.936 333.973 621.441 328.164 609.095C324.193 600.651 324.88 590.639 328.811 582.41C320.082 578.054 311.914 570.804 309.305 559.617C303.157 533.237 329.264 523.229 341.887 508.08C335.3 495.211 326.771 477.27 330.759 461.735C332.856 453.569 337.833 448.1 343.489 445.078C350.386 441.648 357.731 440.681 365.183 441.395C366.737 431.755 373.828 424.718 382.173 424.264C380.848 418.538 380.364 412.411 382.231 406.754C385.129 397.975 392.894 393.054 400.76 394.336C401.249 390.265 402.831 383.645 408.319 379.119C414.179 374.289 421.622 374.61 427.882 378.063C433.013 366.359 444.707 363.144 454.646 368.517C457.084 365.291 460.368 362.499 464.717 361.068C471.969 358.684 478.583 361.502 484.977 365.29C485.197 355.074 486.932 343.652 495.228 338.083C503.487 332.54 511.163 336.967 514.332 339.498C519.316 343.48 522.309 349.509 526.339 354.576C534.204 348.637 534.063 336.157 541.099 329.117Z" fill="#439122"/>
<path d="M254.697 615C263.096 614.946 268.872 623.012 272.983 629.226C277.007 625.982 282.226 624.38 287.36 625.493C291.816 620.433 298.031 617.198 304.813 619.707C312.157 622.424 313.527 629.087 317.119 635.02C320.502 635.672 323.43 637.16 325.932 639.094C332.593 631.352 350.939 623.99 361.006 628.865C366.962 631.75 369.531 638.137 370.695 644.267C373.869 641.262 376.863 638.059 381.248 636.871C386.162 635.54 391.432 637.154 394.746 641.022C398.923 645.899 399.108 652.629 399.167 658.715C403.892 659.158 408.141 661.706 410.995 665.477C412.534 666.109 417.722 663.587 419.273 663.05C424.578 661.211 430.092 660.327 435.577 661.035C442.405 661.916 446.437 666.75 448.155 671.557C454.714 666.936 463.484 663.398 470.902 668.441C478.869 674.157 478.947 684.293 477.145 693.029C482.905 694.352 487.283 698.834 488.827 704.522C492.776 705.237 496.558 706.381 500.124 708.015C508.866 712.022 510.816 721.674 508.416 730.18C515.367 730.536 522.753 729.821 527.05 736.571C529.588 740.56 529.552 745.46 527.703 749.705C529.69 750 531.48 750.798 533.079 752H0C0.452167 742.76 8.38231 738.214 16.8184 736.412C13.0844 730.871 9.65908 723.973 12.8389 717.327C18.2408 706.04 29.5372 711.185 38.3623 713.276C41.5622 706.853 37.6497 699.84 40.1289 693.202C43.15 685.116 52.0043 682.942 59.4805 685.784C61.656 686.611 65.9018 691.186 65.7471 688.864C65.2754 681.907 65.8185 672.459 72.7246 666.558C78.0232 662.326 84.7631 661.92 90.9219 664.36C93.2121 657.93 99.5601 653.922 106.338 655.165C106.925 649.656 108.904 644.071 113.683 640.831C121.551 635.497 131.239 640.021 137.874 645.217C140.951 637.166 145.441 628.168 155.602 628.357C161.105 628.46 165.39 631.505 168.155 634.009C170.936 632.006 173.982 630.426 177.294 629.38C178.976 628.847 180.123 627.145 181.203 625.841C183.964 622.651 188.237 619.723 193.97 619.82C201.463 619.947 206.631 625.336 211.648 630.176C213.896 626.478 217.407 623.582 221.762 622.834C228.829 621.621 234.5 626.26 237.992 631.896C240.497 624.051 245.268 615.061 254.697 615Z" fill="#E2EBA3"/>
<path d="M564.383 752H483.122L523.684 0H564.383V752Z" fill="#7F5732"/>
<path d="M351.898 520.745C356.031 517.677 362.102 515.222 369.125 517.15C378.447 519.709 383.436 528.64 387.813 536.477C392.175 533.014 397.807 531.104 403.456 532.651C409.698 534.36 412.821 539.135 414.181 542.171C415.77 545.718 416.127 549.473 416.581 553.25C421.303 549.544 426.663 544.88 432.978 544.36C434.377 544.245 436.926 544.241 439.766 545.499C445.149 547.884 448.408 553.563 447.881 559.292C447.599 562.347 446.279 565.11 444.676 567.659C442.747 570.726 441.342 574.259 440.536 578.373C442.456 580.167 444.315 582.016 446.11 583.919C452.868 583.069 459.41 580.607 466.266 580.493C468.882 580.449 473.579 580.714 477.858 583.724C483.343 587.583 484.901 593.466 484.522 598.116C484.067 603.694 480.45 607.64 478.966 612.789C480.259 615.895 481.075 619.107 481.452 622.384C484.948 623.178 488.433 623.698 491.755 625.18C494.347 626.337 497.985 628.488 500.461 632.5C503.276 637.066 503.358 641.996 502.096 645.991C501.063 649.264 499.088 651.94 496.85 654.474C499.021 659.768 498.355 665.678 495.424 670.45C498.846 671.742 502.157 673.487 504.665 676.217C506.616 678.343 508.956 682.081 508.691 687.068C508.437 691.838 505.927 695.06 504.201 696.737C501.036 699.811 496.773 701.475 492.585 702.735C494.256 706.803 494.347 711.436 492.568 715.414C495.011 716.856 497.359 718.427 499.351 720.168C501.319 721.888 504.786 725.325 505.938 730.492C507.678 738.301 503.003 745.256 496.089 748.324C496.583 749.507 497.005 750.735 497.331 751.999H110.277C110.978 748.471 112.886 745.211 115.815 742.854C112.347 740.065 109.302 736.602 108.073 732.27C107.161 729.052 107.195 725.134 109.16 721.433C110.84 718.27 113.33 716.413 115.226 715.357C113.688 712.628 111.821 707.9 113.496 702.413C115.313 696.462 120.604 692.746 126.537 691.517C126.043 688.984 125.977 685.952 127.071 682.776C129.626 675.36 136.053 672.722 140.643 671.736C140.828 668.509 141.803 665.091 144.171 661.935C148.148 656.635 154.117 654.91 160.382 653.824C158.543 651.272 156.835 648.592 155.657 645.912C154.696 643.727 152.435 638.005 155.03 631.947C158.317 624.276 165.806 623.055 169.153 622.974C174.504 622.845 179.378 625.001 184.551 626.011C184.903 625.106 185.224 624.126 185.51 623.071C185.692 622.398 185.972 619.577 184.34 613.276C183.676 610.714 182.978 606.807 184.024 602.7C185.337 597.551 189.116 593.317 194.654 591.723C199.021 590.466 203.152 591.251 205.718 591.947C208.375 592.667 213.964 597.54 213.458 594.858C211.978 587.023 211.305 576.339 217.952 568.704L219.549 567.069C225.084 562.048 232.934 561.421 239.965 563.551C240.729 560.409 242.702 555.738 247.821 553.002C251.362 551.11 254.89 550.96 257.732 551.377C257.85 548.335 258.281 545.349 259.216 542.633C260.189 539.812 262.038 536.317 265.618 533.742C269.202 531.163 273.253 530.41 276.891 530.703L278.459 530.891C284.582 531.829 290.234 534.934 295.312 538.872C296.922 534.968 298.84 531.187 301.171 527.667C304.16 523.374 309.647 518.651 317.861 519.419C324.803 520.069 329.882 524.516 332.958 527.825C339.055 524.546 346.349 524.866 351.898 520.745Z" fill="#A8D467"/>
</svg>
