<svg width="353" height="273" viewBox="0 0 353 273" fill="none" xmlns="http://www.w3.org/2000/svg">
<path d="M352.107 272.645H180.946C180.528 271.826 180.181 270.94 179.922 269.984C178.146 263.416 181.499 258.012 184.764 252.678C182.98 250.642 181.466 248.394 180.264 245.934C176.118 244.106 171.611 244.188 167.781 241.427C164.536 239.088 161.645 234.883 162.165 229.348C163.086 219.547 173.288 215.126 179.704 209.265C179.384 207.112 179.119 204.946 178.905 202.77C175.836 201.337 173.234 200.795 171.015 200.795C168.389 200.795 165.771 200.472 163.43 199.18C162.253 198.53 159.237 196.588 158.035 192.474C156.711 187.944 158.564 184.355 159.718 182.752C161.76 179.917 164.807 178.526 168.024 177.454C166.685 175.526 165.463 173.009 165.126 169.966C164.131 160.947 171.85 153.414 178.88 149.077C180.351 148.17 185.697 145.83 186.28 144.214C185.429 139.439 186.601 134.479 189.765 130.78C185.66 126.193 181.09 121.133 180.872 114.62C180.698 109.414 183.661 104.593 188.36 102.36C192.708 100.295 197.433 100.912 202.063 101.133C200.517 98.1034 199.281 94.9478 198.842 91.8506C198.488 89.3483 198.484 85.7523 200.409 82.21C202.502 78.3582 205.93 76.2821 209.114 75.3857C211.651 74.6718 213.883 73.5359 216.036 72.0703C222.025 68.2171 229.405 68.8191 235.905 70.8623C237.093 67.8185 238.934 64.9473 241.694 62.6318C241.946 58.8792 241.046 55.2061 241.639 51.4346C242.013 49.0578 242.951 45.8479 245.454 43.0811C250.471 37.5355 257.447 37.8787 263.869 40.2754C268.144 36.8348 273.813 36.0255 279.026 37.3975C279.866 32.6354 281.176 27.9206 283.304 23.5674C284.551 21.2076 286.768 18.3491 290.582 16.8076C295.062 14.9971 299.225 16.0091 301.9 17.2207C306.141 19.1425 309.787 22.9353 312.752 26.5918C313.301 23.9293 314.088 21.2972 315.482 18.9443C316.971 16.431 319.968 12.9655 325.083 12.085C329.535 11.3191 333.884 12.975 337.258 15.8232C340.59 9.56567 343.992 2.66358 351.223 0.264648C351.519 0.166478 351.814 0.0789731 352.107 0V272.645Z" fill="#57A72E"/>
<path d="M176.249 94.2504C192.083 89.9028 198.161 106.002 201.053 117.915C207.056 112.507 215.777 106.874 225.996 108.625C233.621 110.119 239.434 115.131 242.374 122.371C249.753 118.266 258.513 115.744 266.783 118.725C286.943 125.994 279.53 149.939 283.67 166.103C295.716 166.067 312.2 166.66 320.899 176.379C330.684 187.311 325.346 202.817 317.358 213.037C325.287 220.656 323.342 232.49 315.138 239.036C316.837 246.776 312.012 253.206 305.71 256.896C305.299 259.72 304.779 262.515 304.156 265.277C306.319 267.753 308.939 270.157 311.53 272.645H25.0497C25.362 272.238 25.6742 271.833 25.9882 271.435C20.6468 270.412 15.4991 268.927 11.2714 266.572C-9.38602 255.059 1.84843 224.23 17.0839 213.308C20.5192 210.845 30.3371 207.033 31.7714 203.068C26.5351 196.896 20.1616 191.055 19.4335 182.457C18.668 173.411 25.1884 166.088 33.7597 164.355C34.1564 150.694 43.2921 139.77 55.7118 134.744C65.8658 130.636 75.517 133.341 85.7343 134.991C87.4524 126.158 94.1682 118.579 103.572 118.52C104.084 112.235 105.535 105.612 110.151 100.995C119.494 91.6505 129.355 97.6494 137.729 103.943C145.473 101.825 153.178 105.025 158.635 110.508C163.236 104.246 168.323 96.4275 176.249 94.2504Z" fill="#6DBB3C"/>
</svg>
