<svg width="478" height="865" viewBox="0 0 478 865" fill="none" xmlns="http://www.w3.org/2000/svg">
<path d="M371.891 691.334C389.099 739.878 437.742 761.528 477.169 779.79V804.583H364.422C361.108 804.583 358.539 801.686 358.937 798.396L371.891 691.334Z" fill="#A06F40"/>
<path d="M477.168 406.367C460.053 400.441 434.856 407.969 421.934 394.558C418.791 391.296 415.454 389.222 411.891 388.058C404.312 385.582 397.906 381.018 392.721 374.785C390.975 372.687 389.043 371.738 385.871 371.811C378.729 371.977 371.803 371.44 365.12 370.163C354.324 368.098 347.617 360.256 344.181 350.563C339.184 336.468 320.961 343.829 310.372 337.111C305.916 334.283 302.728 330.245 300.551 325.692C296.92 318.098 283.914 318.734 276.797 317.125C268.596 315.27 261.582 311.109 256.15 304.722C248.813 296.096 239.128 290.006 231.358 281.784C226.617 284.806 220.703 286.068 215.474 283.393C210.41 280.802 207.947 275.524 207.33 270.108C204.012 267.46 201.462 264.175 199.191 260.626C195.7 263.313 191.743 265.707 187.272 266.163C183.414 266.555 178.842 265.443 175.52 261.592C170.529 255.805 171.354 246.591 171.709 239.505C164.557 242.41 156.831 246.528 149.221 242.428C142.472 238.79 141.423 231.86 141.365 224.977C135.382 228.202 128.144 231.069 121.383 228.53C113.659 225.627 111.15 216.9 110.208 209.455C85.5049 206.263 105.938 178.786 95.6086 166.331C89.1974 167.916 83.1482 170.651 76.4358 170.866C64.704 171.24 50.346 155.027 48.5422 144.179C47.5912 137.651 49.638 131.492 52.8059 125.853C45.5961 122.587 42.5921 114.638 44.8684 107.144C45.6695 104.713 46.5049 102.278 46.6946 99.7056C41.9486 97.0335 38.5246 92.3954 37.8313 86.9624C32.9081 87.1544 28.2531 86.9606 24.2405 86.0591C19.1674 84.919 14.7259 82.3778 11.8059 78.0151C8.38831 72.4882 9.29466 66.6517 11.1379 62.4897C13.361 57.4715 17.3418 54.0723 20.7786 49.9819C19.4983 46.3015 19.6215 42.2837 20.8518 38.6128C17.4486 37.4111 14.2867 35.4171 12.1946 32.4175C8.75996 27.4903 9.13918 21.1671 12.2805 16.2427C10.9883 13.924 9.82078 12.2403 7.9856 10.2876C5.18748 7.3095 3.33192 3.77996 2.52954 -0.000488281H477.168V406.367Z" fill="#57A72E"/>
<path d="M477.168 434.955C444.089 451.919 412.266 470.921 382.422 491.519C374.548 497.042 366.557 502.912 360.15 508.241L295.459 418.669C306.196 411.66 316.257 405.902 326.318 400.367C375.37 373.934 425.532 352.214 477.168 334.975V434.955Z" fill="#A06F40"/>
<path d="M477.169 125.23C462.331 194.662 444.065 264.731 421.483 336.616C384.853 450.939 375.57 594.824 373.638 731.642C378.576 758.85 391.634 794.729 411.732 816.523C415.789 820.923 412.324 832.205 406.34 832.206H374.742C374.748 832.353 374.752 832.501 374.759 832.648C316.119 832.413 257.478 832.176 198.839 831.941C198.313 832.107 197.754 832.205 197.17 832.206H6.50558C-0.0736833 832.205 -2.58042 818.072 3.33956 815.201C26.2942 804.068 52.7023 787.495 75.0612 764.532C113.463 725.092 155.274 701.251 171.651 634.397C185.658 518.713 206.305 403.635 254.169 282.761C236.66 271.079 218.893 258.57 201.375 244.349C177.253 221.588 145.692 205.688 131.948 145.583C126.625 102.778 100.557 52.4286 72.7497 -0.000488281H195.535L186.511 47.3794C199.773 72.4033 211.458 100.1 219.814 132.214C219.677 130.088 223.774 137.729 231.483 144.361C239.048 151.317 248.995 158.664 259.693 165.646C269.886 172.293 280.735 178.667 292.047 184.919C313.053 125.729 331.758 63.5003 348.248 -0.000488281H477.169V125.23Z" fill="#C28D53"/>
<path d="M471.799 7.53528C465.861 18.8427 460.118 29.8855 454.565 40.671C403.922 139.263 355.909 239.032 317.133 342.034C276.312 440.848 263.838 564.761 179.723 648.982C171.7 658.436 163.989 667.194 155.505 676.566C162.126 664.508 167.651 650.738 171.655 634.397C173.552 618.726 175.578 603.066 177.77 587.401C232.982 514.908 248.798 419.618 288.888 330.84C332.258 227.539 384.276 129.167 438.761 32.1525C444.663 21.6845 450.745 10.9692 457.018 0.00012207H458.054C462.635 2.51214 467.218 5.0232 471.799 7.53528Z" fill="#A06F40"/>
<path d="M325.761 755.601C320.971 755.86 318.108 758.694 315.226 760.805C293.075 776.665 277.289 796.63 267.863 817.502C260.605 812.057 251.491 807.61 241.101 804.82C237.592 803.945 232.889 804.902 230.865 806.91C228.842 808.919 229.46 812.014 232.203 813.652C246.121 822.425 250.527 836.111 244.075 847.761C242.521 851.4 243.446 855.002 247.294 857.804C259.76 866.962 302.376 866.374 315.111 859.407C319.559 856.989 321.629 853.523 321.301 849.797C321.193 848.736 321.096 847.69 321.02 846.673C318.108 826.826 335.251 811.085 361.453 801.254C363.133 800.627 364.406 799.529 365.053 798.29C365.697 797.045 365.662 795.758 364.895 794.628C364.128 793.497 362.677 792.591 360.806 792.027C358.938 791.468 356.799 791.296 354.922 791.632C336.002 795.16 319.502 800.719 305.731 809.863C310.155 793.442 319.504 777.708 333.457 763.574C334.522 762.498 334.863 761.135 334.493 759.83C334.118 758.524 333.063 757.38 331.472 756.609C329.88 755.839 327.856 755.491 325.761 755.601Z" fill="#8AC950"/>
<path d="M477.168 244.336C475.678 240.678 475.021 236.552 474.983 232.505C467.506 234.133 459.623 232.201 454.11 226.816C449.823 228.147 445.635 229.276 441.082 228.865C435.726 228.382 429.887 225.879 425.923 220.285C419.827 211.685 422.181 202.258 424.016 192.833C420.18 190.529 416.725 187.668 413.727 184.244C406.876 182.687 400.008 184.489 393.283 181.639C387.82 179.323 381.973 174.059 381.061 165.484C379.49 150.697 393.667 140.687 401.742 130.371C400.873 127.117 400.147 123.82 399.568 120.483C391.468 116.91 382.169 116.797 374.358 112.821C363.349 107.216 360.29 93.4973 367.628 83.6378C375.638 72.8783 390.979 71.7566 399.533 63.2023C399.267 60.4306 398.94 57.4896 398.535 54.379C396.994 42.5345 389.753 31.9917 391.431 19.714C392.49 11.9624 396.875 5.45541 403.216 1.08313C403.815 0.694055 404.425 0.333767 405.043 0.00012207H477.168V244.336Z" fill="#439122"/>
</svg>
